<?xml version="1.0" encoding="UTF-8" standalone="no"?>
<!DOCTYPE svg PUBLIC "-//W3C//DTD SVG 1.1//EN"
 "http://www.w3.org/Graphics/SVG/1.1/DTD/svg11.dtd">
<!-- Generated by graphviz version 14.0.2 (20251019.1705)
 -->
<!-- Title: if_flow Pages: 1 -->
<svg width="251pt" height="167pt"
 viewBox="0.00 0.00 251.00 167.00" xmlns="http://www.w3.org/2000/svg" xmlns:xlink="http://www.w3.org/1999/xlink">
<g id="graph0" class="graph" transform="scale(1 1) rotate(0) translate(4 162.75)">
<title>if_flow</title>
<polygon fill="white" stroke="none" points="-4,4 -4,-162.75 247,-162.75 247,4 -4,4"/>
<g id="clust1" class="cluster">
<title>cluster_IF</title>
<path fill="none" stroke="red" stroke-dasharray="5,2" d="M85,-8C85,-8 223,-8 223,-8 229,-8 235,-14 235,-20 235,-20 235,-89.75 235,-89.75 235,-95.75 229,-101.75 223,-101.75 223,-101.75 85,-101.75 85,-101.75 79,-101.75 73,-95.75 73,-89.75 73,-89.75 73,-20 73,-20 73,-14 79,-8 85,-8"/>
</g>
<!-- B -->
<g id="node1" class="node">
<title>B</title>
<polygon fill="yellow" stroke="black" points="91,-158.75 9,-158.75 9,-138 91,-138 91,-158.75"/>
<text xml:space="preserve" text-anchor="middle" x="50" y="-145.25" font-family="monospace" font-size="10.00">temp &gt; 22 ?</text>
</g>
<!-- Y -->
<g id="node2" class="node">
<title>Y</title>
<path fill="none" stroke="black" d="M57.08,-93.75C57.08,-93.75 6.92,-93.75 6.92,-93.75 3.46,-93.75 0,-90.29 0,-86.83 0,-86.83 0,-79.92 0,-79.92 0,-76.46 3.46,-73 6.92,-73 6.92,-73 57.08,-73 57.08,-73 60.54,-73 64,-76.46 64,-79.92 64,-79.92 64,-86.83 64,-86.83 64,-90.29 60.54,-93.75 57.08,-93.75"/>
<text xml:space="preserve" text-anchor="middle" x="32" y="-80.25" font-family="monospace" font-size="10.00">print(2)</text>
</g>
<!-- B&#45;&gt;Y -->
<g id="edge1" class="edge">
<title>B&#45;&gt;Y</title>
<path fill="none" stroke="black" d="M47.19,-137.53C44.69,-128.79 40.96,-115.73 37.82,-104.75"/>
<polygon fill="black" stroke="black" points="41.26,-104.05 35.15,-95.4 34.53,-105.98 41.26,-104.05"/>
<text xml:space="preserve" text-anchor="middle" x="51.81" y="-116.7" font-family="Times,serif" font-size="14.00">是</text>
</g>
<!-- B2 -->
<g id="node3" class="node">
<title>B2</title>
<polygon fill="yellow" stroke="black" points="164,-93.75 82,-93.75 82,-73 164,-73 164,-93.75"/>
<text xml:space="preserve" text-anchor="start" x="90" y="-81.25" font-family="monospace" font-weight="bold" font-style="italic" font-size="10.00">temp &gt; 12 ?</text>
</g>
<!-- B&#45;&gt;B2 -->
<g id="edge2" class="edge">
<title>B&#45;&gt;B2</title>
<path fill="none" stroke="black" d="M61.41,-137.53C72.61,-127.86 89.94,-112.91 103.37,-101.32"/>
<polygon fill="black" stroke="black" points="105.48,-104.12 110.77,-94.93 100.91,-98.82 105.48,-104.12"/>
<text xml:space="preserve" text-anchor="middle" x="100.16" y="-116.7" font-family="Times,serif" font-size="14.00">否</text>
</g>
<!-- Y2 -->
<g id="node4" class="node">
<title>Y2</title>
<path fill="none" stroke="black" d="M138.08,-36.75C138.08,-36.75 87.92,-36.75 87.92,-36.75 84.46,-36.75 81,-33.29 81,-29.83 81,-29.83 81,-22.92 81,-22.92 81,-19.46 84.46,-16 87.92,-16 87.92,-16 138.08,-16 138.08,-16 141.54,-16 145,-19.46 145,-22.92 145,-22.92 145,-29.83 145,-29.83 145,-33.29 141.54,-36.75 138.08,-36.75"/>
<text xml:space="preserve" text-anchor="start" x="89" y="-24.25" font-family="monospace" font-weight="bold" font-style="italic" font-size="10.00">print(1)</text>
</g>
<!-- B2&#45;&gt;Y2 -->
<g id="edge3" class="edge">
<title>B2&#45;&gt;Y2</title>
<path fill="none" stroke="black" d="M121.21,-72.54C119.99,-65.82 118.32,-56.64 116.81,-48.32"/>
<polygon fill="black" stroke="black" points="120.28,-47.82 115.04,-38.61 113.39,-49.08 120.28,-47.82"/>
<text xml:space="preserve" text-anchor="start" x="119.77" y="-52.7" font-family="Times,serif" font-weight="bold" font-style="italic" font-size="14.00">是</text>
</g>
<!-- N2 -->
<g id="node5" class="node">
<title>N2</title>
<path fill="none" stroke="black" d="M220.08,-36.75C220.08,-36.75 169.92,-36.75 169.92,-36.75 166.46,-36.75 163,-33.29 163,-29.83 163,-29.83 163,-22.92 163,-22.92 163,-19.46 166.46,-16 169.92,-16 169.92,-16 220.08,-16 220.08,-16 223.54,-16 227,-19.46 227,-22.92 227,-22.92 227,-29.83 227,-29.83 227,-33.29 223.54,-36.75 220.08,-36.75"/>
<text xml:space="preserve" text-anchor="start" x="171" y="-24.25" font-family="monospace" font-weight="bold" font-style="italic" font-size="10.00">print(0)</text>
</g>
<!-- B2&#45;&gt;N2 -->
<g id="edge4" class="edge">
<title>B2&#45;&gt;N2</title>
<path fill="none" stroke="black" d="M135.87,-72.54C146.21,-64.64 160.97,-53.37 173.15,-44.06"/>
<polygon fill="black" stroke="black" points="175.21,-46.89 181.04,-38.04 170.97,-41.33 175.21,-46.89"/>
<text xml:space="preserve" text-anchor="start" x="171.71" y="-52.7" font-family="Times,serif" font-weight="bold" font-style="italic" font-size="14.00">否</text>
</g>
</g>
</svg>
