<?xml version="1.0" encoding="UTF-8" standalone="no"?>
<!DOCTYPE svg PUBLIC "-//W3C//DTD SVG 1.1//EN"
 "http://www.w3.org/Graphics/SVG/1.1/DTD/svg11.dtd">
<!-- Generated by graphviz version 14.0.2 (20251019.1705)
 -->
<!-- Title: grouped_flow Pages: 1 -->
<svg width="127pt" height="213pt"
 viewBox="0.00 0.00 127.00 213.00" xmlns="http://www.w3.org/2000/svg" xmlns:xlink="http://www.w3.org/1999/xlink">
<g id="graph0" class="graph" transform="scale(1 1) rotate(0) translate(4 208.69)">
<title>grouped_flow</title>
<polygon fill="white" stroke="none" points="-4,4 -4,-208.69 123,-208.69 123,4 -4,4"/>
<g id="clust1" class="cluster">
<title>cluster_IF</title>
<path fill="none" stroke="red" stroke-dasharray="5,2" d="M25,-55.47C25,-55.47 99,-55.47 99,-55.47 105,-55.47 111,-61.47 111,-67.47 111,-67.47 111,-154.94 111,-154.94 111,-160.94 105,-166.94 99,-166.94 99,-166.94 25,-166.94 25,-166.94 19,-166.94 13,-160.94 13,-154.94 13,-154.94 13,-67.47 13,-67.47 13,-61.47 19,-55.47 25,-55.47"/>
</g>
<!-- S -->
<g id="node1" class="node">
<title>S</title>
<path fill="none" stroke="black" d="M105.08,-204.69C105.08,-204.69 6.92,-204.69 6.92,-204.69 3.46,-204.69 0,-201.23 0,-197.77 0,-197.77 0,-190.86 0,-190.86 0,-187.4 3.46,-183.94 6.92,-183.94 6.92,-183.94 105.08,-183.94 105.08,-183.94 108.54,-183.94 112,-187.4 112,-190.86 112,-190.86 112,-197.77 112,-197.77 112,-201.23 108.54,-204.69 105.08,-204.69"/>
<text xml:space="preserve" text-anchor="middle" x="56" y="-191.19" font-family="monospace" font-size="10.00">i = int(input())</text>
</g>
<!-- B -->
<g id="node3" class="node">
<title>B</title>
<polygon fill="yellow" stroke="black" points="85,-158.94 27,-158.94 27,-138.19 85,-138.19 85,-158.94"/>
<text xml:space="preserve" text-anchor="start" x="35" y="-146.44" font-family="monospace" font-weight="bold" font-style="italic" font-size="10.00">i &lt; 3 ?</text>
</g>
<!-- S&#45;&gt;B -->
<g id="edge1" class="edge">
<title>S&#45;&gt;B</title>
<path fill="none" stroke="black" d="M56,-183.61C56,-179.75 56,-175.16 56,-170.62"/>
<polygon fill="black" stroke="black" points="59.5,-170.76 56,-160.76 52.5,-170.76 59.5,-170.76"/>
</g>
<!-- W -->
<g id="node2" class="node">
<title>W</title>
<path fill="none" stroke="black" d="M108.08,-20.75C108.08,-20.75 45.92,-20.75 45.92,-20.75 42.46,-20.75 39,-17.29 39,-13.83 39,-13.83 39,-6.92 39,-6.92 39,-3.46 42.46,0 45.92,0 45.92,0 108.08,0 108.08,0 111.54,0 115,-3.46 115,-6.92 115,-6.92 115,-13.83 115,-13.83 115,-17.29 111.54,-20.75 108.08,-20.75"/>
<text xml:space="preserve" text-anchor="middle" x="77" y="-7.25" font-family="monospace" font-size="10.00">print(999)</text>
</g>
<!-- Y -->
<g id="node4" class="node">
<title>Y</title>
<path fill="none" stroke="black" d="M78.08,-101.94C78.08,-101.94 27.92,-101.94 27.92,-101.94 24.46,-101.94 21,-98.48 21,-95.02 21,-95.02 21,-88.11 21,-88.11 21,-84.65 24.46,-81.19 27.92,-81.19 27.92,-81.19 78.08,-81.19 78.08,-81.19 81.54,-81.19 85,-84.65 85,-88.11 85,-88.11 85,-95.02 85,-95.02 85,-98.48 81.54,-101.94 78.08,-101.94"/>
<text xml:space="preserve" text-anchor="start" x="29" y="-89.44" font-family="monospace" font-weight="bold" font-style="italic" font-size="10.00">print(i)</text>
</g>
<!-- B&#45;&gt;Y -->
<g id="edge2" class="edge">
<title>B&#45;&gt;Y</title>
<path fill="none" stroke="black" d="M53.89,-138.05C53.42,-135.51 52.99,-132.76 52.75,-130.19 52.25,-124.85 52.1,-119.06 52.13,-113.67"/>
<polygon fill="black" stroke="black" points="55.62,-113.77 52.38,-103.69 48.63,-113.6 55.62,-113.77"/>
<text xml:space="preserve" text-anchor="start" x="52.75" y="-117.89" font-family="Times,serif" font-weight="bold" font-style="italic" font-size="14.00">是</text>
</g>
<!-- N -->
<!-- B&#45;&gt;N -->
<g id="edge3" class="edge">
<title>B:e&#45;&gt;N:n</title>
<path fill="none" stroke="black" d="M86,-148.56C111.7,-148.56 103,-118.99 103,-93.28"/>
<text xml:space="preserve" text-anchor="start" x="104.42" y="-117.89" font-family="Times,serif" font-weight="bold" font-style="italic" font-size="14.00">否</text>
</g>
<!-- M -->
<!-- Y&#45;&gt;M -->
<g id="edge5" class="edge">
<title>Y&#45;&gt;M:n</title>
<path fill="none" stroke="black" d="M68.06,-80.77C72.89,-76.4 77,-70.75 77,-64.19"/>
</g>
<!-- YR -->
<!-- M&#45;&gt;YR -->
<g id="edge6" class="edge">
<title>M&#45;&gt;YR</title>
<path fill="none" stroke="black" d="M77,-62.76C77,-61.42 77,-41.24 77,-38.73"/>
</g>
<!-- N&#45;&gt;M -->
<g id="edge4" class="edge">
<title>N:s&#45;&gt;M:n</title>
<path fill="none" stroke="black" d="M103,-89.84C103,-73.61 77,-80.42 77,-64.19"/>
</g>
<!-- YR&#45;&gt;W -->
<g id="edge7" class="edge">
<title>YR&#45;&gt;W</title>
<path fill="none" stroke="black" d="M77,-37.45C77,-36.77 77,-34.94 77,-32.55"/>
<polygon fill="black" stroke="black" points="80.5,-32.56 77,-22.56 73.5,-32.56 80.5,-32.56"/>
</g>
</g>
</svg>
