<?xml version="1.0" encoding="UTF-8" standalone="no"?>
<!DOCTYPE svg PUBLIC "-//W3C//DTD SVG 1.1//EN"
 "http://www.w3.org/Graphics/SVG/1.1/DTD/svg11.dtd">
<!-- Generated by graphviz version 14.0.2 (20251019.1705)
 -->
<!-- Title: if_flow Pages: 1 -->
<svg width="176pt" height="151pt"
 viewBox="0.00 0.00 176.00 151.00" xmlns="http://www.w3.org/2000/svg" xmlns:xlink="http://www.w3.org/1999/xlink">
<g id="graph0" class="graph" transform="scale(1 1) rotate(0) translate(4 147)">
<title>if_flow</title>
<polygon fill="white" stroke="none" points="-4,4 -4,-147 172,-147 172,4 -4,4"/>
<g id="clust1" class="cluster">
<title>cluster_margin</title>
</g>
<!-- B -->
<g id="node1" class="node">
<title>B</title>
<polygon fill="yellow" stroke="black" points="128,-143 52,-143 52,-122.25 128,-122.25 128,-143"/>
<text xml:space="preserve" text-anchor="middle" x="90" y="-129.5" font-family="monospace" font-size="10.00">age ≥ 18 ?</text>
</g>
<!-- Y -->
<g id="node2" class="node">
<title>Y</title>
<path fill="none" stroke="black" d="M68,-75C68,-75 28,-75 28,-75 22,-75 16,-69 16,-63 16,-63 16,-28 16,-28 16,-22 22,-16 28,-16 28,-16 68,-16 68,-16 74,-16 80,-22 80,-28 80,-28 80,-63 80,-63 80,-69 74,-75 68,-75"/>
<text xml:space="preserve" text-anchor="middle" x="48" y="-61.5" font-family="monospace" font-size="10.00">print(1)</text>
<text xml:space="preserve" text-anchor="middle" x="48" y="-48.75" font-family="monospace" font-size="10.00">print(2)</text>
<text xml:space="preserve" text-anchor="middle" x="48" y="-36" font-family="monospace" font-size="10.00">print(3)</text>
<text xml:space="preserve" text-anchor="middle" x="48" y="-23.25" font-family="monospace" font-size="10.00">print(4)</text>
</g>
<!-- B&#45;&gt;Y -->
<g id="edge1" class="edge">
<title>B&#45;&gt;Y</title>
<path fill="none" stroke="black" d="M85.18,-121.86C80.75,-112.88 73.88,-98.96 67.25,-85.52"/>
<polygon fill="black" stroke="black" points="70.5,-84.2 62.94,-76.78 64.22,-87.29 70.5,-84.2"/>
<text xml:space="preserve" text-anchor="middle" x="86.98" y="-97.95" font-family="Times,serif" font-size="14.00">是</text>
</g>
<!-- N -->
<g id="node3" class="node">
<title>N</title>
<path fill="none" stroke="black" d="M156,-68.62C156,-68.62 110,-68.62 110,-68.62 104,-68.62 98,-62.62 98,-56.62 98,-56.62 98,-34.38 98,-34.38 98,-28.38 104,-22.38 110,-22.38 110,-22.38 156,-22.38 156,-22.38 162,-22.38 168,-28.38 168,-34.38 168,-34.38 168,-56.62 168,-56.62 168,-62.62 162,-68.62 156,-68.62"/>
<text xml:space="preserve" text-anchor="start" x="106" y="-55.12" font-family="monospace" font-size="10.00">print(0)</text>
<text xml:space="preserve" text-anchor="start" x="106" y="-42.38" font-family="monospace" font-size="10.00">a=input()</text>
<text xml:space="preserve" text-anchor="start" x="106" y="-29.62" font-family="monospace" font-size="10.00">print(a)</text>
</g>
<!-- B&#45;&gt;N -->
<g id="edge2" class="edge">
<title>B&#45;&gt;N</title>
<path fill="none" stroke="black" d="M94.93,-121.86C100.2,-111.43 108.84,-94.33 116.56,-79.05"/>
<polygon fill="black" stroke="black" points="119.63,-80.72 121.02,-70.22 113.39,-77.57 119.63,-80.72"/>
<text xml:space="preserve" text-anchor="middle" x="117.34" y="-97.95" font-family="Times,serif" font-size="14.00">否</text>
</g>
</g>
</svg>
