<?xml version="1.0" encoding="UTF-8" standalone="no"?>
<!DOCTYPE svg PUBLIC "-//W3C//DTD SVG 1.1//EN"
 "http://www.w3.org/Graphics/SVG/1.1/DTD/svg11.dtd">
<!-- Generated by graphviz version 14.0.2 (20251019.1705)
 -->
<!-- Title: if_flow Pages: 1 -->
<svg width="316pt" height="171pt"
 viewBox="0.00 0.00 316.00 171.00" xmlns="http://www.w3.org/2000/svg" xmlns:xlink="http://www.w3.org/1999/xlink">
<g id="graph0" class="graph" transform="scale(1 1) rotate(0) translate(4 166.75)">
<title>if_flow</title>
<polygon fill="white" stroke="none" points="-4,4 -4,-166.75 312,-166.75 312,4 -4,4"/>
<!-- B0 -->
<g id="node1" class="node">
<title>B0</title>
<polygon fill="yellow" stroke="black" points="200,-162.75 94,-162.75 94,-142 200,-142 200,-162.75"/>
<text xml:space="preserve" text-anchor="middle" x="147" y="-149.25" font-family="monospace" font-size="10.00">6 ≤ month ≤ 9 ?</text>
</g>
<!-- B1 -->
<g id="node2" class="node">
<title>B1</title>
<polygon fill="yellow" stroke="black" points="139,-91.75 39,-91.75 39,-71 139,-71 139,-91.75"/>
<text xml:space="preserve" text-anchor="middle" x="89" y="-78.25" font-family="monospace" font-size="10.00">degree &gt; 500 ?</text>
</g>
<!-- B0&#45;&gt;B1 -->
<g id="edge1" class="edge">
<title>B0&#45;&gt;B1</title>
<path fill="none" stroke="black" d="M138.94,-141.78C130.02,-131.17 115.45,-113.84 104.34,-100.63"/>
<polygon fill="black" stroke="black" points="107.08,-98.45 97.97,-93.05 101.73,-102.95 107.08,-98.45"/>
<text xml:space="preserve" text-anchor="middle" x="132.03" y="-113.7" font-family="Times,serif" font-size="14.00">是</text>
</g>
<!-- B2 -->
<g id="node3" class="node">
<title>B2</title>
<polygon fill="yellow" stroke="black" points="257,-91.75 157,-91.75 157,-71 257,-71 257,-91.75"/>
<text xml:space="preserve" text-anchor="middle" x="207" y="-78.25" font-family="monospace" font-size="10.00">degree &gt; 500 ?</text>
</g>
<!-- B0&#45;&gt;B2 -->
<g id="edge2" class="edge">
<title>B0&#45;&gt;B2</title>
<path fill="none" stroke="black" d="M155.34,-141.78C164.66,-131.07 179.93,-113.5 191.46,-100.24"/>
<polygon fill="black" stroke="black" points="193.81,-102.87 197.73,-93.03 188.53,-98.28 193.81,-102.87"/>
<text xml:space="preserve" text-anchor="middle" x="191.26" y="-113.7" font-family="Times,serif" font-size="14.00">否</text>
</g>
<!-- Y1 -->
<g id="node4" class="node">
<title>Y1</title>
<path fill="none" stroke="black" d="M51.08,-20.75C51.08,-20.75 6.92,-20.75 6.92,-20.75 3.46,-20.75 0,-17.29 0,-13.83 0,-13.83 0,-6.92 0,-6.92 0,-3.46 3.46,0 6.92,0 6.92,0 51.08,0 51.08,0 54.54,0 58,-3.46 58,-6.92 58,-6.92 58,-13.83 58,-13.83 58,-17.29 54.54,-20.75 51.08,-20.75"/>
<text xml:space="preserve" text-anchor="middle" x="29" y="-7.25" font-family="monospace" font-size="10.00">prin(5)</text>
</g>
<!-- B1&#45;&gt;Y1 -->
<g id="edge3" class="edge">
<title>B1&#45;&gt;Y1</title>
<path fill="none" stroke="black" d="M80.66,-70.78C71.34,-60.07 56.07,-42.5 44.54,-29.24"/>
<polygon fill="black" stroke="black" points="47.47,-27.28 38.27,-22.03 42.19,-31.87 47.47,-27.28"/>
<text xml:space="preserve" text-anchor="middle" x="73.26" y="-42.7" font-family="Times,serif" font-size="14.00">是</text>
</g>
<!-- N1 -->
<g id="node5" class="node">
<title>N1</title>
<path fill="none" stroke="black" d="M133.08,-20.75C133.08,-20.75 82.92,-20.75 82.92,-20.75 79.46,-20.75 76,-17.29 76,-13.83 76,-13.83 76,-6.92 76,-6.92 76,-3.46 79.46,0 82.92,0 82.92,0 133.08,0 133.08,0 136.54,0 140,-3.46 140,-6.92 140,-6.92 140,-13.83 140,-13.83 140,-17.29 136.54,-20.75 133.08,-20.75"/>
<text xml:space="preserve" text-anchor="middle" x="108" y="-7.25" font-family="monospace" font-size="10.00">print(4)</text>
</g>
<!-- B1&#45;&gt;N1 -->
<g id="edge4" class="edge">
<title>B1&#45;&gt;N1</title>
<path fill="none" stroke="black" d="M91.64,-70.78C94.39,-60.79 98.79,-44.84 102.33,-31.97"/>
<polygon fill="black" stroke="black" points="105.7,-32.92 104.98,-22.35 98.95,-31.06 105.7,-32.92"/>
<text xml:space="preserve" text-anchor="middle" x="107.89" y="-42.7" font-family="Times,serif" font-size="14.00">否</text>
</g>
<!-- Y2 -->
<g id="node6" class="node">
<title>Y2</title>
<path fill="none" stroke="black" d="M219.08,-20.75C219.08,-20.75 174.92,-20.75 174.92,-20.75 171.46,-20.75 168,-17.29 168,-13.83 168,-13.83 168,-6.92 168,-6.92 168,-3.46 171.46,0 174.92,0 174.92,0 219.08,0 219.08,0 222.54,0 226,-3.46 226,-6.92 226,-6.92 226,-13.83 226,-13.83 226,-17.29 222.54,-20.75 219.08,-20.75"/>
<text xml:space="preserve" text-anchor="middle" x="197" y="-7.25" font-family="monospace" font-size="10.00">prin(3)</text>
</g>
<!-- B2&#45;&gt;Y2 -->
<g id="edge5" class="edge">
<title>B2&#45;&gt;Y2</title>
<path fill="none" stroke="black" d="M205.61,-70.78C204.16,-60.79 201.85,-44.84 199.99,-31.97"/>
<polygon fill="black" stroke="black" points="203.49,-31.78 198.6,-22.39 196.57,-32.78 203.49,-31.78"/>
<text xml:space="preserve" text-anchor="middle" x="210.31" y="-42.7" font-family="Times,serif" font-size="14.00">是</text>
</g>
<!-- N2 -->
<g id="node7" class="node">
<title>N2</title>
<path fill="none" stroke="black" d="M301.08,-20.75C301.08,-20.75 250.92,-20.75 250.92,-20.75 247.46,-20.75 244,-17.29 244,-13.83 244,-13.83 244,-6.92 244,-6.92 244,-3.46 247.46,0 250.92,0 250.92,0 301.08,0 301.08,0 304.54,0 308,-3.46 308,-6.92 308,-6.92 308,-13.83 308,-13.83 308,-17.29 304.54,-20.75 301.08,-20.75"/>
<text xml:space="preserve" text-anchor="middle" x="276" y="-7.25" font-family="monospace" font-size="10.00">print(2)</text>
</g>
<!-- B2&#45;&gt;N2 -->
<g id="edge6" class="edge">
<title>B2&#45;&gt;N2</title>
<path fill="none" stroke="black" d="M216.59,-70.78C227.41,-59.97 245.21,-42.16 258.51,-28.86"/>
<polygon fill="black" stroke="black" points="260.82,-31.5 265.42,-21.96 255.87,-26.55 260.82,-31.5"/>
<text xml:space="preserve" text-anchor="middle" x="256.83" y="-42.7" font-family="Times,serif" font-size="14.00">否</text>
</g>
</g>
</svg>
