<?xml version="1.0" encoding="UTF-8" standalone="no"?>
<!DOCTYPE svg PUBLIC "-//W3C//DTD SVG 1.1//EN"
 "http://www.w3.org/Graphics/SVG/1.1/DTD/svg11.dtd">
<!-- Generated by graphviz version 14.0.2 (20251019.1705)
 -->
<!-- Title: Fibonacci_Tree Pages: 1 -->
<svg width="926pt" height="404pt"
 viewBox="0.00 0.00 926.00 404.00" xmlns="http://www.w3.org/2000/svg" xmlns:xlink="http://www.w3.org/1999/xlink">
<g id="graph0" class="graph" transform="scale(1 1) rotate(0) translate(4 400)">
<title>Fibonacci_Tree</title>
<polygon fill="white" stroke="none" points="-4,4 -4,-400 922,-400 922,4 -4,4"/>
<!-- F7 -->
<g id="node1" class="node">
<title>F7</title>
<ellipse fill="lightblue" stroke="black" cx="522" cy="-378" rx="27" ry="18"/>
<text xml:space="preserve" text-anchor="middle" x="522" y="-372.95" font-family="Times,serif" font-size="14.00">F(7)</text>
</g>
<!-- F6 -->
<g id="node2" class="node">
<title>F6</title>
<ellipse fill="lightcoral" stroke="black" cx="495" cy="-306" rx="27" ry="18"/>
<text xml:space="preserve" text-anchor="middle" x="495" y="-300.95" font-family="Times,serif" font-size="14.00">F(6)</text>
</g>
<!-- F7&#45;&gt;F6 -->
<g id="edge1" class="edge">
<title>F7&#45;&gt;F6</title>
<path fill="none" stroke="black" d="M515.46,-360.05C512.48,-352.32 508.87,-342.96 505.52,-334.27"/>
<polygon fill="black" stroke="black" points="508.88,-333.27 502.02,-325.2 502.35,-335.79 508.88,-333.27"/>
</g>
<!-- F5_1 -->
<g id="node3" class="node">
<title>F5_1</title>
<ellipse fill="lightpink" stroke="black" cx="711" cy="-234" rx="27" ry="18"/>
<text xml:space="preserve" text-anchor="middle" x="711" y="-228.95" font-family="Times,serif" font-size="14.00">F(5)</text>
</g>
<!-- F7&#45;&gt;F5_1 -->
<g id="edge2" class="edge">
<title>F7&#45;&gt;F5_1</title>
<path fill="none" stroke="black" d="M539.44,-363.9C572.77,-338.85 645.69,-284.07 684.87,-254.64"/>
<polygon fill="black" stroke="black" points="686.5,-257.79 692.39,-248.98 682.29,-252.19 686.5,-257.79"/>
</g>
<!-- F5_2 -->
<g id="node4" class="node">
<title>F5_2</title>
<ellipse fill="lightpink" stroke="black" cx="279" cy="-234" rx="27" ry="18"/>
<text xml:space="preserve" text-anchor="middle" x="279" y="-228.95" font-family="Times,serif" font-size="14.00">F(5)</text>
</g>
<!-- F6&#45;&gt;F5_2 -->
<g id="edge3" class="edge">
<title>F6&#45;&gt;F5_2</title>
<path fill="none" stroke="black" d="M471.06,-297.24C432.86,-284.86 357.96,-260.59 313.83,-246.29"/>
<polygon fill="black" stroke="black" points="315.08,-243.01 304.49,-243.26 312.92,-249.67 315.08,-243.01"/>
</g>
<!-- F4_1 -->
<g id="node5" class="node">
<title>F4_1</title>
<ellipse fill="lightgreen" stroke="black" cx="495" cy="-162" rx="27" ry="18"/>
<text xml:space="preserve" text-anchor="middle" x="495" y="-156.95" font-family="Times,serif" font-size="14.00">F(4)</text>
</g>
<!-- F6&#45;&gt;F4_1 -->
<g id="edge4" class="edge">
<title>F6&#45;&gt;F4_1</title>
<path fill="none" stroke="black" d="M495,-287.59C495,-263.61 495,-220.14 495,-191.42"/>
<polygon fill="black" stroke="black" points="498.5,-191.62 495,-181.62 491.5,-191.62 498.5,-191.62"/>
</g>
<!-- F4_2 -->
<g id="node6" class="node">
<title>F4_2</title>
<ellipse fill="lightgreen" stroke="black" cx="711" cy="-162" rx="27" ry="18"/>
<text xml:space="preserve" text-anchor="middle" x="711" y="-156.95" font-family="Times,serif" font-size="14.00">F(4)</text>
</g>
<!-- F5_1&#45;&gt;F4_2 -->
<g id="edge5" class="edge">
<title>F5_1&#45;&gt;F4_2</title>
<path fill="none" stroke="black" d="M711,-215.7C711,-208.41 711,-199.73 711,-191.54"/>
<polygon fill="black" stroke="black" points="714.5,-191.62 711,-181.62 707.5,-191.62 714.5,-191.62"/>
</g>
<!-- F3_1 -->
<g id="node7" class="node">
<title>F3_1</title>
<ellipse fill="lightgoldenrodyellow" stroke="black" cx="819" cy="-90" rx="27" ry="18"/>
<text xml:space="preserve" text-anchor="middle" x="819" y="-84.95" font-family="Times,serif" font-size="14.00">F(3)</text>
</g>
<!-- F5_1&#45;&gt;F3_1 -->
<g id="edge6" class="edge">
<title>F5_1&#45;&gt;F3_1</title>
<path fill="none" stroke="black" d="M722.76,-217.53C741.43,-192.99 777.99,-144.92 800.28,-115.61"/>
<polygon fill="black" stroke="black" points="803.07,-117.73 806.33,-107.65 797.5,-113.49 803.07,-117.73"/>
</g>
<!-- F4_3 -->
<g id="node8" class="node">
<title>F4_3</title>
<ellipse fill="lightgreen" stroke="black" cx="171" cy="-162" rx="27" ry="18"/>
<text xml:space="preserve" text-anchor="middle" x="171" y="-156.95" font-family="Times,serif" font-size="14.00">F(4)</text>
</g>
<!-- F5_2&#45;&gt;F4_3 -->
<g id="edge7" class="edge">
<title>F5_2&#45;&gt;F4_3</title>
<path fill="none" stroke="black" d="M260.19,-220.81C243.41,-209.93 218.61,-193.86 199.41,-181.42"/>
<polygon fill="black" stroke="black" points="201.52,-178.61 191.23,-176.11 197.72,-184.49 201.52,-178.61"/>
</g>
<!-- F3_2 -->
<g id="node9" class="node">
<title>F3_2</title>
<ellipse fill="lightgoldenrodyellow" stroke="black" cx="279" cy="-90" rx="27" ry="18"/>
<text xml:space="preserve" text-anchor="middle" x="279" y="-84.95" font-family="Times,serif" font-size="14.00">F(3)</text>
</g>
<!-- F5_2&#45;&gt;F3_2 -->
<g id="edge8" class="edge">
<title>F5_2&#45;&gt;F3_2</title>
<path fill="none" stroke="black" d="M279,-215.59C279,-191.61 279,-148.14 279,-119.42"/>
<polygon fill="black" stroke="black" points="282.5,-119.62 279,-109.62 275.5,-119.62 282.5,-119.62"/>
</g>
<!-- F3_3 -->
<g id="node10" class="node">
<title>F3_3</title>
<ellipse fill="lightgoldenrodyellow" stroke="black" cx="459" cy="-90" rx="27" ry="18"/>
<text xml:space="preserve" text-anchor="middle" x="459" y="-84.95" font-family="Times,serif" font-size="14.00">F(3)</text>
</g>
<!-- F4_1&#45;&gt;F3_3 -->
<g id="edge9" class="edge">
<title>F4_1&#45;&gt;F3_3</title>
<path fill="none" stroke="black" d="M486.65,-144.76C482.42,-136.55 477.19,-126.37 472.42,-117.09"/>
<polygon fill="black" stroke="black" points="475.68,-115.79 468,-108.49 469.46,-118.99 475.68,-115.79"/>
</g>
<!-- F2_1 -->
<g id="node11" class="node">
<title>F2_1</title>
<ellipse fill="lightsalmon" stroke="black" cx="531" cy="-18" rx="27" ry="18"/>
<text xml:space="preserve" text-anchor="middle" x="531" y="-12.95" font-family="Times,serif" font-size="14.00">F(2)</text>
</g>
<!-- F4_1&#45;&gt;F2_1 -->
<g id="edge10" class="edge">
<title>F4_1&#45;&gt;F2_1</title>
<path fill="none" stroke="black" d="M499.34,-143.87C505.42,-119.88 516.55,-75.99 523.86,-47.16"/>
<polygon fill="black" stroke="black" points="527.21,-48.21 526.27,-37.66 520.42,-46.49 527.21,-48.21"/>
</g>
<!-- F3_4 -->
<g id="node12" class="node">
<title>F3_4</title>
<ellipse fill="lightgoldenrodyellow" stroke="black" cx="675" cy="-90" rx="27" ry="18"/>
<text xml:space="preserve" text-anchor="middle" x="675" y="-84.95" font-family="Times,serif" font-size="14.00">F(3)</text>
</g>
<!-- F4_2&#45;&gt;F3_4 -->
<g id="edge11" class="edge">
<title>F4_2&#45;&gt;F3_4</title>
<path fill="none" stroke="black" d="M702.65,-144.76C698.42,-136.55 693.19,-126.37 688.42,-117.09"/>
<polygon fill="black" stroke="black" points="691.68,-115.79 684,-108.49 685.46,-118.99 691.68,-115.79"/>
</g>
<!-- F2_2 -->
<g id="node13" class="node">
<title>F2_2</title>
<ellipse fill="lightsalmon" stroke="black" cx="747" cy="-18" rx="27" ry="18"/>
<text xml:space="preserve" text-anchor="middle" x="747" y="-12.95" font-family="Times,serif" font-size="14.00">F(2)</text>
</g>
<!-- F4_2&#45;&gt;F2_2 -->
<g id="edge12" class="edge">
<title>F4_2&#45;&gt;F2_2</title>
<path fill="none" stroke="black" d="M715.34,-143.87C721.42,-119.88 732.55,-75.99 739.86,-47.16"/>
<polygon fill="black" stroke="black" points="743.21,-48.21 742.27,-37.66 736.42,-46.49 743.21,-48.21"/>
</g>
<!-- F2_4 -->
<g id="node16" class="node">
<title>F2_4</title>
<ellipse fill="lightsalmon" stroke="black" cx="819" cy="-18" rx="27" ry="18"/>
<text xml:space="preserve" text-anchor="middle" x="819" y="-12.95" font-family="Times,serif" font-size="14.00">F(2)</text>
</g>
<!-- F3_1&#45;&gt;F2_4 -->
<g id="edge15" class="edge">
<title>F3_1&#45;&gt;F2_4</title>
<path fill="none" stroke="black" d="M819,-71.7C819,-64.41 819,-55.73 819,-47.54"/>
<polygon fill="black" stroke="black" points="822.5,-47.62 819,-37.62 815.5,-47.62 822.5,-47.62"/>
</g>
<!-- F1_1 -->
<g id="node17" class="node">
<title>F1_1</title>
<ellipse fill="lightseagreen" stroke="black" cx="891" cy="-18" rx="27" ry="18"/>
<text xml:space="preserve" text-anchor="middle" x="891" y="-12.95" font-family="Times,serif" font-size="14.00">F(1)</text>
</g>
<!-- F3_1&#45;&gt;F1_1 -->
<g id="edge16" class="edge">
<title>F3_1&#45;&gt;F1_1</title>
<path fill="none" stroke="black" d="M833.92,-74.5C843.77,-64.92 856.86,-52.19 868.03,-41.34"/>
<polygon fill="black" stroke="black" points="870.29,-44.02 875.02,-34.54 865.41,-39 870.29,-44.02"/>
</g>
<!-- F3_5 -->
<g id="node14" class="node">
<title>F3_5</title>
<ellipse fill="lightgoldenrodyellow" stroke="black" cx="99" cy="-90" rx="27" ry="18"/>
<text xml:space="preserve" text-anchor="middle" x="99" y="-84.95" font-family="Times,serif" font-size="14.00">F(3)</text>
</g>
<!-- F4_3&#45;&gt;F3_5 -->
<g id="edge13" class="edge">
<title>F4_3&#45;&gt;F3_5</title>
<path fill="none" stroke="black" d="M156.08,-146.5C146.23,-136.92 133.14,-124.19 121.97,-113.34"/>
<polygon fill="black" stroke="black" points="124.59,-111 114.98,-106.54 119.71,-116.02 124.59,-111"/>
</g>
<!-- F2_3 -->
<g id="node15" class="node">
<title>F2_3</title>
<ellipse fill="lightsalmon" stroke="black" cx="171" cy="-18" rx="27" ry="18"/>
<text xml:space="preserve" text-anchor="middle" x="171" y="-12.95" font-family="Times,serif" font-size="14.00">F(2)</text>
</g>
<!-- F4_3&#45;&gt;F2_3 -->
<g id="edge14" class="edge">
<title>F4_3&#45;&gt;F2_3</title>
<path fill="none" stroke="black" d="M171,-143.59C171,-119.61 171,-76.14 171,-47.42"/>
<polygon fill="black" stroke="black" points="174.5,-47.62 171,-37.62 167.5,-47.62 174.5,-47.62"/>
</g>
<!-- F2_5 -->
<g id="node18" class="node">
<title>F2_5</title>
<ellipse fill="lightsalmon" stroke="black" cx="243" cy="-18" rx="27" ry="18"/>
<text xml:space="preserve" text-anchor="middle" x="243" y="-12.95" font-family="Times,serif" font-size="14.00">F(2)</text>
</g>
<!-- F3_2&#45;&gt;F2_5 -->
<g id="edge17" class="edge">
<title>F3_2&#45;&gt;F2_5</title>
<path fill="none" stroke="black" d="M270.65,-72.76C266.42,-64.55 261.19,-54.37 256.42,-45.09"/>
<polygon fill="black" stroke="black" points="259.68,-43.79 252,-36.49 253.46,-46.99 259.68,-43.79"/>
</g>
<!-- F1_2 -->
<g id="node19" class="node">
<title>F1_2</title>
<ellipse fill="lightseagreen" stroke="black" cx="315" cy="-18" rx="27" ry="18"/>
<text xml:space="preserve" text-anchor="middle" x="315" y="-12.95" font-family="Times,serif" font-size="14.00">F(1)</text>
</g>
<!-- F3_2&#45;&gt;F1_2 -->
<g id="edge18" class="edge">
<title>F3_2&#45;&gt;F1_2</title>
<path fill="none" stroke="black" d="M287.35,-72.76C291.58,-64.55 296.81,-54.37 301.58,-45.09"/>
<polygon fill="black" stroke="black" points="304.54,-46.99 306,-36.49 298.32,-43.79 304.54,-46.99"/>
</g>
<!-- F2_6 -->
<g id="node20" class="node">
<title>F2_6</title>
<ellipse fill="lightsalmon" stroke="black" cx="387" cy="-18" rx="27" ry="18"/>
<text xml:space="preserve" text-anchor="middle" x="387" y="-12.95" font-family="Times,serif" font-size="14.00">F(2)</text>
</g>
<!-- F3_3&#45;&gt;F2_6 -->
<g id="edge19" class="edge">
<title>F3_3&#45;&gt;F2_6</title>
<path fill="none" stroke="black" d="M444.08,-74.5C434.23,-64.92 421.14,-52.19 409.97,-41.34"/>
<polygon fill="black" stroke="black" points="412.59,-39 402.98,-34.54 407.71,-44.02 412.59,-39"/>
</g>
<!-- F1_3 -->
<g id="node21" class="node">
<title>F1_3</title>
<ellipse fill="lightseagreen" stroke="black" cx="459" cy="-18" rx="27" ry="18"/>
<text xml:space="preserve" text-anchor="middle" x="459" y="-12.95" font-family="Times,serif" font-size="14.00">F(1)</text>
</g>
<!-- F3_3&#45;&gt;F1_3 -->
<g id="edge20" class="edge">
<title>F3_3&#45;&gt;F1_3</title>
<path fill="none" stroke="black" d="M459,-71.7C459,-64.41 459,-55.73 459,-47.54"/>
<polygon fill="black" stroke="black" points="462.5,-47.62 459,-37.62 455.5,-47.62 462.5,-47.62"/>
</g>
<!-- F2_7 -->
<g id="node22" class="node">
<title>F2_7</title>
<ellipse fill="lightsalmon" stroke="black" cx="603" cy="-18" rx="27" ry="18"/>
<text xml:space="preserve" text-anchor="middle" x="603" y="-12.95" font-family="Times,serif" font-size="14.00">F(2)</text>
</g>
<!-- F3_4&#45;&gt;F2_7 -->
<g id="edge21" class="edge">
<title>F3_4&#45;&gt;F2_7</title>
<path fill="none" stroke="black" d="M660.08,-74.5C650.23,-64.92 637.14,-52.19 625.97,-41.34"/>
<polygon fill="black" stroke="black" points="628.59,-39 618.98,-34.54 623.71,-44.02 628.59,-39"/>
</g>
<!-- F1_4 -->
<g id="node23" class="node">
<title>F1_4</title>
<ellipse fill="lightseagreen" stroke="black" cx="675" cy="-18" rx="27" ry="18"/>
<text xml:space="preserve" text-anchor="middle" x="675" y="-12.95" font-family="Times,serif" font-size="14.00">F(1)</text>
</g>
<!-- F3_4&#45;&gt;F1_4 -->
<g id="edge22" class="edge">
<title>F3_4&#45;&gt;F1_4</title>
<path fill="none" stroke="black" d="M675,-71.7C675,-64.41 675,-55.73 675,-47.54"/>
<polygon fill="black" stroke="black" points="678.5,-47.62 675,-37.62 671.5,-47.62 678.5,-47.62"/>
</g>
<!-- F2_8 -->
<g id="node24" class="node">
<title>F2_8</title>
<ellipse fill="lightsalmon" stroke="black" cx="27" cy="-18" rx="27" ry="18"/>
<text xml:space="preserve" text-anchor="middle" x="27" y="-12.95" font-family="Times,serif" font-size="14.00">F(2)</text>
</g>
<!-- F3_5&#45;&gt;F2_8 -->
<g id="edge23" class="edge">
<title>F3_5&#45;&gt;F2_8</title>
<path fill="none" stroke="black" d="M84.08,-74.5C74.23,-64.92 61.14,-52.19 49.97,-41.34"/>
<polygon fill="black" stroke="black" points="52.59,-39 42.98,-34.54 47.71,-44.02 52.59,-39"/>
</g>
<!-- F1_5 -->
<g id="node25" class="node">
<title>F1_5</title>
<ellipse fill="lightseagreen" stroke="black" cx="99" cy="-18" rx="27" ry="18"/>
<text xml:space="preserve" text-anchor="middle" x="99" y="-12.95" font-family="Times,serif" font-size="14.00">F(1)</text>
</g>
<!-- F3_5&#45;&gt;F1_5 -->
<g id="edge24" class="edge">
<title>F3_5&#45;&gt;F1_5</title>
<path fill="none" stroke="black" d="M99,-71.7C99,-64.41 99,-55.73 99,-47.54"/>
<polygon fill="black" stroke="black" points="102.5,-47.62 99,-37.62 95.5,-47.62 102.5,-47.62"/>
</g>
</g>
</svg>
