<?xml version="1.0" encoding="UTF-8" standalone="no"?>
<!DOCTYPE svg PUBLIC "-//W3C//DTD SVG 1.1//EN"
 "http://www.w3.org/Graphics/SVG/1.1/DTD/svg11.dtd">
<!-- Generated by graphviz version 14.0.2 (20251019.1705)
 -->
<!-- Title: merge_flow Pages: 1 -->
<svg width="134pt" height="212pt"
 viewBox="0.00 0.00 134.00 212.00" xmlns="http://www.w3.org/2000/svg" xmlns:xlink="http://www.w3.org/1999/xlink">
<g id="graph0" class="graph" transform="scale(1 1) rotate(0) translate(4 207.97)">
<title>merge_flow</title>
<polygon fill="white" stroke="none" points="-4,4 -4,-207.97 130,-207.97 130,4 -4,4"/>
<!-- S -->
<g id="node1" class="node">
<title>S</title>
<path fill="none" stroke="black" d="M82.83,-203.97C82.83,-203.97 43.17,-203.97 43.17,-203.97 39.33,-203.97 35.5,-200.14 35.5,-196.3 35.5,-196.3 35.5,-188.64 35.5,-188.64 35.5,-184.8 39.33,-180.97 43.17,-180.97 43.17,-180.97 82.83,-180.97 82.83,-180.97 86.67,-180.97 90.5,-184.8 90.5,-188.64 90.5,-188.64 90.5,-196.3 90.5,-196.3 90.5,-200.14 86.67,-203.97 82.83,-203.97"/>
<text xml:space="preserve" text-anchor="middle" x="63" y="-190.47" font-family="monospace" font-size="10.00">準備上學</text>
</g>
<!-- B -->
<g id="node2" class="node">
<title>B</title>
<polygon fill="yellow" stroke="black" points="95.38,-157.97 30.62,-157.97 30.62,-134.97 95.38,-134.97 95.38,-157.97"/>
<text xml:space="preserve" text-anchor="middle" x="63" y="-144.47" font-family="monospace" font-size="10.00">有下雨嗎？</text>
</g>
<!-- S&#45;&gt;B -->
<g id="edge1" class="edge">
<title>S&#45;&gt;B</title>
<path fill="none" stroke="black" d="M63,-180.82C63,-177.41 63,-173.5 63,-169.59"/>
<polygon fill="black" stroke="black" points="66.5,-169.84 63,-159.84 59.5,-169.84 66.5,-169.84"/>
</g>
<!-- Y -->
<g id="node3" class="node">
<title>Y</title>
<path fill="none" stroke="black" d="M46.33,-92.72C46.33,-92.72 7.67,-92.72 7.67,-92.72 3.83,-92.72 0,-88.89 0,-85.05 0,-85.05 0,-77.39 0,-77.39 0,-73.55 3.83,-69.72 7.67,-69.72 7.67,-69.72 46.33,-69.72 46.33,-69.72 50.17,-69.72 54,-73.55 54,-77.39 54,-77.39 54,-85.05 54,-85.05 54,-88.89 50.17,-92.72 46.33,-92.72"/>
<text xml:space="preserve" text-anchor="middle" x="27" y="-79.22" font-family="monospace" font-size="10.00">帶傘</text>
</g>
<!-- B&#45;&gt;Y -->
<g id="edge2" class="edge">
<title>B&#45;&gt;Y</title>
<path fill="none" stroke="black" d="M56.89,-134.74C51.96,-126.07 44.86,-113.61 38.83,-103"/>
<polygon fill="black" stroke="black" points="41.99,-101.49 34.01,-94.53 35.91,-104.95 41.99,-101.49"/>
<text xml:space="preserve" text-anchor="middle" x="57.45" y="-110.67" font-family="Times,serif" font-size="14.00">是</text>
</g>
<!-- N -->
<g id="node4" class="node">
<title>N</title>
<path fill="none" stroke="black" d="M118.33,-92.72C118.33,-92.72 79.67,-92.72 79.67,-92.72 75.83,-92.72 72,-88.89 72,-85.05 72,-85.05 72,-77.39 72,-77.39 72,-73.55 75.83,-69.72 79.67,-69.72 79.67,-69.72 118.33,-69.72 118.33,-69.72 122.17,-69.72 126,-73.55 126,-77.39 126,-77.39 126,-85.05 126,-85.05 126,-88.89 122.17,-92.72 118.33,-92.72"/>
<text xml:space="preserve" text-anchor="middle" x="99" y="-79.22" font-family="monospace" font-size="10.00">不帶傘</text>
</g>
<!-- B&#45;&gt;N -->
<g id="edge3" class="edge">
<title>B&#45;&gt;N</title>
<path fill="none" stroke="black" d="M69.11,-134.74C74.04,-126.07 81.14,-113.61 87.17,-103"/>
<polygon fill="black" stroke="black" points="90.09,-104.95 91.99,-94.53 84.01,-101.49 90.09,-104.95"/>
<text xml:space="preserve" text-anchor="middle" x="93.45" y="-110.67" font-family="Times,serif" font-size="14.00">否</text>
</g>
<!-- M -->
<!-- Y&#45;&gt;M -->
<g id="edge4" class="edge">
<title>Y&#45;&gt;M</title>
<path fill="none" stroke="black" d="M38.46,-69.25C48.03,-60.09 60.35,-48.3 61.85,-46.87"/>
</g>
<!-- N&#45;&gt;M -->
<g id="edge5" class="edge">
<title>N&#45;&gt;M</title>
<path fill="none" stroke="black" d="M86.88,-69.25C76.77,-60.09 63.75,-48.3 62.16,-46.87"/>
</g>
<!-- W -->
<g id="node6" class="node">
<title>W</title>
<path fill="none" stroke="black" d="M86.71,-23C86.71,-23 37.29,-23 37.29,-23 33.46,-23 29.62,-19.17 29.62,-15.33 29.62,-15.33 29.62,-7.67 29.62,-7.67 29.62,-3.83 33.46,0 37.29,0 37.29,0 86.71,0 86.71,0 90.54,0 94.38,-3.83 94.38,-7.67 94.38,-7.67 94.38,-15.33 94.38,-15.33 94.38,-19.17 90.54,-23 86.71,-23"/>
<text xml:space="preserve" text-anchor="middle" x="62" y="-9.5" font-family="monospace" font-size="10.00">走路到學校</text>
</g>
<!-- M&#45;&gt;W -->
<g id="edge6" class="edge">
<title>M&#45;&gt;W</title>
<path fill="none" stroke="black" d="M62,-45.62C62,-44.33 62,-39.83 62,-34.54"/>
<polygon fill="black" stroke="black" points="65.5,-34.89 62,-24.89 58.5,-34.89 65.5,-34.89"/>
</g>
</g>
</svg>
