<?xml version="1.0" encoding="UTF-8" standalone="no"?>
<!DOCTYPE svg PUBLIC "-//W3C//DTD SVG 1.1//EN"
 "http://www.w3.org/Graphics/SVG/1.1/DTD/svg11.dtd">
<!-- Generated by graphviz version 14.0.2 (20251019.1705)
 -->
<!-- Title: grouped_flow Pages: 1 -->
<svg width="166pt" height="222pt"
 viewBox="0.00 0.00 166.00 222.00" xmlns="http://www.w3.org/2000/svg" xmlns:xlink="http://www.w3.org/1999/xlink">
<g id="graph0" class="graph" transform="scale(1 1) rotate(0) translate(4 217.97)">
<title>grouped_flow</title>
<polygon fill="white" stroke="none" points="-4,4 -4,-217.97 162,-217.97 162,4 -4,4"/>
<g id="clust1" class="cluster">
<title>cluster_IF</title>
<path fill="none" stroke="red" stroke-dasharray="5,2" d="M20,-43C20,-43 138,-43 138,-43 144,-43 150,-49 150,-55 150,-55 150,-158.97 150,-158.97 150,-164.97 144,-170.97 138,-170.97 138,-170.97 20,-170.97 20,-170.97 14,-170.97 8,-164.97 8,-158.97 8,-158.97 8,-55 8,-55 8,-49 14,-43 20,-43"/>
</g>
<!-- S -->
<g id="node1" class="node">
<title>S</title>
<path fill="none" stroke="black" d="M83.83,-213.97C83.83,-213.97 44.17,-213.97 44.17,-213.97 40.33,-213.97 36.5,-210.14 36.5,-206.3 36.5,-206.3 36.5,-198.64 36.5,-198.64 36.5,-194.8 40.33,-190.97 44.17,-190.97 44.17,-190.97 83.83,-190.97 83.83,-190.97 87.67,-190.97 91.5,-194.8 91.5,-198.64 91.5,-198.64 91.5,-206.3 91.5,-206.3 91.5,-210.14 87.67,-213.97 83.83,-213.97"/>
<text xml:space="preserve" text-anchor="middle" x="64" y="-200.47" font-family="monospace" font-size="10.00">準備上學</text>
</g>
<!-- B -->
<g id="node3" class="node">
<title>B</title>
<polygon fill="yellow" stroke="black" points="96.38,-162.97 31.62,-162.97 31.62,-139.97 96.38,-139.97 96.38,-162.97"/>
<text xml:space="preserve" text-anchor="middle" x="64" y="-149.47" font-family="monospace" font-size="10.00">有下雨嗎？</text>
</g>
<!-- S&#45;&gt;B -->
<g id="edge1" class="edge">
<title>S&#45;&gt;B</title>
<path fill="none" stroke="black" d="M64,-190.6C64,-185.9 64,-180.23 64,-174.71"/>
<polygon fill="black" stroke="black" points="67.5,-174.83 64,-164.83 60.5,-174.83 67.5,-174.83"/>
</g>
<!-- W -->
<g id="node2" class="node">
<title>W</title>
<path fill="none" stroke="black" d="M102.71,-23C102.71,-23 53.29,-23 53.29,-23 49.46,-23 45.62,-19.17 45.62,-15.33 45.62,-15.33 45.62,-7.67 45.62,-7.67 45.62,-3.83 49.46,0 53.29,0 53.29,0 102.71,0 102.71,0 106.54,0 110.38,-3.83 110.38,-7.67 110.38,-7.67 110.38,-15.33 110.38,-15.33 110.38,-19.17 106.54,-23 102.71,-23"/>
<text xml:space="preserve" text-anchor="middle" x="78" y="-9.5" font-family="monospace" font-size="10.00">走路到學校</text>
</g>
<!-- Y -->
<g id="node4" class="node">
<title>Y</title>
<path fill="none" stroke="black" d="M62.33,-97.72C62.33,-97.72 23.67,-97.72 23.67,-97.72 19.83,-97.72 16,-93.89 16,-90.05 16,-90.05 16,-82.39 16,-82.39 16,-78.55 19.83,-74.72 23.67,-74.72 23.67,-74.72 62.33,-74.72 62.33,-74.72 66.17,-74.72 70,-78.55 70,-82.39 70,-82.39 70,-90.05 70,-90.05 70,-93.89 66.17,-97.72 62.33,-97.72"/>
<text xml:space="preserve" text-anchor="middle" x="43" y="-84.22" font-family="monospace" font-size="10.00">帶傘</text>
</g>
<!-- B&#45;&gt;Y -->
<g id="edge2" class="edge">
<title>B&#45;&gt;Y</title>
<path fill="none" stroke="black" d="M60.44,-139.74C57.65,-131.34 53.68,-119.38 50.23,-109"/>
<polygon fill="black" stroke="black" points="53.6,-108.04 47.13,-99.65 46.96,-110.24 53.6,-108.04"/>
<text xml:space="preserve" text-anchor="middle" x="63.73" y="-115.67" font-family="Times,serif" font-size="14.00">是</text>
</g>
<!-- N -->
<g id="node5" class="node">
<title>N</title>
<path fill="none" stroke="black" d="M134.33,-97.72C134.33,-97.72 95.67,-97.72 95.67,-97.72 91.83,-97.72 88,-93.89 88,-90.05 88,-90.05 88,-82.39 88,-82.39 88,-78.55 91.83,-74.72 95.67,-74.72 95.67,-74.72 134.33,-74.72 134.33,-74.72 138.17,-74.72 142,-78.55 142,-82.39 142,-82.39 142,-90.05 142,-90.05 142,-93.89 138.17,-97.72 134.33,-97.72"/>
<text xml:space="preserve" text-anchor="middle" x="115" y="-84.22" font-family="monospace" font-size="10.00">不帶傘</text>
</g>
<!-- B&#45;&gt;N -->
<g id="edge3" class="edge">
<title>B&#45;&gt;N</title>
<path fill="none" stroke="black" d="M72.65,-139.74C79.86,-130.8 90.32,-117.82 99.04,-107.01"/>
<polygon fill="black" stroke="black" points="101.63,-109.37 105.18,-99.39 96.18,-104.98 101.63,-109.37"/>
<text xml:space="preserve" text-anchor="middle" x="104.17" y="-115.67" font-family="Times,serif" font-size="14.00">否</text>
</g>
<!-- M -->
<!-- Y&#45;&gt;M -->
<g id="edge4" class="edge">
<title>Y&#45;&gt;M</title>
<path fill="none" stroke="black" d="M54.46,-74.25C64.03,-65.09 76.35,-53.3 77.85,-51.87"/>
</g>
<!-- N&#45;&gt;M -->
<g id="edge5" class="edge">
<title>N&#45;&gt;M</title>
<path fill="none" stroke="black" d="M102.88,-74.25C92.77,-65.09 79.75,-53.3 78.16,-51.87"/>
</g>
<!-- M&#45;&gt;W -->
<g id="edge6" class="edge">
<title>M&#45;&gt;W</title>
<path fill="none" stroke="black" d="M78,-50.25C78,-49.32 78,-42.5 78,-34.91"/>
<polygon fill="black" stroke="black" points="81.5,-34.98 78,-24.98 74.5,-34.98 81.5,-34.98"/>
</g>
</g>
</svg>
