<?xml version="1.0" encoding="UTF-8" standalone="no"?>
<!DOCTYPE svg PUBLIC "-//W3C//DTD SVG 1.1//EN"
 "http://www.w3.org/Graphics/SVG/1.1/DTD/svg11.dtd">
<!-- Generated by graphviz version 14.0.2 (20251019.1705)
 -->
<!-- Title: print_flow Pages: 1 -->
<svg width="72pt" height="114pt"
 viewBox="0.00 0.00 72.00 114.00" xmlns="http://www.w3.org/2000/svg" xmlns:xlink="http://www.w3.org/1999/xlink">
<g id="graph0" class="graph" transform="scale(1 1) rotate(0) translate(4 110.25)">
<title>print_flow</title>
<polygon fill="white" stroke="none" points="-4,4 -4,-110.25 68,-110.25 68,4 -4,4"/>
<!-- P1 -->
<g id="node1" class="node">
<title>P1</title>
<path fill="none" stroke="black" d="M57.08,-106.25C57.08,-106.25 6.92,-106.25 6.92,-106.25 3.46,-106.25 0,-102.79 0,-99.33 0,-99.33 0,-92.42 0,-92.42 0,-88.96 3.46,-85.5 6.92,-85.5 6.92,-85.5 57.08,-85.5 57.08,-85.5 60.54,-85.5 64,-88.96 64,-92.42 64,-92.42 64,-99.33 64,-99.33 64,-102.79 60.54,-106.25 57.08,-106.25"/>
<text xml:space="preserve" text-anchor="middle" x="32" y="-92.75" font-family="monospace" font-size="10.00">print(3)</text>
</g>
<!-- P2 -->
<g id="node2" class="node">
<title>P2</title>
<path fill="none" stroke="black" d="M57.08,-63.5C57.08,-63.5 6.92,-63.5 6.92,-63.5 3.46,-63.5 0,-60.04 0,-56.58 0,-56.58 0,-49.67 0,-49.67 0,-46.21 3.46,-42.75 6.92,-42.75 6.92,-42.75 57.08,-42.75 57.08,-42.75 60.54,-42.75 64,-46.21 64,-49.67 64,-49.67 64,-56.58 64,-56.58 64,-60.04 60.54,-63.5 57.08,-63.5"/>
<text xml:space="preserve" text-anchor="middle" x="32" y="-50" font-family="monospace" font-size="10.00">print(2)</text>
</g>
<!-- P1&#45;&gt;P2 -->
<g id="edge1" class="edge">
<title>P1&#45;&gt;P2</title>
<path fill="none" stroke="black" d="M32,-85.01C32,-82.01 32,-78.58 32,-75.14"/>
<polygon fill="black" stroke="black" points="35.5,-75.41 32,-65.41 28.5,-75.41 35.5,-75.41"/>
</g>
<!-- P3 -->
<g id="node3" class="node">
<title>P3</title>
<path fill="none" stroke="black" d="M57.08,-20.75C57.08,-20.75 6.92,-20.75 6.92,-20.75 3.46,-20.75 0,-17.29 0,-13.83 0,-13.83 0,-6.92 0,-6.92 0,-3.46 3.46,0 6.92,0 6.92,0 57.08,0 57.08,0 60.54,0 64,-3.46 64,-6.92 64,-6.92 64,-13.83 64,-13.83 64,-17.29 60.54,-20.75 57.08,-20.75"/>
<text xml:space="preserve" text-anchor="middle" x="32" y="-7.25" font-family="monospace" font-size="10.00">print(1)</text>
</g>
<!-- P2&#45;&gt;P3 -->
<g id="edge2" class="edge">
<title>P2&#45;&gt;P3</title>
<path fill="none" stroke="black" d="M32,-42.26C32,-39.26 32,-35.83 32,-32.39"/>
<polygon fill="black" stroke="black" points="35.5,-32.66 32,-22.66 28.5,-32.66 35.5,-32.66"/>
</g>
</g>
</svg>
