<?xml version="1.0" encoding="UTF-8" standalone="no"?>
<!DOCTYPE svg PUBLIC "-//W3C//DTD SVG 1.1//EN"
 "http://www.w3.org/Graphics/SVG/1.1/DTD/svg11.dtd">
<!-- Generated by graphviz version 14.0.2 (20251019.1705)
 -->
<!-- Title: grouped_flow Pages: 1 -->
<svg width="186pt" height="195pt"
 viewBox="0.00 0.00 186.00 195.00" xmlns="http://www.w3.org/2000/svg" xmlns:xlink="http://www.w3.org/1999/xlink">
<g id="graph0" class="graph" transform="scale(1 1) rotate(0) translate(4 190.97)">
<title>grouped_flow</title>
<polygon fill="white" stroke="none" points="-4,4 -4,-190.97 182,-190.97 182,4 -4,4"/>
<g id="clust1" class="cluster">
<title>cluster_IF</title>
<path fill="none" stroke="red" stroke-dasharray="5,2" d="M20,-37.75C20,-37.75 158,-37.75 158,-37.75 164,-37.75 170,-43.75 170,-49.75 170,-49.75 170,-137.22 170,-137.22 170,-143.22 164,-149.22 158,-149.22 158,-149.22 20,-149.22 20,-149.22 14,-149.22 8,-143.22 8,-137.22 8,-137.22 8,-49.75 8,-49.75 8,-43.75 14,-37.75 20,-37.75"/>
</g>
<!-- S -->
<g id="node1" class="node">
<title>S</title>
<path fill="none" stroke="black" d="M124.08,-186.97C124.08,-186.97 13.92,-186.97 13.92,-186.97 10.46,-186.97 7,-183.51 7,-180.05 7,-180.05 7,-173.14 7,-173.14 7,-169.68 10.46,-166.22 13.92,-166.22 13.92,-166.22 124.08,-166.22 124.08,-166.22 127.54,-166.22 131,-169.68 131,-173.14 131,-173.14 131,-180.05 131,-180.05 131,-183.51 127.54,-186.97 124.08,-186.97"/>
<text xml:space="preserve" text-anchor="middle" x="69" y="-173.47" font-family="monospace" font-size="10.00">age = int(input())</text>
</g>
<!-- B -->
<g id="node3" class="node">
<title>B</title>
<polygon fill="yellow" stroke="black" points="107,-141.22 31,-141.22 31,-120.47 107,-120.47 107,-141.22"/>
<text xml:space="preserve" text-anchor="start" x="39" y="-128.72" font-family="monospace" font-weight="bold" font-style="italic" font-size="10.00">age ≥ 18 ?</text>
</g>
<!-- S&#45;&gt;B -->
<g id="edge1" class="edge">
<title>S&#45;&gt;B</title>
<path fill="none" stroke="black" d="M69,-165.89C69,-162.03 69,-157.44 69,-152.9"/>
<polygon fill="black" stroke="black" points="72.5,-153.04 69,-143.04 65.5,-153.04 72.5,-153.04"/>
</g>
<!-- W -->
<g id="node2" class="node">
<title>W</title>
<path fill="none" stroke="black" d="M120.08,-20.75C120.08,-20.75 57.92,-20.75 57.92,-20.75 54.46,-20.75 51,-17.29 51,-13.83 51,-13.83 51,-6.92 51,-6.92 51,-3.46 54.46,0 57.92,0 57.92,0 120.08,0 120.08,0 123.54,0 127,-3.46 127,-6.92 127,-6.92 127,-13.83 127,-13.83 127,-17.29 123.54,-20.75 120.08,-20.75"/>
<text xml:space="preserve" text-anchor="middle" x="89" y="-7.25" font-family="monospace" font-size="10.00">print(789)</text>
</g>
<!-- Y -->
<g id="node5" class="node">
<title>Y</title>
<path fill="none" stroke="black" d="M73.08,-84.22C73.08,-84.22 22.92,-84.22 22.92,-84.22 19.46,-84.22 16,-80.76 16,-77.3 16,-77.3 16,-70.39 16,-70.39 16,-66.93 19.46,-63.47 22.92,-63.47 22.92,-63.47 73.08,-63.47 73.08,-63.47 76.54,-63.47 80,-66.93 80,-70.39 80,-70.39 80,-77.3 80,-77.3 80,-80.76 76.54,-84.22 73.08,-84.22"/>
<text xml:space="preserve" text-anchor="start" x="24" y="-71.72" font-family="monospace" font-weight="bold" font-style="italic" font-size="10.00">print(1)</text>
</g>
<!-- B&#45;&gt;Y -->
<g id="edge2" class="edge">
<title>B&#45;&gt;Y</title>
<path fill="none" stroke="black" d="M65.25,-120.01C62.62,-113.13 59.01,-103.69 55.78,-95.21"/>
<polygon fill="black" stroke="black" points="59.1,-94.1 52.26,-86.01 52.56,-96.6 59.1,-94.1"/>
<text xml:space="preserve" text-anchor="start" x="62.21" y="-100.17" font-family="Times,serif" font-weight="bold" font-style="italic" font-size="14.00">是</text>
</g>
<!-- N -->
<g id="node6" class="node">
<title>N</title>
<path fill="none" stroke="black" d="M155.08,-84.22C155.08,-84.22 104.92,-84.22 104.92,-84.22 101.46,-84.22 98,-80.76 98,-77.3 98,-77.3 98,-70.39 98,-70.39 98,-66.93 101.46,-63.47 104.92,-63.47 104.92,-63.47 155.08,-63.47 155.08,-63.47 158.54,-63.47 162,-66.93 162,-70.39 162,-70.39 162,-77.3 162,-77.3 162,-80.76 158.54,-84.22 155.08,-84.22"/>
<text xml:space="preserve" text-anchor="start" x="106" y="-71.72" font-family="monospace" font-weight="bold" font-style="italic" font-size="10.00">print(0)</text>
</g>
<!-- B&#45;&gt;N -->
<g id="edge3" class="edge">
<title>B&#45;&gt;N</title>
<path fill="none" stroke="black" d="M79.91,-120.01C88.49,-112.27 100.67,-101.29 110.88,-92.09"/>
<polygon fill="black" stroke="black" points="112.98,-94.9 118.06,-85.61 108.29,-89.7 112.98,-94.9"/>
<text xml:space="preserve" text-anchor="start" x="110.27" y="-100.17" font-family="Times,serif" font-weight="bold" font-style="italic" font-size="14.00">否</text>
</g>
<!-- M -->
<!-- M&#45;&gt;W -->
<g id="edge6" class="edge">
<title>M&#45;&gt;W</title>
<path fill="none" stroke="black" d="M89,-45.01C89,-44.23 89,-38.81 89,-32.53"/>
<polygon fill="black" stroke="black" points="92.5,-32.66 89,-22.66 85.5,-32.66 92.5,-32.66"/>
</g>
<!-- Y&#45;&gt;M -->
<g id="edge4" class="edge">
<title>Y&#45;&gt;M</title>
<path fill="none" stroke="black" d="M63.27,-63.02C74.2,-55.99 87.25,-47.6 88.84,-46.57"/>
</g>
<!-- N&#45;&gt;M -->
<g id="edge5" class="edge">
<title>N&#45;&gt;M</title>
<path fill="none" stroke="black" d="M114.73,-63.02C103.8,-55.99 90.75,-47.6 89.16,-46.57"/>
</g>
</g>
</svg>
