<?xml version="1.0" encoding="UTF-8" standalone="no"?>
<!DOCTYPE svg PUBLIC "-//W3C//DTD SVG 1.1//EN"
 "http://www.w3.org/Graphics/SVG/1.1/DTD/svg11.dtd">
<!-- Generated by graphviz version 14.0.2 (20251019.1705)
 -->
<!-- Title: if_flow Pages: 1 -->
<svg width="198pt" height="168pt"
 viewBox="0.00 0.00 198.00 168.00" xmlns="http://www.w3.org/2000/svg" xmlns:xlink="http://www.w3.org/1999/xlink">
<g id="graph0" class="graph" transform="scale(1 1) rotate(0) translate(4 164)">
<title>if_flow</title>
<polygon fill="white" stroke="none" points="-4,4 -4,-164 194,-164 194,4 -4,4"/>
<g id="clust1" class="cluster">
<title>cluster_Y</title>
<path fill="none" stroke="red" stroke-dasharray="5,2" d="M20,-8C20,-8 78,-8 78,-8 84,-8 90,-14 90,-20 90,-20 90,-88 90,-88 90,-94 84,-100 78,-100 78,-100 20,-100 20,-100 14,-100 8,-94 8,-88 8,-88 8,-20 8,-20 8,-14 14,-8 20,-8"/>
</g>
<g id="clust2" class="cluster">
<title>cluster_N</title>
<path fill="none" stroke="red" stroke-dasharray="5,2" d="M110,-14.87C110,-14.87 170,-14.87 170,-14.87 176,-14.87 182,-20.87 182,-26.87 182,-26.87 182,-81.12 182,-81.12 182,-87.12 176,-93.12 170,-93.12 170,-93.12 110,-93.12 110,-93.12 104,-93.12 98,-87.12 98,-81.12 98,-81.12 98,-26.88 98,-26.88 98,-20.88 104,-14.87 110,-14.87"/>
</g>
<!-- B -->
<g id="node1" class="node">
<title>B</title>
<polygon fill="yellow" stroke="black" points="132,-160 56,-160 56,-139.25 132,-139.25 132,-160"/>
<text xml:space="preserve" text-anchor="middle" x="94" y="-146.5" font-family="monospace" font-size="10.00">age ≥ 18 ?</text>
</g>
<!-- Y -->
<g id="node2" class="node">
<title>Y</title>
<path fill="none" stroke="black" d="M69.5,-92C69.5,-92 28.5,-92 28.5,-92 22.5,-92 16.5,-86 16.5,-80 16.5,-80 16.5,-28 16.5,-28 16.5,-22 22.5,-16 28.5,-16 28.5,-16 69.5,-16 69.5,-16 75.5,-16 81.5,-22 81.5,-28 81.5,-28 81.5,-80 81.5,-80 81.5,-86 75.5,-92 69.5,-92"/>
<text xml:space="preserve" text-anchor="start" x="23.5" y="-80.5" font-family="monospace" font-weight="bold" font-style="italic" font-size="10.00"># 若「是」</text>
<text xml:space="preserve" text-anchor="start" x="23.5" y="-64.5" font-family="monospace" font-weight="bold" font-style="italic" font-size="10.00">print(1)</text>
<text xml:space="preserve" text-anchor="start" x="23.5" y="-50.75" font-family="monospace" font-weight="bold" font-style="italic" font-size="10.00">print(2)</text>
<text xml:space="preserve" text-anchor="start" x="23.5" y="-37" font-family="monospace" font-weight="bold" font-style="italic" font-size="10.00">print(3)</text>
<text xml:space="preserve" text-anchor="start" x="23.5" y="-23.25" font-family="monospace" font-weight="bold" font-style="italic" font-size="10.00">print(4)</text>
</g>
<!-- B&#45;&gt;Y -->
<g id="edge1" class="edge">
<title>B&#45;&gt;Y</title>
<path fill="none" stroke="black" d="M89.35,-138.96C85.09,-130.09 78.44,-116.24 71.75,-102.34"/>
<polygon fill="black" stroke="black" points="75.06,-101.14 67.57,-93.64 68.75,-104.17 75.06,-101.14"/>
<text xml:space="preserve" text-anchor="middle" x="90.25" y="-114.95" font-family="Times,serif" font-size="14.00">是</text>
</g>
<!-- N -->
<g id="node3" class="node">
<title>N</title>
<path fill="none" stroke="black" d="M162,-85.12C162,-85.12 118,-85.12 118,-85.12 112,-85.12 106,-79.12 106,-73.12 106,-73.12 106,-34.88 106,-34.88 106,-28.88 112,-22.87 118,-22.87 118,-22.87 162,-22.87 162,-22.87 168,-22.87 174,-28.87 174,-34.88 174,-34.88 174,-73.12 174,-73.12 174,-79.12 168,-85.12 162,-85.12"/>
<text xml:space="preserve" text-anchor="start" x="113" y="-73.62" font-family="monospace" font-weight="bold" font-style="italic" font-size="10.00"># 若「否」</text>
<text xml:space="preserve" text-anchor="start" x="113" y="-57.62" font-family="monospace" font-weight="bold" font-style="italic" font-size="10.00">print(0)</text>
<text xml:space="preserve" text-anchor="start" x="113" y="-43.88" font-family="monospace" font-weight="bold" font-style="italic" font-size="10.00">a=input()</text>
<text xml:space="preserve" text-anchor="start" x="113" y="-30.12" font-family="monospace" font-weight="bold" font-style="italic" font-size="10.00">print(a)</text>
</g>
<!-- B&#45;&gt;N -->
<g id="edge2" class="edge">
<title>B&#45;&gt;N</title>
<path fill="none" stroke="black" d="M98.75,-138.96C103.8,-128.69 112.11,-111.76 119.96,-95.78"/>
<polygon fill="black" stroke="black" points="123.08,-97.38 124.35,-86.86 116.8,-94.29 123.08,-97.38"/>
<text xml:space="preserve" text-anchor="middle" x="120" y="-114.95" font-family="Times,serif" font-size="14.00">否</text>
</g>
</g>
</svg>
