<?xml version="1.0" encoding="UTF-8" standalone="no"?>
<!DOCTYPE svg PUBLIC "-//W3C//DTD SVG 1.1//EN"
 "http://www.w3.org/Graphics/SVG/1.1/DTD/svg11.dtd">
<!-- Generated by graphviz version 14.0.2 (20251019.1705)
 -->
<!-- Title: encap_flow Pages: 1 -->
<svg width="73pt" height="121pt"
 viewBox="0.00 0.00 73.00 121.00" xmlns="http://www.w3.org/2000/svg" xmlns:xlink="http://www.w3.org/1999/xlink">
<g id="graph0" class="graph" transform="scale(1 1) rotate(0) translate(4 117)">
<title>encap_flow</title>
<polygon fill="white" stroke="none" points="-4,4 -4,-117 68.75,-117 68.75,4 -4,4"/>
<!-- P1 -->
<g id="node1" class="node">
<title>P1</title>
<path fill="none" stroke="black" d="M52.21,-113C52.21,-113 12.54,-113 12.54,-113 8.71,-113 4.88,-109.17 4.88,-105.33 4.88,-105.33 4.88,-97.67 4.88,-97.67 4.88,-93.83 8.71,-90 12.54,-90 12.54,-90 52.21,-90 52.21,-90 56.04,-90 59.88,-93.83 59.88,-97.67 59.88,-97.67 59.88,-105.33 59.88,-105.33 59.88,-109.17 56.04,-113 52.21,-113"/>
<text xml:space="preserve" text-anchor="middle" x="32.38" y="-99.5" font-family="monospace" font-size="10.00">準備上學</text>
</g>
<!-- P2 -->
<g id="node2" class="node">
<title>P2</title>
<path fill="none" stroke="red" stroke-dasharray="5,2" d="M51.71,-68C51.71,-68 13.04,-68 13.04,-68 9.21,-68 5.38,-64.17 5.38,-60.33 5.38,-60.33 5.38,-52.67 5.38,-52.67 5.38,-48.83 9.21,-45 13.04,-45 13.04,-45 51.71,-45 51.71,-45 55.54,-45 59.38,-48.83 59.38,-52.67 59.38,-52.67 59.38,-60.33 59.38,-60.33 59.38,-64.17 55.54,-68 51.71,-68"/>
<text xml:space="preserve" text-anchor="middle" x="32.38" y="-54.5" font-family="monospace" font-size="10.00">步驟 2</text>
</g>
<!-- P1&#45;&gt;P2 -->
<g id="edge1" class="edge">
<title>P1&#45;&gt;P2</title>
<path fill="none" stroke="black" d="M32.38,-89.65C32.38,-86.62 32.38,-83.21 32.38,-79.77"/>
<polygon fill="black" stroke="black" points="35.88,-80.01 32.38,-70.01 28.88,-80.01 35.88,-80.01"/>
</g>
<!-- P3 -->
<g id="node3" class="node">
<title>P3</title>
<path fill="none" stroke="black" d="M57.08,-23C57.08,-23 7.67,-23 7.67,-23 3.83,-23 0,-19.17 0,-15.33 0,-15.33 0,-7.67 0,-7.67 0,-3.83 3.83,0 7.67,0 7.67,0 57.08,0 57.08,0 60.92,0 64.75,-3.83 64.75,-7.67 64.75,-7.67 64.75,-15.33 64.75,-15.33 64.75,-19.17 60.92,-23 57.08,-23"/>
<text xml:space="preserve" text-anchor="middle" x="32.38" y="-9.5" font-family="monospace" font-size="10.00">走路到學校</text>
</g>
<!-- P2&#45;&gt;P3 -->
<g id="edge2" class="edge">
<title>P2&#45;&gt;P3</title>
<path fill="none" stroke="black" d="M32.38,-44.65C32.38,-41.62 32.38,-38.21 32.38,-34.77"/>
<polygon fill="black" stroke="black" points="35.88,-35.01 32.38,-25.01 28.88,-35.01 35.88,-35.01"/>
</g>
</g>
</svg>
