<?xml version="1.0" encoding="UTF-8" standalone="no"?>
<!DOCTYPE svg PUBLIC "-//W3C//DTD SVG 1.1//EN"
 "http://www.w3.org/Graphics/SVG/1.1/DTD/svg11.dtd">
<!-- Generated by graphviz version 14.0.2 (20251019.1705)
 -->
<!-- Title: grouped_flow Pages: 1 -->
<svg width="150pt" height="228pt"
 viewBox="0.00 0.00 150.00 228.00" xmlns="http://www.w3.org/2000/svg" xmlns:xlink="http://www.w3.org/1999/xlink">
<g id="graph0" class="graph" transform="scale(1 1) rotate(0) translate(4 224.22)">
<title>grouped_flow</title>
<polygon fill="white" stroke="none" points="-4,4 -4,-224.22 146,-224.22 146,4 -4,4"/>
<g id="clust1" class="cluster">
<title>cluster_IF</title>
<path fill="none" stroke="red" stroke-dasharray="5,2" d="M20,-37.75C20,-37.75 122,-37.75 122,-37.75 128,-37.75 134,-43.75 134,-49.75 134,-49.75 134,-200.22 134,-200.22 134,-206.22 128,-212.22 122,-212.22 122,-212.22 20,-212.22 20,-212.22 14,-212.22 8,-206.22 8,-200.22 8,-200.22 8,-49.75 8,-49.75 8,-43.75 14,-37.75 20,-37.75"/>
</g>
<!-- W -->
<g id="node1" class="node">
<title>W</title>
<path fill="none" stroke="black" d="M123.08,-20.75C123.08,-20.75 60.92,-20.75 60.92,-20.75 57.46,-20.75 54,-17.29 54,-13.83 54,-13.83 54,-6.92 54,-6.92 54,-3.46 57.46,0 60.92,0 60.92,0 123.08,0 123.08,0 126.54,0 130,-3.46 130,-6.92 130,-6.92 130,-13.83 130,-13.83 130,-17.29 126.54,-20.75 123.08,-20.75"/>
<text xml:space="preserve" text-anchor="middle" x="92" y="-7.25" font-family="monospace" font-size="10.00">print(999)</text>
</g>
<!-- S -->
<g id="node2" class="node">
<title>S</title>
<path fill="none" stroke="black" d="M91.08,-204.22C91.08,-204.22 50.92,-204.22 50.92,-204.22 47.46,-204.22 44,-200.76 44,-197.3 44,-197.3 44,-190.39 44,-190.39 44,-186.93 47.46,-183.47 50.92,-183.47 50.92,-183.47 91.08,-183.47 91.08,-183.47 94.54,-183.47 98,-186.93 98,-190.39 98,-190.39 98,-197.3 98,-197.3 98,-200.76 94.54,-204.22 91.08,-204.22"/>
<text xml:space="preserve" text-anchor="start" x="56" y="-191.72" font-family="monospace" font-weight="bold" font-style="italic" font-size="10.00">i = 0</text>
</g>
<!-- B -->
<g id="node3" class="node">
<title>B</title>
<polygon fill="yellow" stroke="black" points="100,-166.47 42,-166.47 42,-145.72 100,-145.72 100,-166.47"/>
<text xml:space="preserve" text-anchor="start" x="50" y="-153.97" font-family="monospace" font-weight="bold" font-style="italic" font-size="10.00">i &lt; 3 ?</text>
</g>
<!-- S&#45;&gt;B -->
<g id="edge1" class="edge">
<title>S&#45;&gt;B</title>
<path fill="none" stroke="black" d="M71,-183.08C71,-181.47 71,-179.76 71,-178.01"/>
<polygon fill="black" stroke="black" points="74.5,-178.12 71,-168.12 67.5,-178.12 74.5,-178.12"/>
</g>
<!-- Y -->
<g id="node4" class="node">
<title>Y</title>
<path fill="none" stroke="black" d="M96.67,-109.47C96.67,-109.47 45.33,-109.47 45.33,-109.47 40.67,-109.47 36,-104.8 36,-100.14 36,-100.14 36,-90.8 36,-90.8 36,-86.14 40.67,-81.47 45.33,-81.47 45.33,-81.47 96.67,-81.47 96.67,-81.47 101.33,-81.47 106,-86.14 106,-90.8 106,-90.8 106,-100.14 106,-100.14 106,-104.8 101.33,-109.47 96.67,-109.47"/>
<text xml:space="preserve" text-anchor="start" x="44" y="-96.97" font-family="monospace" font-weight="bold" font-style="italic" font-size="10.00">print(i)</text>
<text xml:space="preserve" text-anchor="start" x="44" y="-86.97" font-family="monospace" font-weight="bold" font-style="italic" font-size="10.00">i = i + 1</text>
</g>
<!-- B&#45;&gt;Y -->
<g id="edge2" class="edge">
<title>B&#45;&gt;Y</title>
<path fill="none" stroke="black" d="M71,-145.41C71,-138.78 71,-129.67 71,-121.11"/>
<polygon fill="black" stroke="black" points="74.5,-121.19 71,-111.19 67.5,-121.19 74.5,-121.19"/>
<text xml:space="preserve" text-anchor="start" x="71" y="-125.42" font-family="Times,serif" font-weight="bold" font-style="italic" font-size="14.00">是</text>
</g>
<!-- N -->
<!-- B&#45;&gt;N -->
<g id="edge5" class="edge">
<title>B:e&#45;&gt;N:n</title>
<path fill="none" stroke="black" d="M101,-156.09C138.32,-156.09 116,-110.79 116,-73.47"/>
<text xml:space="preserve" text-anchor="start" x="122.62" y="-125.42" font-family="Times,serif" font-weight="bold" font-style="italic" font-size="14.00">否</text>
</g>
<!-- YR -->
<!-- Y&#45;&gt;YR -->
<g id="edge3" class="edge">
<title>Y:s&#45;&gt;YR:n</title>
<path fill="none" stroke="black" d="M71,-81.47C71,-73.91 71,-72.03 71,-64.47"/>
</g>
<!-- YR&#45;&gt;B -->
<g id="edge4" class="edge">
<title>YR:w&#45;&gt;B:w</title>
<path fill="none" stroke="black" d="M69.28,-63.97C48.94,-63.97 38.3,-64.56 27,-81.47 10.59,-106.02 7.78,-144.74 29.94,-154.04"/>
<polygon fill="black" stroke="black" points="29.04,-157.43 39.51,-155.82 30.32,-150.55 29.04,-157.43"/>
</g>
<!-- M -->
<!-- YR&#45;&gt;M -->
<!-- M&#45;&gt;W -->
<g id="edge8" class="edge">
<title>M&#45;&gt;W</title>
<path fill="none" stroke="black" d="M92,-45.01C92,-44.23 92,-38.81 92,-32.53"/>
<polygon fill="black" stroke="black" points="95.5,-32.66 92,-22.66 88.5,-32.66 95.5,-32.66"/>
</g>
<!-- N&#45;&gt;M -->
<g id="edge6" class="edge">
<title>N:s&#45;&gt;M:n</title>
<path fill="none" stroke="black" d="M116,-72.47C116,-56.74 92,-62.2 92,-46.47"/>
</g>
</g>
</svg>
