<?xml version="1.0" encoding="UTF-8" standalone="no"?>
<!DOCTYPE svg PUBLIC "-//W3C//DTD SVG 1.1//EN"
 "http://www.w3.org/Graphics/SVG/1.1/DTD/svg11.dtd">
<!-- Generated by graphviz version 14.0.2 (20251019.1705)
 -->
<!-- Title: grouped_flow Pages: 1 -->
<svg width="186pt" height="237pt"
 viewBox="0.00 0.00 186.00 237.00" xmlns="http://www.w3.org/2000/svg" xmlns:xlink="http://www.w3.org/1999/xlink">
<g id="graph0" class="graph" transform="scale(1 1) rotate(0) translate(4 232.97)">
<title>grouped_flow</title>
<polygon fill="white" stroke="none" points="-4,4 -4,-232.97 182,-232.97 182,4 -4,4"/>
<g id="clust1" class="cluster">
<title>cluster_IF</title>
<path fill="none" stroke="red" stroke-dasharray="5,2" d="M20,-44.75C20,-44.75 158,-44.75 158,-44.75 164,-44.75 170,-50.75 170,-56.75 170,-56.75 170,-172.22 170,-172.22 170,-178.22 164,-184.22 158,-184.22 158,-184.22 20,-184.22 20,-184.22 14,-184.22 8,-178.22 8,-172.22 8,-172.22 8,-56.75 8,-56.75 8,-50.75 14,-44.75 20,-44.75"/>
</g>
<!-- S -->
<g id="node1" class="node">
<title>S</title>
<path fill="none" stroke="black" d="M124.08,-228.97C124.08,-228.97 13.92,-228.97 13.92,-228.97 10.46,-228.97 7,-225.51 7,-222.05 7,-222.05 7,-215.14 7,-215.14 7,-211.68 10.46,-208.22 13.92,-208.22 13.92,-208.22 124.08,-208.22 124.08,-208.22 127.54,-208.22 131,-211.68 131,-215.14 131,-215.14 131,-222.05 131,-222.05 131,-225.51 127.54,-228.97 124.08,-228.97"/>
<text xml:space="preserve" text-anchor="middle" x="69" y="-215.47" font-family="monospace" font-size="10.00">age = int(input())</text>
</g>
<!-- B -->
<g id="node3" class="node">
<title>B</title>
<polygon fill="yellow" stroke="black" points="107,-176.22 31,-176.22 31,-155.47 107,-155.47 107,-176.22"/>
<text xml:space="preserve" text-anchor="middle" x="69" y="-162.72" font-family="monospace" font-size="10.00">age ≥ 18 ?</text>
</g>
<!-- S&#45;&gt;B -->
<g id="edge1" class="edge">
<title>S&#45;&gt;B</title>
<path fill="none" stroke="black" d="M69,-207.81C69,-202.19 69,-194.91 69,-188.05"/>
<polygon fill="black" stroke="black" points="72.5,-188.11 69,-178.11 65.5,-188.11 72.5,-188.11"/>
</g>
<!-- W -->
<g id="node2" class="node">
<title>W</title>
<path fill="none" stroke="black" d="M120.08,-20.75C120.08,-20.75 57.92,-20.75 57.92,-20.75 54.46,-20.75 51,-17.29 51,-13.83 51,-13.83 51,-6.92 51,-6.92 51,-3.46 54.46,0 57.92,0 57.92,0 120.08,0 120.08,0 123.54,0 127,-3.46 127,-6.92 127,-6.92 127,-13.83 127,-13.83 127,-17.29 123.54,-20.75 120.08,-20.75"/>
<text xml:space="preserve" text-anchor="start" x="59" y="-8.25" font-family="monospace" font-weight="bold" font-style="italic" font-size="10.00">print(789)</text>
</g>
<!-- Y -->
<g id="node4" class="node">
<title>Y</title>
<path fill="none" stroke="black" d="M73.08,-105.22C73.08,-105.22 22.92,-105.22 22.92,-105.22 19.46,-105.22 16,-101.76 16,-98.3 16,-98.3 16,-91.39 16,-91.39 16,-87.93 19.46,-84.47 22.92,-84.47 22.92,-84.47 73.08,-84.47 73.08,-84.47 76.54,-84.47 80,-87.93 80,-91.39 80,-91.39 80,-98.3 80,-98.3 80,-101.76 76.54,-105.22 73.08,-105.22"/>
<text xml:space="preserve" text-anchor="middle" x="48" y="-91.72" font-family="monospace" font-size="10.00">print(1)</text>
</g>
<!-- B&#45;&gt;Y -->
<g id="edge2" class="edge">
<title>B&#45;&gt;Y</title>
<path fill="none" stroke="black" d="M66.08,-155.25C63.01,-145.16 58.08,-128.98 54.15,-116.05"/>
<polygon fill="black" stroke="black" points="57.6,-115.35 51.34,-106.81 50.9,-117.39 57.6,-115.35"/>
<text xml:space="preserve" text-anchor="middle" x="68.12" y="-127.17" font-family="Times,serif" font-size="14.00">是</text>
</g>
<!-- N -->
<g id="node5" class="node">
<title>N</title>
<path fill="none" stroke="black" d="M155.08,-105.22C155.08,-105.22 104.92,-105.22 104.92,-105.22 101.46,-105.22 98,-101.76 98,-98.3 98,-98.3 98,-91.39 98,-91.39 98,-87.93 101.46,-84.47 104.92,-84.47 104.92,-84.47 155.08,-84.47 155.08,-84.47 158.54,-84.47 162,-87.93 162,-91.39 162,-91.39 162,-98.3 162,-98.3 162,-101.76 158.54,-105.22 155.08,-105.22"/>
<text xml:space="preserve" text-anchor="middle" x="130" y="-91.72" font-family="monospace" font-size="10.00">print(0)</text>
</g>
<!-- B&#45;&gt;N -->
<g id="edge3" class="edge">
<title>B&#45;&gt;N</title>
<path fill="none" stroke="black" d="M77.48,-155.25C86.95,-144.54 102.48,-126.97 114.2,-113.71"/>
<polygon fill="black" stroke="black" points="116.59,-116.3 120.59,-106.49 111.34,-111.67 116.59,-116.3"/>
<text xml:space="preserve" text-anchor="middle" x="113.88" y="-127.17" font-family="Times,serif" font-size="14.00">否</text>
</g>
<!-- M -->
<!-- Y&#45;&gt;M -->
<g id="edge4" class="edge">
<title>Y&#45;&gt;M</title>
<path fill="none" stroke="black" d="M57.92,-84.07C69.3,-72.87 86.66,-55.78 88.78,-53.68"/>
</g>
<!-- N&#45;&gt;M -->
<g id="edge5" class="edge">
<title>N&#45;&gt;M</title>
<path fill="none" stroke="black" d="M120.08,-84.07C108.7,-72.87 91.34,-55.78 89.22,-53.68"/>
</g>
<!-- M&#45;&gt;W -->
<g id="edge6" class="edge">
<title>M&#45;&gt;W</title>
<path fill="none" stroke="black" d="M89,-51.99C89,-50.86 89,-41.74 89,-32.42"/>
<polygon fill="black" stroke="black" points="92.5,-32.62 89,-22.62 85.5,-32.62 92.5,-32.62"/>
</g>
</g>
</svg>
