<?xml version="1.0" encoding="UTF-8" standalone="no"?>
<!DOCTYPE svg PUBLIC "-//W3C//DTD SVG 1.1//EN"
 "http://www.w3.org/Graphics/SVG/1.1/DTD/svg11.dtd">
<!-- Generated by graphviz version 14.0.2 (20251019.1705)
 -->
<!-- Title: grouped_flow Pages: 1 -->
<svg width="214pt" height="298pt"
 viewBox="0.00 0.00 214.00 298.00" xmlns="http://www.w3.org/2000/svg" xmlns:xlink="http://www.w3.org/1999/xlink">
<g id="graph0" class="graph" transform="scale(1 1) rotate(0) translate(4 294.22)">
<title>grouped_flow</title>
<polygon fill="white" stroke="none" points="-4,4 -4,-294.22 210,-294.22 210,4 -4,4"/>
<g id="clust1" class="cluster">
<title>cluster_IF</title>
<path fill="none" stroke="red" stroke-dasharray="5,2" d="M20,-45.75C20,-45.75 186,-45.75 186,-45.75 192,-45.75 198,-51.75 198,-57.75 198,-57.75 198,-232.47 198,-232.47 198,-238.47 192,-244.47 186,-244.47 186,-244.47 20,-244.47 20,-244.47 14,-244.47 8,-238.47 8,-232.47 8,-232.47 8,-57.75 8,-57.75 8,-51.75 14,-45.75 20,-45.75"/>
</g>
<g id="clust2" class="cluster">
<title>cluster_Y</title>
<path fill="none" stroke="red" stroke-dasharray="5,2" d="M28,-79.47C28,-79.47 86,-79.47 86,-79.47 92,-79.47 98,-85.47 98,-91.47 98,-91.47 98,-159.47 98,-159.47 98,-165.47 92,-171.47 86,-171.47 86,-171.47 28,-171.47 28,-171.47 22,-171.47 16,-165.47 16,-159.47 16,-159.47 16,-91.47 16,-91.47 16,-85.47 22,-79.47 28,-79.47"/>
</g>
<g id="clust3" class="cluster">
<title>cluster_N</title>
<path fill="none" stroke="red" stroke-dasharray="5,2" d="M118,-86.34C118,-86.34 178,-86.34 178,-86.34 184,-86.34 190,-92.34 190,-98.34 190,-98.34 190,-152.59 190,-152.59 190,-158.59 184,-164.59 178,-164.59 178,-164.59 118,-164.59 118,-164.59 112,-164.59 106,-158.59 106,-152.59 106,-152.59 106,-98.34 106,-98.34 106,-92.34 112,-86.34 118,-86.34"/>
</g>
<!-- S -->
<g id="node1" class="node">
<title>S</title>
<path fill="none" stroke="black" d="M143.08,-290.22C143.08,-290.22 32.92,-290.22 32.92,-290.22 29.46,-290.22 26,-286.76 26,-283.3 26,-283.3 26,-276.39 26,-276.39 26,-272.93 29.46,-269.47 32.92,-269.47 32.92,-269.47 143.08,-269.47 143.08,-269.47 146.54,-269.47 150,-272.93 150,-276.39 150,-276.39 150,-283.3 150,-283.3 150,-286.76 146.54,-290.22 143.08,-290.22"/>
<text xml:space="preserve" text-anchor="middle" x="88" y="-276.72" font-family="monospace" font-size="10.00">age = int(input())</text>
</g>
<!-- B -->
<g id="node3" class="node">
<title>B</title>
<polygon fill="yellow" stroke="black" points="126,-236.47 50,-236.47 50,-215.72 126,-215.72 126,-236.47"/>
<text xml:space="preserve" text-anchor="start" x="58" y="-223.97" font-family="monospace" font-weight="bold" font-style="italic" font-size="10.00">age ≥ 18 ?</text>
</g>
<!-- S&#45;&gt;B -->
<g id="edge1" class="edge">
<title>S&#45;&gt;B</title>
<path fill="none" stroke="black" d="M88,-269.35C88,-263.45 88,-255.6 88,-248.28"/>
<polygon fill="black" stroke="black" points="91.5,-248.39 88,-238.39 84.5,-248.39 91.5,-248.39"/>
</g>
<!-- W -->
<g id="node2" class="node">
<title>W</title>
<path fill="none" stroke="black" d="M133.08,-20.75C133.08,-20.75 70.92,-20.75 70.92,-20.75 67.46,-20.75 64,-17.29 64,-13.83 64,-13.83 64,-6.92 64,-6.92 64,-3.46 67.46,0 70.92,0 70.92,0 133.08,0 133.08,0 136.54,0 140,-3.46 140,-6.92 140,-6.92 140,-13.83 140,-13.83 140,-17.29 136.54,-20.75 133.08,-20.75"/>
<text xml:space="preserve" text-anchor="middle" x="102" y="-7.25" font-family="monospace" font-size="10.00">print(789)</text>
</g>
<!-- Y -->
<g id="node4" class="node">
<title>Y</title>
<path fill="none" stroke="black" d="M77.5,-163.47C77.5,-163.47 36.5,-163.47 36.5,-163.47 30.5,-163.47 24.5,-157.47 24.5,-151.47 24.5,-151.47 24.5,-99.47 24.5,-99.47 24.5,-93.47 30.5,-87.47 36.5,-87.47 36.5,-87.47 77.5,-87.47 77.5,-87.47 83.5,-87.47 89.5,-93.47 89.5,-99.47 89.5,-99.47 89.5,-151.47 89.5,-151.47 89.5,-157.47 83.5,-163.47 77.5,-163.47"/>
<text xml:space="preserve" text-anchor="start" x="31.5" y="-151.97" font-family="monospace" font-weight="bold" font-style="italic" font-size="10.00"># 若「是」</text>
<text xml:space="preserve" text-anchor="start" x="31.5" y="-135.97" font-family="monospace" font-weight="bold" font-style="italic" font-size="10.00">print(1)</text>
<text xml:space="preserve" text-anchor="start" x="31.5" y="-122.22" font-family="monospace" font-weight="bold" font-style="italic" font-size="10.00">print(2)</text>
<text xml:space="preserve" text-anchor="start" x="31.5" y="-108.47" font-family="monospace" font-weight="bold" font-style="italic" font-size="10.00">print(3)</text>
<text xml:space="preserve" text-anchor="start" x="31.5" y="-94.72" font-family="monospace" font-weight="bold" font-style="italic" font-size="10.00">print(4)</text>
</g>
<!-- B&#45;&gt;Y -->
<g id="edge2" class="edge">
<title>B&#45;&gt;Y</title>
<path fill="none" stroke="black" d="M84.91,-215.28C81.85,-205.54 76.93,-189.87 72.06,-174.39"/>
<polygon fill="black" stroke="black" points="75.52,-173.7 69.18,-165.21 68.84,-175.8 75.52,-173.7"/>
<text xml:space="preserve" text-anchor="start" x="79.69" y="-187.42" font-family="Times,serif" font-weight="bold" font-style="italic" font-size="14.00">是</text>
</g>
<!-- N -->
<g id="node5" class="node">
<title>N</title>
<path fill="none" stroke="black" d="M170,-156.59C170,-156.59 126,-156.59 126,-156.59 120,-156.59 114,-150.59 114,-144.59 114,-144.59 114,-106.34 114,-106.34 114,-100.34 120,-94.34 126,-94.34 126,-94.34 170,-94.34 170,-94.34 176,-94.34 182,-100.34 182,-106.34 182,-106.34 182,-144.59 182,-144.59 182,-150.59 176,-156.59 170,-156.59"/>
<text xml:space="preserve" text-anchor="start" x="121" y="-145.09" font-family="monospace" font-weight="bold" font-style="italic" font-size="10.00"># 若「否」</text>
<text xml:space="preserve" text-anchor="start" x="121" y="-129.09" font-family="monospace" font-weight="bold" font-style="italic" font-size="10.00">print(0)</text>
<text xml:space="preserve" text-anchor="start" x="121" y="-115.34" font-family="monospace" font-weight="bold" font-style="italic" font-size="10.00">a=input()</text>
<text xml:space="preserve" text-anchor="start" x="121" y="-101.59" font-family="monospace" font-weight="bold" font-style="italic" font-size="10.00">print(a)</text>
</g>
<!-- B&#45;&gt;N -->
<g id="edge3" class="edge">
<title>B&#45;&gt;N</title>
<path fill="none" stroke="black" d="M93.97,-215.28C100.93,-203.85 112.85,-184.25 123.73,-166.37"/>
<polygon fill="black" stroke="black" points="126.63,-168.33 128.84,-157.97 120.65,-164.69 126.63,-168.33"/>
<text xml:space="preserve" text-anchor="start" x="114.41" y="-187.42" font-family="Times,serif" font-weight="bold" font-style="italic" font-size="14.00">否</text>
</g>
<!-- M -->
<!-- Y&#45;&gt;M -->
<g id="edge4" class="edge">
<title>Y&#45;&gt;M</title>
<path fill="none" stroke="black" d="M81.08,-87.01C90.78,-71.93 100.08,-57.46 101.74,-54.88"/>
</g>
<!-- N&#45;&gt;M -->
<g id="edge5" class="edge">
<title>N&#45;&gt;M</title>
<path fill="none" stroke="black" d="M127.96,-93.97C116.34,-76.29 103.69,-57.04 102.16,-54.71"/>
</g>
<!-- M&#45;&gt;W -->
<g id="edge6" class="edge">
<title>M&#45;&gt;W</title>
<path fill="none" stroke="black" d="M102,-52.99C102,-51.81 102,-42.05 102,-32.28"/>
<polygon fill="black" stroke="black" points="105.5,-32.45 102,-22.45 98.5,-32.45 105.5,-32.45"/>
</g>
</g>
</svg>
