<?xml version="1.0" encoding="UTF-8" standalone="no"?>
<!DOCTYPE svg PUBLIC "-//W3C//DTD SVG 1.1//EN"
 "http://www.w3.org/Graphics/SVG/1.1/DTD/svg11.dtd">
<!-- Generated by graphviz version 14.0.2 (20251019.1705)
 -->
<!-- Title: if_flow Pages: 1 -->
<svg width="154pt" height="136pt"
 viewBox="0.00 0.00 154.00 136.00" xmlns="http://www.w3.org/2000/svg" xmlns:xlink="http://www.w3.org/1999/xlink">
<g id="graph0" class="graph" transform="scale(1 1) rotate(0) translate(4 131.5)">
<title>if_flow</title>
<polygon fill="white" stroke="none" points="-4,4 -4,-131.5 150,-131.5 150,4 -4,4"/>
<!-- S -->
<g id="node1" class="node">
<title>S</title>
<path fill="none" stroke="black" d="M128.08,-127.5C128.08,-127.5 17.92,-127.5 17.92,-127.5 14.46,-127.5 11,-124.04 11,-120.58 11,-120.58 11,-113.67 11,-113.67 11,-110.21 14.46,-106.75 17.92,-106.75 17.92,-106.75 128.08,-106.75 128.08,-106.75 131.54,-106.75 135,-110.21 135,-113.67 135,-113.67 135,-120.58 135,-120.58 135,-124.04 131.54,-127.5 128.08,-127.5"/>
<text xml:space="preserve" text-anchor="middle" x="73" y="-114" font-family="monospace" font-size="10.00">age = int(input())</text>
</g>
<!-- B -->
<g id="node2" class="node">
<title>B</title>
<polygon fill="yellow" stroke="black" points="111,-83.75 35,-83.75 35,-63 111,-63 111,-83.75"/>
<text xml:space="preserve" text-anchor="middle" x="73" y="-70.25" font-family="monospace" font-size="10.00">age ≥ 18 ?</text>
</g>
<!-- S&#45;&gt;B -->
<g id="edge1" class="edge">
<title>S&#45;&gt;B</title>
<path fill="none" stroke="black" d="M73,-106.44C73,-103.07 73,-99.14 73,-95.22"/>
<polygon fill="black" stroke="black" points="76.5,-95.52 73,-85.52 69.5,-95.52 76.5,-95.52"/>
</g>
<!-- Y -->
<g id="node3" class="node">
<title>Y</title>
<path fill="none" stroke="black" d="M57.08,-20.75C57.08,-20.75 6.92,-20.75 6.92,-20.75 3.46,-20.75 0,-17.29 0,-13.83 0,-13.83 0,-6.92 0,-6.92 0,-3.46 3.46,0 6.92,0 6.92,0 57.08,0 57.08,0 60.54,0 64,-3.46 64,-6.92 64,-6.92 64,-13.83 64,-13.83 64,-17.29 60.54,-20.75 57.08,-20.75"/>
<text xml:space="preserve" text-anchor="middle" x="32" y="-7.25" font-family="monospace" font-size="10.00">print(1)</text>
</g>
<!-- B&#45;&gt;Y -->
<g id="edge2" class="edge">
<title>B&#45;&gt;Y</title>
<path fill="none" stroke="black" d="M66.41,-62.57C60.58,-53.9 51.9,-40.99 44.72,-30.3"/>
<polygon fill="black" stroke="black" points="47.76,-28.55 39.28,-22.21 41.95,-32.46 47.76,-28.55"/>
<text xml:space="preserve" text-anchor="middle" x="65.69" y="-38.7" font-family="Times,serif" font-size="14.00">是</text>
</g>
<!-- N -->
<g id="node4" class="node">
<title>N</title>
<path fill="none" stroke="black" d="M139.08,-20.75C139.08,-20.75 88.92,-20.75 88.92,-20.75 85.46,-20.75 82,-17.29 82,-13.83 82,-13.83 82,-6.92 82,-6.92 82,-3.46 85.46,0 88.92,0 88.92,0 139.08,0 139.08,0 142.54,0 146,-3.46 146,-6.92 146,-6.92 146,-13.83 146,-13.83 146,-17.29 142.54,-20.75 139.08,-20.75"/>
<text xml:space="preserve" text-anchor="middle" x="114" y="-7.25" font-family="monospace" font-size="10.00">print(0)</text>
</g>
<!-- B&#45;&gt;N -->
<g id="edge3" class="edge">
<title>B&#45;&gt;N</title>
<path fill="none" stroke="black" d="M79.59,-62.57C85.42,-53.9 94.1,-40.99 101.28,-30.3"/>
<polygon fill="black" stroke="black" points="104.05,-32.46 106.72,-22.21 98.24,-28.55 104.05,-32.46"/>
<text xml:space="preserve" text-anchor="middle" x="106.69" y="-38.7" font-family="Times,serif" font-size="14.00">否</text>
</g>
</g>
</svg>
