<?xml version="1.0" encoding="UTF-8" standalone="no"?>
<!DOCTYPE svg PUBLIC "-//W3C//DTD SVG 1.1//EN"
 "http://www.w3.org/Graphics/SVG/1.1/DTD/svg11.dtd">
<!-- Generated by graphviz version 14.0.2 (20251019.1705)
 -->
<!-- Pages: 1 -->
<svg width="714pt" height="314pt"
 viewBox="0.00 0.00 714.00 314.00" xmlns="http://www.w3.org/2000/svg" xmlns:xlink="http://www.w3.org/1999/xlink">
<g id="graph0" class="graph" transform="scale(1 1) rotate(0) translate(4 310)">
<polygon fill="white" stroke="none" points="-4,4 -4,-310 709.5,-310 709.5,4 -4,4"/>
<!-- 單元 1 -->
<g id="node1" class="node">
<title>單元 1</title>
<path fill="none" stroke="black" d="M43,-144C43,-144 12,-144 12,-144 6,-144 0,-138 0,-132 0,-132 0,-120 0,-120 0,-114 6,-108 12,-108 12,-108 43,-108 43,-108 49,-108 55,-114 55,-120 55,-120 55,-132 55,-132 55,-138 49,-144 43,-144"/>
<text xml:space="preserve" text-anchor="middle" x="27.5" y="-122.83" font-family="Times,serif" font-size="14.00">單元 1</text>
</g>
<!-- 單元 2 -->
<g id="node2" class="node">
<title>單元 2</title>
<path fill="none" stroke="black" d="M134,-144C134,-144 103,-144 103,-144 97,-144 91,-138 91,-132 91,-132 91,-120 91,-120 91,-114 97,-108 103,-108 103,-108 134,-108 134,-108 140,-108 146,-114 146,-120 146,-120 146,-132 146,-132 146,-138 140,-144 134,-144"/>
<text xml:space="preserve" text-anchor="middle" x="118.5" y="-122.83" font-family="Times,serif" font-size="14.00">單元 2</text>
</g>
<!-- 單元 1&#45;&gt;單元 2 -->
<g id="edge1" class="edge">
<title>單元 1&#45;&gt;單元 2</title>
<path fill="none" stroke="black" d="M55.2,-126C62.7,-126 71.01,-126 79.05,-126"/>
<polygon fill="black" stroke="black" points="78.99,-129.5 88.99,-126 78.99,-122.5 78.99,-129.5"/>
</g>
<!-- 單元 3 -->
<g id="node3" class="node">
<title>單元 3</title>
<path fill="none" stroke="black" d="M225,-144C225,-144 194,-144 194,-144 188,-144 182,-138 182,-132 182,-132 182,-120 182,-120 182,-114 188,-108 194,-108 194,-108 225,-108 225,-108 231,-108 237,-114 237,-120 237,-120 237,-132 237,-132 237,-138 231,-144 225,-144"/>
<text xml:space="preserve" text-anchor="middle" x="209.5" y="-122.83" font-family="Times,serif" font-size="14.00">單元 3</text>
</g>
<!-- 單元 2&#45;&gt;單元 3 -->
<g id="edge2" class="edge">
<title>單元 2&#45;&gt;單元 3</title>
<path fill="none" stroke="black" d="M146.2,-126C153.7,-126 162.01,-126 170.05,-126"/>
<polygon fill="black" stroke="black" points="169.99,-129.5 179.99,-126 169.99,-122.5 169.99,-129.5"/>
</g>
<!-- 單元 4 -->
<g id="node4" class="node">
<title>單元 4</title>
<path fill="none" stroke="black" d="M316,-144C316,-144 285,-144 285,-144 279,-144 273,-138 273,-132 273,-132 273,-120 273,-120 273,-114 279,-108 285,-108 285,-108 316,-108 316,-108 322,-108 328,-114 328,-120 328,-120 328,-132 328,-132 328,-138 322,-144 316,-144"/>
<text xml:space="preserve" text-anchor="middle" x="300.5" y="-122.83" font-family="Times,serif" font-size="14.00">單元 4</text>
</g>
<!-- 單元 3&#45;&gt;單元 4 -->
<g id="edge3" class="edge">
<title>單元 3&#45;&gt;單元 4</title>
<path fill="none" stroke="black" d="M237.2,-126C244.7,-126 253.01,-126 261.05,-126"/>
<polygon fill="black" stroke="black" points="260.99,-129.5 270.99,-126 260.99,-122.5 260.99,-129.5"/>
</g>
<!-- 單元 5 -->
<g id="node5" class="node">
<title>單元 5</title>
<path fill="none" stroke="black" d="M407,-144C407,-144 376,-144 376,-144 370,-144 364,-138 364,-132 364,-132 364,-120 364,-120 364,-114 370,-108 376,-108 376,-108 407,-108 407,-108 413,-108 419,-114 419,-120 419,-120 419,-132 419,-132 419,-138 413,-144 407,-144"/>
<text xml:space="preserve" text-anchor="middle" x="391.5" y="-122.83" font-family="Times,serif" font-size="14.00">單元 5</text>
</g>
<!-- 單元 4&#45;&gt;單元 5 -->
<g id="edge4" class="edge">
<title>單元 4&#45;&gt;單元 5</title>
<path fill="none" stroke="black" d="M328.2,-126C335.7,-126 344.01,-126 352.05,-126"/>
<polygon fill="black" stroke="black" points="351.99,-129.5 361.99,-126 351.99,-122.5 351.99,-129.5"/>
</g>
<!-- 單元 6 -->
<g id="node6" class="node">
<title>單元 6</title>
<path fill="none" stroke="black" d="M498,-171C498,-171 467,-171 467,-171 461,-171 455,-165 455,-159 455,-159 455,-147 455,-147 455,-141 461,-135 467,-135 467,-135 498,-135 498,-135 504,-135 510,-141 510,-147 510,-147 510,-159 510,-159 510,-165 504,-171 498,-171"/>
<text xml:space="preserve" text-anchor="middle" x="482.5" y="-149.82" font-family="Times,serif" font-size="14.00">單元 6</text>
</g>
<!-- 單元 5&#45;&gt;單元 6 -->
<g id="edge5" class="edge">
<title>單元 5&#45;&gt;單元 6</title>
<path fill="none" stroke="black" d="M419.2,-134.1C426.88,-136.43 435.4,-139.01 443.61,-141.5"/>
<polygon fill="black" stroke="black" points="442.47,-144.82 453.06,-144.37 444.51,-138.12 442.47,-144.82"/>
</g>
<!-- 單元 7 -->
<g id="node7" class="node">
<title>單元 7</title>
<path fill="none" stroke="black" d="M498,-117C498,-117 467,-117 467,-117 461,-117 455,-111 455,-105 455,-105 455,-93 455,-93 455,-87 461,-81 467,-81 467,-81 498,-81 498,-81 504,-81 510,-87 510,-93 510,-93 510,-105 510,-105 510,-111 504,-117 498,-117"/>
<text xml:space="preserve" text-anchor="middle" x="482.5" y="-95.83" font-family="Times,serif" font-size="14.00">單元 7</text>
</g>
<!-- 單元 5&#45;&gt;單元 7 -->
<g id="edge6" class="edge">
<title>單元 5&#45;&gt;單元 7</title>
<path fill="none" stroke="black" d="M419.2,-117.9C426.88,-115.57 435.4,-112.99 443.61,-110.5"/>
<polygon fill="black" stroke="black" points="444.51,-113.88 453.06,-107.63 442.47,-107.18 444.51,-113.88"/>
</g>
<!-- 單元 6&#45;&gt;單元 7 -->
<g id="edge7" class="edge">
<title>單元 6&#45;&gt;單元 7</title>
<path fill="none" stroke="black" d="M482.5,-134.51C482.5,-132.52 482.5,-130.53 482.5,-128.54"/>
<polygon fill="black" stroke="black" points="486,-128.65 482.5,-118.65 479,-128.65 486,-128.65"/>
</g>
<!-- 單元 9 -->
<g id="node8" class="node">
<title>單元 9</title>
<path fill="none" stroke="black" d="M592.38,-306C592.38,-306 561.38,-306 561.38,-306 555.38,-306 549.38,-300 549.38,-294 549.38,-294 549.38,-282 549.38,-282 549.38,-276 555.38,-270 561.38,-270 561.38,-270 592.38,-270 592.38,-270 598.38,-270 604.38,-276 604.38,-282 604.38,-282 604.38,-294 604.38,-294 604.38,-300 598.38,-306 592.38,-306"/>
<text xml:space="preserve" text-anchor="middle" x="576.88" y="-284.82" font-family="Times,serif" font-size="14.00">單元 9</text>
</g>
<!-- 單元 6&#45;&gt;單元 9 -->
<g id="edge8" class="edge">
<title>單元 6&#45;&gt;單元 9</title>
<path fill="none" stroke="black" d="M491.89,-171.29C502.64,-193.69 522.7,-232.2 546,-261 546.07,-261.09 546.15,-261.18 546.22,-261.28"/>
<polygon fill="black" stroke="black" points="543.49,-263.47 552.84,-268.47 548.64,-258.74 543.49,-263.47"/>
</g>
<!-- 單元 10 -->
<g id="node9" class="node">
<title>單元 10</title>
<path fill="none" stroke="black" d="M595.75,-252C595.75,-252 558,-252 558,-252 552,-252 546,-246 546,-240 546,-240 546,-228 546,-228 546,-222 552,-216 558,-216 558,-216 595.75,-216 595.75,-216 601.75,-216 607.75,-222 607.75,-228 607.75,-228 607.75,-240 607.75,-240 607.75,-246 601.75,-252 595.75,-252"/>
<text xml:space="preserve" text-anchor="middle" x="576.88" y="-230.82" font-family="Times,serif" font-size="14.00">單元 10</text>
</g>
<!-- 單元 6&#45;&gt;單元 10 -->
<g id="edge9" class="edge">
<title>單元 6&#45;&gt;單元 10</title>
<path fill="none" stroke="black" d="M504.46,-171.38C516.86,-182.25 532.76,-196.2 546.41,-208.17"/>
<polygon fill="black" stroke="black" points="544.03,-210.73 553.86,-214.69 548.65,-205.47 544.03,-210.73"/>
</g>
<!-- 單元 12 -->
<g id="node14" class="node">
<title>單元 12</title>
<path fill="none" stroke="black" d="M595.75,-198C595.75,-198 558,-198 558,-198 552,-198 546,-192 546,-186 546,-186 546,-174 546,-174 546,-168 552,-162 558,-162 558,-162 595.75,-162 595.75,-162 601.75,-162 607.75,-168 607.75,-174 607.75,-174 607.75,-186 607.75,-186 607.75,-192 601.75,-198 595.75,-198"/>
<text xml:space="preserve" text-anchor="middle" x="576.88" y="-176.82" font-family="Times,serif" font-size="14.00">單元 12</text>
</g>
<!-- 單元 6&#45;&gt;單元 12 -->
<g id="edge16" class="edge">
<title>單元 6&#45;&gt;單元 12</title>
<path fill="none" stroke="black" d="M510.22,-160.81C517.84,-163.04 526.32,-165.52 534.6,-167.93"/>
<polygon fill="black" stroke="black" points="533.61,-171.29 544.19,-170.74 535.57,-164.57 533.61,-171.29"/>
</g>
<!-- 單元 13 -->
<g id="node15" class="node">
<title>單元 13</title>
<path fill="none" stroke="black" d="M595.75,-144C595.75,-144 558,-144 558,-144 552,-144 546,-138 546,-132 546,-132 546,-120 546,-120 546,-114 552,-108 558,-108 558,-108 595.75,-108 595.75,-108 601.75,-108 607.75,-114 607.75,-120 607.75,-120 607.75,-132 607.75,-132 607.75,-138 601.75,-144 595.75,-144"/>
<text xml:space="preserve" text-anchor="middle" x="576.88" y="-122.83" font-family="Times,serif" font-size="14.00">單元 13</text>
</g>
<!-- 單元 6&#45;&gt;單元 13 -->
<g id="edge17" class="edge">
<title>單元 6&#45;&gt;單元 13</title>
<path fill="none" stroke="black" d="M510.22,-145.19C517.84,-142.96 526.32,-140.48 534.6,-138.07"/>
<polygon fill="black" stroke="black" points="535.57,-141.43 544.19,-135.26 533.61,-134.71 535.57,-141.43"/>
</g>
<!-- 單元 8 -->
<g id="node10" class="node">
<title>單元 8</title>
<path fill="none" stroke="black" d="M592.38,-90C592.38,-90 561.38,-90 561.38,-90 555.38,-90 549.38,-84 549.38,-78 549.38,-78 549.38,-66 549.38,-66 549.38,-60 555.38,-54 561.38,-54 561.38,-54 592.38,-54 592.38,-54 598.38,-54 604.38,-60 604.38,-66 604.38,-66 604.38,-78 604.38,-78 604.38,-84 598.38,-90 592.38,-90"/>
<text xml:space="preserve" text-anchor="middle" x="576.88" y="-68.83" font-family="Times,serif" font-size="14.00">單元 8</text>
</g>
<!-- 單元 7&#45;&gt;單元 8 -->
<g id="edge10" class="edge">
<title>單元 7&#45;&gt;單元 8</title>
<path fill="none" stroke="black" d="M510.22,-91.19C518.86,-88.67 528.6,-85.82 537.9,-83.1"/>
<polygon fill="black" stroke="black" points="538.83,-86.48 547.44,-80.31 536.86,-79.76 538.83,-86.48"/>
</g>
<!-- 單元 14 -->
<g id="node11" class="node">
<title>單元 14</title>
<path fill="none" stroke="black" d="M595.75,-36C595.75,-36 558,-36 558,-36 552,-36 546,-30 546,-24 546,-24 546,-12 546,-12 546,-6 552,0 558,0 558,0 595.75,0 595.75,0 601.75,0 607.75,-6 607.75,-12 607.75,-12 607.75,-24 607.75,-24 607.75,-30 601.75,-36 595.75,-36"/>
<text xml:space="preserve" text-anchor="middle" x="576.88" y="-14.82" font-family="Times,serif" font-size="14.00">單元 14</text>
</g>
<!-- 單元 7&#45;&gt;單元 14 -->
<g id="edge11" class="edge">
<title>單元 7&#45;&gt;單元 14</title>
<path fill="none" stroke="black" d="M504.46,-80.62C516.86,-69.75 532.76,-55.8 546.41,-43.83"/>
<polygon fill="black" stroke="black" points="548.65,-46.53 553.86,-37.31 544.03,-41.27 548.65,-46.53"/>
</g>
<!-- 單元 11 -->
<g id="node13" class="node">
<title>單元 11</title>
<path fill="none" stroke="black" d="M693.5,-252C693.5,-252 655.75,-252 655.75,-252 649.75,-252 643.75,-246 643.75,-240 643.75,-240 643.75,-228 643.75,-228 643.75,-222 649.75,-216 655.75,-216 655.75,-216 693.5,-216 693.5,-216 699.5,-216 705.5,-222 705.5,-228 705.5,-228 705.5,-240 705.5,-240 705.5,-246 699.5,-252 693.5,-252"/>
<text xml:space="preserve" text-anchor="middle" x="674.62" y="-230.82" font-family="Times,serif" font-size="14.00">單元 11</text>
</g>
<!-- 單元 9&#45;&gt;單元 11 -->
<g id="edge14" class="edge">
<title>單元 9&#45;&gt;單元 11</title>
<path fill="none" stroke="black" d="M604.8,-272.81C613.75,-267.77 623.92,-262.03 633.64,-256.55"/>
<polygon fill="black" stroke="black" points="635.23,-259.67 642.22,-251.71 631.79,-253.58 635.23,-259.67"/>
</g>
<!-- 單元 10&#45;&gt;單元 11 -->
<g id="edge15" class="edge">
<title>單元 10&#45;&gt;單元 11</title>
<path fill="none" stroke="black" d="M608.17,-234C615.75,-234 624.02,-234 632.05,-234"/>
<polygon fill="black" stroke="black" points="632.01,-237.5 642.01,-234 632.01,-230.5 632.01,-237.5"/>
</g>
<!-- 單元 8&#45;&gt;單元 11 -->
<g id="edge13" class="edge">
<title>單元 8&#45;&gt;單元 11</title>
<path fill="none" stroke="black" d="M600.08,-90.27C602.84,-93.04 605.48,-95.98 607.75,-99 632.8,-132.3 652.24,-176.63 663.32,-205.24"/>
<polygon fill="black" stroke="black" points="659.94,-206.2 666.75,-214.32 666.49,-203.73 659.94,-206.2"/>
</g>
<!-- 單元 15 -->
<g id="node12" class="node">
<title>單元 15</title>
<path fill="none" stroke="black" d="M693.5,-36C693.5,-36 655.75,-36 655.75,-36 649.75,-36 643.75,-30 643.75,-24 643.75,-24 643.75,-12 643.75,-12 643.75,-6 649.75,0 655.75,0 655.75,0 693.5,0 693.5,0 699.5,0 705.5,-6 705.5,-12 705.5,-12 705.5,-24 705.5,-24 705.5,-30 699.5,-36 693.5,-36"/>
<text xml:space="preserve" text-anchor="middle" x="674.62" y="-14.82" font-family="Times,serif" font-size="14.00">單元 15</text>
</g>
<!-- 單元 14&#45;&gt;單元 15 -->
<g id="edge12" class="edge">
<title>單元 14&#45;&gt;單元 15</title>
<path fill="none" stroke="black" d="M608.17,-18C615.75,-18 624.02,-18 632.05,-18"/>
<polygon fill="black" stroke="black" points="632.01,-21.5 642.01,-18 632.01,-14.5 632.01,-21.5"/>
</g>
</g>
</svg>
