<?xml version="1.0" encoding="UTF-8" standalone="no"?>
<!DOCTYPE svg PUBLIC "-//W3C//DTD SVG 1.1//EN"
 "http://www.w3.org/Graphics/SVG/1.1/DTD/svg11.dtd">
<!-- Generated by graphviz version 14.0.2 (20251019.1705)
 -->
<!-- Pages: 1 -->
<svg width="475pt" height="306pt"
 viewBox="0.00 0.00 475.00 306.00" xmlns="http://www.w3.org/2000/svg" xmlns:xlink="http://www.w3.org/1999/xlink">
<g id="graph0" class="graph" transform="scale(1 1) rotate(0) translate(4 302)">
<polygon fill="white" stroke="none" points="-4,4 -4,-302 470.75,-302 470.75,4 -4,4"/>
<!-- 單元 1 → 5 -->
<g id="node1" class="node">
<title>單元 1 → 5</title>
<polygon fill="#4caf50" stroke="none" points="85,-144 0,-144 0,-108 85,-108 85,-144"/>
<text xml:space="preserve" text-anchor="middle" x="42.5" y="-122.83" font-family="Arial" font-size="14.00" fill="white">單元 1 → 5</text>
</g>
<!-- 6：List &#160; -->
<g id="node2" class="node">
<title>6：List &#160;</title>
<polygon fill="#4caf50" stroke="none" points="187.25,-171 121,-171 121,-135 187.25,-135 187.25,-171"/>
<text xml:space="preserve" text-anchor="middle" x="154.12" y="-149.82" font-family="Arial" font-size="14.00" fill="white">6：List &#160;</text>
</g>
<!-- 單元 1 → 5&#45;&gt;6：List &#160; -->
<g id="edge1" class="edge">
<title>單元 1 → 5&#45;&gt;6：List &#160;</title>
<path fill="none" stroke="#4caf50" d="M85.26,-136.28C93.24,-138.25 101.61,-140.31 109.64,-142.29"/>
<polygon fill="#4caf50" stroke="#4caf50" points="108.67,-145.66 119.22,-144.65 110.35,-138.86 108.67,-145.66"/>
</g>
<!-- 7：函式 -->
<g id="node3" class="node">
<title>7：函式</title>
<polygon fill="#4caf50" stroke="none" points="187.25,-117 121,-117 121,-81 187.25,-81 187.25,-117"/>
<text xml:space="preserve" text-anchor="middle" x="154.12" y="-95.83" font-family="Arial" font-size="14.00" fill="white">7：函式</text>
</g>
<!-- 單元 1 → 5&#45;&gt;7：函式 -->
<g id="edge2" class="edge">
<title>單元 1 → 5&#45;&gt;7：函式</title>
<path fill="none" stroke="#4caf50" d="M85.26,-115.72C93.24,-113.75 101.61,-111.69 109.64,-109.71"/>
<polygon fill="#4caf50" stroke="#4caf50" points="110.35,-113.14 119.22,-107.35 108.67,-106.34 110.35,-113.14"/>
</g>
<!-- 6：List &#160;&#45;&gt;7：函式 -->
<g id="edge3" class="edge">
<title>6：List &#160;&#45;&gt;7：函式</title>
<path fill="none" stroke="#4caf50" d="M154.12,-134.51C154.12,-132.52 154.12,-130.53 154.12,-128.54"/>
<polygon fill="#4caf50" stroke="#4caf50" points="157.63,-128.65 154.13,-118.65 150.63,-128.65 157.63,-128.65"/>
</g>
<!-- 多維資料與迴圈 -->
<g id="node4" class="node">
<title>多維資料與迴圈</title>
<polygon fill="#4caf50" stroke="none" points="339,-198 223.25,-198 223.25,-162 339,-162 339,-198"/>
<text xml:space="preserve" text-anchor="middle" x="281.12" y="-176.82" font-family="Arial" font-size="14.00" fill="white">多維資料與迴圈</text>
</g>
<!-- 6：List &#160;&#45;&gt;多維資料與迴圈 -->
<g id="edge4" class="edge">
<title>6：List &#160;&#45;&gt;多維資料與迴圈:w</title>
<path fill="none" stroke="#4caf50" d="M187.38,-171.46C195.05,-174.76 203.49,-177.6 212.03,-179.02"/>
<polygon fill="#4caf50" stroke="#4caf50" points="211.48,-182.49 221.74,-179.87 212.08,-175.51 211.48,-182.49"/>
</g>
<!-- 10：二分搜尋 -->
<g id="node5" class="node">
<title>10：二分搜尋</title>
<polygon fill="#4caf50" stroke="none" points="332.25,-144 230,-144 230,-108 332.25,-108 332.25,-144"/>
<text xml:space="preserve" text-anchor="middle" x="281.12" y="-122.83" font-family="Arial" font-size="14.00" fill="white">10：二分搜尋</text>
</g>
<!-- 6：List &#160;&#45;&gt;10：二分搜尋 -->
<g id="edge5" class="edge">
<title>6：List &#160;&#45;&gt;10：二分搜尋:w</title>
<path fill="none" stroke="#4caf50" d="M187.67,-135.6C196.89,-131.76 207.27,-128.38 217.71,-126.86"/>
<polygon fill="#4caf50" stroke="#4caf50" points="217.79,-130.36 227.49,-126.11 217.25,-123.38 217.79,-130.36"/>
</g>
<!-- 堆疊 Stack -->
<g id="node10" class="node">
<title>堆疊 Stack</title>
<polygon fill="#4caf50" stroke="none" points="462.25,-298 379.5,-298 379.5,-262 462.25,-262 462.25,-298"/>
<text xml:space="preserve" text-anchor="middle" x="420.88" y="-276.82" font-family="Arial" font-size="14.00" fill="white">堆疊 Stack</text>
</g>
<!-- 6：List &#160;&#45;&gt;堆疊 Stack -->
<g id="edge12" class="edge">
<title>6：List &#160;&#45;&gt;堆疊 Stack</title>
<path fill="none" stroke="#4caf50" d="M166.03,-171.27C177.85,-189.46 198.38,-216.78 223.25,-232 267.49,-259.08 326.09,-270.89 367.78,-276.04"/>
<polygon fill="#4caf50" stroke="#4caf50" points="367.23,-279.5 377.56,-277.15 368.02,-272.54 367.23,-279.5"/>
</g>
<!-- 排序 Sorting -->
<g id="node11" class="node">
<title>排序 Sorting</title>
<polygon fill="#4caf50" stroke="none" points="466.75,-244 375,-244 375,-208 466.75,-208 466.75,-244"/>
<text xml:space="preserve" text-anchor="middle" x="420.88" y="-222.82" font-family="Arial" font-size="14.00" fill="white">排序 Sorting</text>
</g>
<!-- 6：List &#160;&#45;&gt;排序 Sorting -->
<g id="edge13" class="edge">
<title>6：List &#160;&#45;&gt;排序 Sorting</title>
<path fill="none" stroke="#4caf50" d="M172.34,-171.35C185.12,-183.69 203.65,-199.1 223.25,-207 268.07,-225.07 323.13,-229.01 363.57,-228.89"/>
<polygon fill="#4caf50" stroke="#4caf50" points="363.36,-232.39 373.32,-228.77 363.28,-225.39 363.36,-232.39"/>
</g>
<!-- 遞迴 Recursion -->
<g id="node6" class="node">
<title>遞迴 Recursion</title>
<polygon fill="#4caf50" stroke="none" points="336,-90 226.25,-90 226.25,-54 336,-54 336,-90"/>
<text xml:space="preserve" text-anchor="middle" x="281.12" y="-68.83" font-family="Arial" font-size="14.00" fill="white">遞迴 Recursion</text>
</g>
<!-- 7：函式&#45;&gt;遞迴 Recursion -->
<g id="edge6" class="edge">
<title>7：函式&#45;&gt;遞迴 Recursion</title>
<path fill="none" stroke="#4caf50" d="M187.64,-91.98C196.06,-90.16 205.44,-88.13 214.9,-86.09"/>
<polygon fill="#4caf50" stroke="#4caf50" points="215.47,-89.55 224.51,-84.01 213.99,-82.7 215.47,-89.55"/>
</g>
<!-- ip -->
<g id="node7" class="node">
<title>ip</title>
<polygon fill="#4caf50" stroke="none" points="330.38,-36 231.88,-36 231.88,0 330.38,0 330.38,-36"/>
<text xml:space="preserve" text-anchor="start" x="239.88" y="-15.82" font-family="monospace" font-size="14.00" fill="white">import</text>
<text xml:space="preserve" text-anchor="start" x="289.38" y="-15.82" font-family="Arial" font-size="14.00" fill="white"> 模組</text>
</g>
<!-- 7：函式&#45;&gt;ip -->
<g id="edge7" class="edge">
<title>7：函式&#45;&gt;ip:w</title>
<path fill="none" stroke="#4caf50" d="M162.58,-80.62C172.38,-59.43 191.7,-26.58 219.72,-19.41"/>
<polygon fill="#4caf50" stroke="#4caf50" points="219.89,-22.92 229.37,-18.19 219.01,-15.97 219.89,-22.92"/>
</g>
<!-- 時間複雜度 -->
<g id="node9" class="node">
<title>時間複雜度</title>
<polygon fill="#4caf50" stroke="none" points="464.5,-144 377.25,-144 377.25,-108 464.5,-108 464.5,-144"/>
<text xml:space="preserve" text-anchor="middle" x="420.88" y="-122.83" font-family="Arial" font-size="14.00" fill="white">時間複雜度</text>
</g>
<!-- 多維資料與迴圈&#45;&gt;時間複雜度 -->
<g id="edge10" class="edge">
<title>多維資料與迴圈:e&#45;&gt;時間複雜度</title>
<path fill="none" stroke="#4caf50" d="M339,-180C361.02,-180 381.59,-165.99 396.47,-152.24"/>
<polygon fill="#4caf50" stroke="#4caf50" points="398.81,-154.86 403.47,-145.34 393.89,-149.87 398.81,-154.86"/>
</g>
<!-- 10：二分搜尋&#45;&gt;時間複雜度 -->
<g id="edge11" class="edge">
<title>10：二分搜尋&#45;&gt;時間複雜度</title>
<path fill="none" stroke="#4caf50" d="M332.64,-126C343.46,-126 354.94,-126 365.9,-126"/>
<polygon fill="#4caf50" stroke="#4caf50" points="365.56,-129.5 375.56,-126 365.56,-122.5 365.56,-129.5"/>
</g>
<!-- 遞迴 Recursion&#45;&gt;時間複雜度 -->
<g id="edge9" class="edge">
<title>遞迴 Recursion:e&#45;&gt;時間複雜度</title>
<path fill="none" stroke="#4caf50" d="M337,-72C359.39,-72 380.48,-86.01 395.78,-99.76"/>
<polygon fill="#4caf50" stroke="#4caf50" points="393.35,-102.28 402.99,-106.67 398.19,-97.23 393.35,-102.28"/>
</g>
<!-- 與 AI 協作 -->
<g id="node8" class="node">
<title>與 AI 協作</title>
<polygon fill="#4caf50" stroke="none" points="460.75,-36 381,-36 381,0 460.75,0 460.75,-36"/>
<text xml:space="preserve" text-anchor="middle" x="420.88" y="-14.82" font-family="Arial" font-size="14.00" fill="white">與 AI 協作</text>
</g>
<!-- ip&#45;&gt;與 AI 協作 -->
<g id="edge8" class="edge">
<title>ip&#45;&gt;與 AI 協作</title>
<path fill="none" stroke="#4caf50" d="M330.69,-18C343.26,-18 356.83,-18 369.49,-18"/>
<polygon fill="#4caf50" stroke="#4caf50" points="369.3,-21.5 379.3,-18 369.3,-14.5 369.3,-21.5"/>
</g>
</g>
</svg>
