<?xml version="1.0" encoding="UTF-8" standalone="no"?>
<!DOCTYPE svg PUBLIC "-//W3C//DTD SVG 1.1//EN"
 "http://www.w3.org/Graphics/SVG/1.1/DTD/svg11.dtd">
<!-- Generated by graphviz version 14.0.2 (20251019.1705)
 -->
<!-- Pages: 1 -->
<svg width="721pt" height="314pt"
 viewBox="0.00 0.00 721.00 314.00" xmlns="http://www.w3.org/2000/svg" xmlns:xlink="http://www.w3.org/1999/xlink">
<g id="graph0" class="graph" transform="scale(1 1) rotate(0) translate(4 310)">
<polygon fill="white" stroke="none" points="-4,4 -4,-310 717,-310 717,4 -4,4"/>
<!-- 單元 1 -->
<g id="node1" class="node">
<title>單元 1</title>
<polygon fill="#4caf50" stroke="none" points="55.75,-144 0,-144 0,-108 55.75,-108 55.75,-144"/>
<text xml:space="preserve" text-anchor="middle" x="27.88" y="-122.83" font-family="Arial" font-size="14.00" fill="white">單元 1</text>
</g>
<!-- 單元 2 -->
<g id="node2" class="node">
<title>單元 2</title>
<polygon fill="#4caf50" stroke="none" points="147.5,-144 91.75,-144 91.75,-108 147.5,-108 147.5,-144"/>
<text xml:space="preserve" text-anchor="middle" x="119.62" y="-122.83" font-family="Arial" font-size="14.00" fill="white">單元 2</text>
</g>
<!-- 單元 1&#45;&gt;單元 2 -->
<g id="edge1" class="edge">
<title>單元 1&#45;&gt;單元 2</title>
<path fill="none" stroke="#4caf50" d="M55.8,-126C63.45,-126 71.94,-126 80.13,-126"/>
<polygon fill="#4caf50" stroke="#4caf50" points="79.89,-129.5 89.89,-126 79.89,-122.5 79.89,-129.5"/>
</g>
<!-- 單元 3 -->
<g id="node3" class="node">
<title>單元 3</title>
<polygon fill="#4caf50" stroke="none" points="239.25,-144 183.5,-144 183.5,-108 239.25,-108 239.25,-144"/>
<text xml:space="preserve" text-anchor="middle" x="211.38" y="-122.83" font-family="Arial" font-size="14.00" fill="white">單元 3</text>
</g>
<!-- 單元 2&#45;&gt;單元 3 -->
<g id="edge2" class="edge">
<title>單元 2&#45;&gt;單元 3</title>
<path fill="none" stroke="#4caf50" d="M147.55,-126C155.2,-126 163.69,-126 171.88,-126"/>
<polygon fill="#4caf50" stroke="#4caf50" points="171.64,-129.5 181.64,-126 171.64,-122.5 171.64,-129.5"/>
</g>
<!-- 單元 4 -->
<g id="node4" class="node">
<title>單元 4</title>
<polygon fill="#4caf50" stroke="none" points="331,-144 275.25,-144 275.25,-108 331,-108 331,-144"/>
<text xml:space="preserve" text-anchor="middle" x="303.12" y="-122.83" font-family="Arial" font-size="14.00" fill="white">單元 4</text>
</g>
<!-- 單元 3&#45;&gt;單元 4 -->
<g id="edge3" class="edge">
<title>單元 3&#45;&gt;單元 4</title>
<path fill="none" stroke="#4caf50" d="M239.3,-126C246.95,-126 255.44,-126 263.63,-126"/>
<polygon fill="#4caf50" stroke="#4caf50" points="263.39,-129.5 273.39,-126 263.39,-122.5 263.39,-129.5"/>
</g>
<!-- 單元 5 -->
<g id="node5" class="node">
<title>單元 5</title>
<polygon fill="#4caf50" stroke="none" points="422.75,-144 367,-144 367,-108 422.75,-108 422.75,-144"/>
<text xml:space="preserve" text-anchor="middle" x="394.88" y="-122.83" font-family="Arial" font-size="14.00" fill="white">單元 5</text>
</g>
<!-- 單元 4&#45;&gt;單元 5 -->
<g id="edge4" class="edge">
<title>單元 4&#45;&gt;單元 5</title>
<path fill="none" stroke="#4caf50" d="M331.05,-126C338.7,-126 347.19,-126 355.38,-126"/>
<polygon fill="#4caf50" stroke="#4caf50" points="355.14,-129.5 365.14,-126 355.14,-122.5 355.14,-129.5"/>
</g>
<!-- 單元 6 -->
<g id="node6" class="node">
<title>單元 6</title>
<polygon fill="#4caf50" stroke="none" points="514.5,-171 458.75,-171 458.75,-135 514.5,-135 514.5,-171"/>
<text xml:space="preserve" text-anchor="middle" x="486.62" y="-149.82" font-family="Arial" font-size="14.00" fill="white">單元 6</text>
</g>
<!-- 單元 5&#45;&gt;單元 6 -->
<g id="edge5" class="edge">
<title>單元 5&#45;&gt;單元 6</title>
<path fill="none" stroke="#4caf50" d="M422.8,-134.1C430.54,-136.43 439.13,-139.01 447.41,-141.5"/>
<polygon fill="#4caf50" stroke="#4caf50" points="446.37,-144.85 456.96,-144.38 448.39,-138.14 446.37,-144.85"/>
</g>
<!-- 單元 7 -->
<g id="node7" class="node">
<title>單元 7</title>
<polygon fill="#4caf50" stroke="none" points="514.5,-117 458.75,-117 458.75,-81 514.5,-81 514.5,-117"/>
<text xml:space="preserve" text-anchor="middle" x="486.62" y="-95.83" font-family="Arial" font-size="14.00" fill="white">單元 7</text>
</g>
<!-- 單元 5&#45;&gt;單元 7 -->
<g id="edge6" class="edge">
<title>單元 5&#45;&gt;單元 7</title>
<path fill="none" stroke="#4caf50" d="M422.8,-117.9C430.54,-115.57 439.13,-112.99 447.41,-110.5"/>
<polygon fill="#4caf50" stroke="#4caf50" points="448.39,-113.86 456.96,-107.62 446.37,-107.15 448.39,-113.86"/>
</g>
<!-- 單元 6&#45;&gt;單元 7 -->
<g id="edge7" class="edge">
<title>單元 6&#45;&gt;單元 7</title>
<path fill="none" stroke="#4caf50" d="M486.62,-134.51C486.62,-132.52 486.62,-130.53 486.62,-128.54"/>
<polygon fill="#4caf50" stroke="#4caf50" points="490.13,-128.65 486.63,-118.65 483.13,-128.65 490.13,-128.65"/>
</g>
<!-- 單元 9  -->
<g id="node8" class="node">
<title>單元 9 </title>
<polygon fill="#4caf50" stroke="none" points="611.88,-306 552.38,-306 552.38,-270 611.88,-270 611.88,-306"/>
<text xml:space="preserve" text-anchor="middle" x="582.12" y="-284.82" font-family="Arial" font-size="14.00" fill="white">單元 9 </text>
</g>
<!-- 單元 6&#45;&gt;單元 9  -->
<g id="edge8" class="edge">
<title>單元 6&#45;&gt;單元 9 :w</title>
<path fill="none" stroke="#4caf50" d="M488.1,-171.49C489.98,-205.57 498.88,-275.83 540.17,-286.6"/>
<polygon fill="#4caf50" stroke="#4caf50" points="539.52,-290.05 549.87,-287.81 540.38,-283.1 539.52,-290.05"/>
</g>
<!-- 單元 10 -->
<g id="node9" class="node">
<title>單元 10</title>
<polygon fill="#4caf50" stroke="none" points="613.75,-252 550.5,-252 550.5,-216 613.75,-216 613.75,-252"/>
<text xml:space="preserve" text-anchor="middle" x="582.12" y="-230.82" font-family="Arial" font-size="14.00" fill="white">單元 10</text>
</g>
<!-- 單元 6&#45;&gt;單元 10 -->
<g id="edge9" class="edge">
<title>單元 6&#45;&gt;單元 10:w</title>
<path fill="none" stroke="#4caf50" d="M492.89,-171.38C499.98,-192.29 514.65,-224.55 539.31,-232.29"/>
<polygon fill="#4caf50" stroke="#4caf50" points="538.59,-235.72 549,-233.77 539.65,-228.8 538.59,-235.72"/>
</g>
<!-- 單元 12 -->
<g id="node14" class="node">
<title>單元 12</title>
<polygon fill="#4caf50" stroke="none" points="613.75,-198 550.5,-198 550.5,-162 613.75,-162 613.75,-198"/>
<text xml:space="preserve" text-anchor="middle" x="582.12" y="-176.82" font-family="Arial" font-size="14.00" fill="white">單元 12</text>
</g>
<!-- 單元 6&#45;&gt;單元 12 -->
<g id="edge16" class="edge">
<title>單元 6&#45;&gt;單元 12</title>
<path fill="none" stroke="#4caf50" d="M514.92,-160.88C522.48,-163.07 530.87,-165.49 539.06,-167.85"/>
<polygon fill="#4caf50" stroke="#4caf50" points="537.98,-171.18 548.56,-170.6 539.92,-164.46 537.98,-171.18"/>
</g>
<!-- 單元 13 -->
<g id="node15" class="node">
<title>單元 13</title>
<polygon fill="#4caf50" stroke="none" points="613.75,-144 550.5,-144 550.5,-108 613.75,-108 613.75,-144"/>
<text xml:space="preserve" text-anchor="middle" x="582.12" y="-122.83" font-family="Arial" font-size="14.00" fill="white">單元 13</text>
</g>
<!-- 單元 6&#45;&gt;單元 13 -->
<g id="edge17" class="edge">
<title>單元 6&#45;&gt;單元 13</title>
<path fill="none" stroke="#4caf50" d="M514.92,-145.12C522.48,-142.93 530.87,-140.51 539.06,-138.15"/>
<polygon fill="#4caf50" stroke="#4caf50" points="539.92,-141.54 548.56,-135.4 537.98,-134.82 539.92,-141.54"/>
</g>
<!-- 單元 8  -->
<g id="node10" class="node">
<title>單元 8 </title>
<polygon fill="#4caf50" stroke="none" points="611.88,-90 552.38,-90 552.38,-54 611.88,-54 611.88,-90"/>
<text xml:space="preserve" text-anchor="middle" x="582.12" y="-68.83" font-family="Arial" font-size="14.00" fill="white">單元 8 </text>
</g>
<!-- 單元 7&#45;&gt;單元 8  -->
<g id="edge10" class="edge">
<title>單元 7&#45;&gt;單元 8 </title>
<path fill="none" stroke="#4caf50" d="M514.92,-91.12C523.11,-88.75 532.26,-86.11 541.09,-83.56"/>
<polygon fill="#4caf50" stroke="#4caf50" points="541.91,-86.97 550.55,-80.83 539.97,-80.24 541.91,-86.97"/>
</g>
<!-- 單元 14 -->
<g id="node11" class="node">
<title>單元 14</title>
<polygon fill="#4caf50" stroke="none" points="613.75,-36 550.5,-36 550.5,0 613.75,0 613.75,-36"/>
<text xml:space="preserve" text-anchor="middle" x="582.12" y="-14.82" font-family="Arial" font-size="14.00" fill="white">單元 14</text>
</g>
<!-- 單元 7&#45;&gt;單元 14 -->
<g id="edge11" class="edge">
<title>單元 7&#45;&gt;單元 14:w</title>
<path fill="none" stroke="#4caf50" d="M492.89,-80.62C499.98,-59.71 514.65,-27.45 539.31,-19.71"/>
<polygon fill="#4caf50" stroke="#4caf50" points="539.65,-23.2 549,-18.23 538.59,-16.28 539.65,-23.2"/>
</g>
<!-- 單元 11 -->
<g id="node13" class="node">
<title>單元 11</title>
<polygon fill="#4caf50" stroke="none" points="712.62,-252 650.12,-252 650.12,-216 712.62,-216 712.62,-252"/>
<text xml:space="preserve" text-anchor="middle" x="681.38" y="-230.82" font-family="Arial" font-size="14.00" fill="white">單元 11</text>
</g>
<!-- 單元 9 &#45;&gt;單元 11 -->
<g id="edge14" class="edge">
<title>單元 9 :e&#45;&gt;單元 11</title>
<path fill="none" stroke="#4caf50" d="M612.88,-288C632.08,-288 648.95,-274.51 661.02,-261.01"/>
<polygon fill="#4caf50" stroke="#4caf50" points="663.6,-263.39 667.28,-253.45 658.21,-258.93 663.6,-263.39"/>
</g>
<!-- 單元 10&#45;&gt;單元 11 -->
<g id="edge15" class="edge">
<title>單元 10&#45;&gt;單元 11</title>
<path fill="none" stroke="#4caf50" d="M614.16,-234C621.87,-234 630.26,-234 638.4,-234"/>
<polygon fill="#4caf50" stroke="#4caf50" points="638.12,-237.5 648.12,-234 638.12,-230.5 638.12,-237.5"/>
</g>
<!-- 單元 8 &#45;&gt;單元 11 -->
<g id="edge13" class="edge">
<title>單元 8 :e&#45;&gt;單元 11</title>
<path fill="none" stroke="#4caf50" d="M612.88,-72C669.63,-72 679.53,-157.78 680.71,-204.5"/>
<polygon fill="#4caf50" stroke="#4caf50" points="677.21,-204.26 680.83,-214.22 684.21,-204.18 677.21,-204.26"/>
</g>
<!-- 單元 15 -->
<g id="node12" class="node">
<title>單元 15</title>
<polygon fill="#4caf50" stroke="none" points="713,-36 649.75,-36 649.75,0 713,0 713,-36"/>
<text xml:space="preserve" text-anchor="middle" x="681.38" y="-14.82" font-family="Arial" font-size="14.00" fill="white">單元 15</text>
</g>
<!-- 單元 14&#45;&gt;單元 15 -->
<g id="edge12" class="edge">
<title>單元 14&#45;&gt;單元 15</title>
<path fill="none" stroke="#4caf50" d="M614.16,-18C621.71,-18 629.9,-18 637.88,-18"/>
<polygon fill="#4caf50" stroke="#4caf50" points="637.78,-21.5 647.78,-18 637.78,-14.5 637.78,-21.5"/>
</g>
</g>
</svg>
