<?xml version="1.0" encoding="UTF-8" standalone="no"?>
<!DOCTYPE svg PUBLIC "-//W3C//DTD SVG 1.1//EN"
 "http://www.w3.org/Graphics/SVG/1.1/DTD/svg11.dtd">
<!-- Generated by graphviz version 14.0.2 (20251019.1705)
 -->
<!-- Pages: 1 -->
<svg width="513pt" height="306pt"
 viewBox="0.00 0.00 513.00 306.00" xmlns="http://www.w3.org/2000/svg" xmlns:xlink="http://www.w3.org/1999/xlink">
<g id="graph0" class="graph" transform="scale(1 1) rotate(0) translate(4 302)">
<polygon fill="white" stroke="none" points="-4,4 -4,-302 509.15,-302 509.15,4 -4,4"/>
<g id="clust1" class="cluster">
<title>cluster_basic</title>
<path fill="none" stroke="blue" stroke-dasharray="5,2" d="M20,-73C20,-73 210.45,-73 210.45,-73 216.45,-73 222.45,-79 222.45,-85 222.45,-85 222.45,-167 222.45,-167 222.45,-173 216.45,-179 210.45,-179 210.45,-179 20,-179 20,-179 14,-179 8,-173 8,-167 8,-167 8,-85 8,-85 8,-79 14,-73 20,-73"/>
</g>
<!-- 單元 1 → 5 -->
<g id="node1" class="node">
<title>單元 1 → 5</title>
<polygon fill="#4caf50" stroke="none" points="106.6,-144 16,-144 16,-108 106.6,-108 106.6,-144"/>
<text xml:space="preserve" text-anchor="middle" x="61.3" y="-122.83" font-family="Arial" font-size="14.00" fill="white">單元 1 → 5</text>
</g>
<!--  6：List  -->
<g id="node2" class="node">
<title> 6：List </title>
<polygon fill="#4caf50" stroke="none" points="214.45,-171 142.6,-171 142.6,-135 214.45,-135 214.45,-171"/>
<text xml:space="preserve" text-anchor="middle" x="178.53" y="-149.82" font-family="Arial" font-size="14.00" fill="white"> 6：List </text>
</g>
<!-- 單元 1 → 5&#45;&gt; 6：List  -->
<g id="edge1" class="edge">
<title>單元 1 → 5&#45;&gt; 6：List </title>
<path fill="none" stroke="#4caf50" d="M106.85,-136.44C114.86,-138.31 123.22,-140.27 131.27,-142.16"/>
<polygon fill="#4caf50" stroke="#4caf50" points="130.37,-145.55 140.91,-144.42 131.97,-138.73 130.37,-145.55"/>
</g>
<!-- 7：函式 -->
<g id="node3" class="node">
<title>7：函式</title>
<polygon fill="#4caf50" stroke="none" points="214.45,-117 142.6,-117 142.6,-81 214.45,-81 214.45,-117"/>
<text xml:space="preserve" text-anchor="middle" x="178.53" y="-95.83" font-family="Arial" font-size="14.00" fill="white">7：函式</text>
</g>
<!-- 單元 1 → 5&#45;&gt;7：函式 -->
<g id="edge2" class="edge">
<title>單元 1 → 5&#45;&gt;7：函式</title>
<path fill="none" stroke="#4caf50" d="M106.85,-115.56C114.86,-113.69 123.22,-111.73 131.27,-109.84"/>
<polygon fill="#4caf50" stroke="#4caf50" points="131.97,-113.27 140.91,-107.58 130.37,-106.45 131.97,-113.27"/>
</g>
<!--  6：List &#45;&gt;7：函式 -->
<g id="edge3" class="edge">
<title> 6：List &#45;&gt;7：函式</title>
<path fill="none" stroke="#4caf50" d="M178.53,-134.51C178.53,-132.52 178.53,-130.53 178.53,-128.54"/>
<polygon fill="#4caf50" stroke="#4caf50" points="182.03,-128.65 178.53,-118.65 175.03,-128.65 182.03,-128.65"/>
</g>
<!-- 多維資料與迴圈 -->
<g id="node4" class="node">
<title>多維資料與迴圈</title>
<polygon fill="#4caf50" stroke="none" points="371.8,-198 250.45,-198 250.45,-162 371.8,-162 371.8,-198"/>
<text xml:space="preserve" text-anchor="middle" x="311.13" y="-176.82" font-family="Arial" font-size="14.00" fill="white">多維資料與迴圈</text>
</g>
<!--  6：List &#45;&gt;多維資料與迴圈 -->
<g id="edge4" class="edge">
<title> 6：List &#45;&gt;多維資料與迴圈:w</title>
<path fill="none" stroke="#4caf50" d="M213.19,-171.46C221.26,-174.79 230.15,-177.66 239.11,-179.07"/>
<polygon fill="#4caf50" stroke="#4caf50" points="238.69,-182.55 248.94,-179.88 239.26,-175.57 238.69,-182.55"/>
</g>
<!-- 10：二分搜尋 -->
<g id="node5" class="node">
<title>10：二分搜尋</title>
<polygon fill="#4caf50" stroke="none" points="365.05,-144 257.2,-144 257.2,-108 365.05,-108 365.05,-144"/>
<text xml:space="preserve" text-anchor="middle" x="311.13" y="-122.83" font-family="Arial" font-size="14.00" fill="white">10：二分搜尋</text>
</g>
<!--  6：List &#45;&gt;10：二分搜尋 -->
<g id="edge5" class="edge">
<title> 6：List &#45;&gt;10：二分搜尋:w</title>
<path fill="none" stroke="#4caf50" d="M214.9,-134.99C224.22,-131.35 234.59,-128.21 244.98,-126.8"/>
<polygon fill="#4caf50" stroke="#4caf50" points="244.96,-130.31 254.69,-126.11 244.47,-123.32 244.96,-130.31"/>
</g>
<!-- 堆疊 Stack -->
<g id="node10" class="node">
<title>堆疊 Stack</title>
<polygon fill="#4caf50" stroke="none" points="500.65,-298 412.3,-298 412.3,-262 500.65,-262 500.65,-298"/>
<text xml:space="preserve" text-anchor="middle" x="456.48" y="-276.82" font-family="Arial" font-size="14.00" fill="white">堆疊 Stack</text>
</g>
<!--  6：List &#45;&gt;堆疊 Stack -->
<g id="edge12" class="edge">
<title> 6：List &#45;&gt;堆疊 Stack</title>
<path fill="none" stroke="#4caf50" d="M191.03,-171.32C203.45,-189.53 224.92,-216.88 250.45,-232 296.65,-259.36 357.33,-271.12 400.66,-276.18"/>
<polygon fill="#4caf50" stroke="#4caf50" points="400.02,-279.63 410.33,-277.22 400.76,-272.67 400.02,-279.63"/>
</g>
<!-- 排序 Sorting -->
<g id="node11" class="node">
<title>排序 Sorting</title>
<polygon fill="#4caf50" stroke="none" points="505.15,-244 407.8,-244 407.8,-208 505.15,-208 505.15,-244"/>
<text xml:space="preserve" text-anchor="middle" x="456.48" y="-222.82" font-family="Arial" font-size="14.00" fill="white">排序 Sorting</text>
</g>
<!--  6：List &#45;&gt;排序 Sorting -->
<g id="edge13" class="edge">
<title> 6：List &#45;&gt;排序 Sorting</title>
<path fill="none" stroke="#4caf50" d="M197.58,-171.37C210.94,-183.72 230.26,-199.13 250.45,-207 297.03,-225.15 353.91,-229.14 395.93,-229.02"/>
<polygon fill="#4caf50" stroke="#4caf50" points="395.89,-232.53 405.85,-228.91 395.81,-225.53 395.89,-232.53"/>
</g>
<!-- 遞迴 Recursion -->
<g id="node6" class="node">
<title>遞迴 Recursion</title>
<polygon fill="#4caf50" stroke="none" points="368.8,-90 253.45,-90 253.45,-54 368.8,-54 368.8,-90"/>
<text xml:space="preserve" text-anchor="middle" x="311.13" y="-68.83" font-family="Arial" font-size="14.00" fill="white">遞迴 Recursion</text>
</g>
<!-- 7：函式&#45;&gt;遞迴 Recursion -->
<g id="edge6" class="edge">
<title>7：函式&#45;&gt;遞迴 Recursion:w</title>
<path fill="none" stroke="#4caf50" d="M214.19,-80.54C222.58,-77.17 231.83,-74.27 241.13,-72.88"/>
<polygon fill="#4caf50" stroke="#4caf50" points="241.24,-76.38 250.94,-72.12 240.7,-69.41 241.24,-76.38"/>
</g>
<!-- ip -->
<g id="node7" class="node">
<title>ip</title>
<polygon fill="#4caf50" stroke="none" points="365.05,-36 257.2,-36 257.2,0 365.05,0 365.05,-36"/>
<text xml:space="preserve" text-anchor="start" x="268" y="-15.82" font-family="monospace" font-size="14.00" fill="white">import </text>
<text xml:space="preserve" text-anchor="start" x="325.75" y="-15.82" font-family="Arial" font-size="14.00" fill="white">模組</text>
</g>
<!-- 7：函式&#45;&gt;ip -->
<g id="edge7" class="edge">
<title>7：函式&#45;&gt;ip:w</title>
<path fill="none" stroke="#4caf50" d="M187.13,-80.62C197.12,-59.43 216.75,-26.58 244.97,-19.41"/>
<polygon fill="#4caf50" stroke="#4caf50" points="245.21,-22.91 254.7,-18.19 244.34,-15.96 245.21,-22.91"/>
</g>
<!-- 時間複雜度 -->
<g id="node9" class="node">
<title>時間複雜度</title>
<polygon fill="#4caf50" stroke="none" points="502.9,-144 410.05,-144 410.05,-108 502.9,-108 502.9,-144"/>
<text xml:space="preserve" text-anchor="middle" x="456.48" y="-122.83" font-family="Arial" font-size="14.00" fill="white">時間複雜度</text>
</g>
<!-- 多維資料與迴圈&#45;&gt;時間複雜度 -->
<g id="edge10" class="edge">
<title>多維資料與迴圈:e&#45;&gt;時間複雜度</title>
<path fill="none" stroke="#4caf50" d="M371.8,-180C394.56,-180 416.03,-165.72 431.53,-151.85"/>
<polygon fill="#4caf50" stroke="#4caf50" points="433.56,-154.75 438.4,-145.32 428.74,-149.68 433.56,-154.75"/>
</g>
<!-- 10：二分搜尋&#45;&gt;時間複雜度 -->
<g id="edge11" class="edge">
<title>10：二分搜尋&#45;&gt;時間複雜度</title>
<path fill="none" stroke="#4caf50" d="M365.5,-126C376.14,-126 387.36,-126 398.12,-126"/>
<polygon fill="#4caf50" stroke="#4caf50" points="398.07,-129.5 408.07,-126 398.07,-122.5 398.07,-129.5"/>
</g>
<!-- 遞迴 Recursion&#45;&gt;時間複雜度 -->
<g id="edge9" class="edge">
<title>遞迴 Recursion:e&#45;&gt;時間複雜度</title>
<path fill="none" stroke="#4caf50" d="M369.8,-72C392.94,-72 414.94,-86.28 430.84,-100.15"/>
<polygon fill="#4caf50" stroke="#4caf50" points="428.2,-102.47 437.91,-106.69 432.95,-97.33 428.2,-102.47"/>
</g>
<!-- 與 AI 協作 -->
<g id="node8" class="node">
<title>與 AI 協作</title>
<polygon fill="#4caf50" stroke="none" points="499.15,-36 413.8,-36 413.8,0 499.15,0 499.15,-36"/>
<text xml:space="preserve" text-anchor="middle" x="456.48" y="-14.82" font-family="Arial" font-size="14.00" fill="white">與 AI 協作</text>
</g>
<!-- ip&#45;&gt;與 AI 協作 -->
<g id="edge8" class="edge">
<title>ip&#45;&gt;與 AI 協作</title>
<path fill="none" stroke="#4caf50" d="M365.5,-18C377.57,-18 390.37,-18 402.43,-18"/>
<polygon fill="#4caf50" stroke="#4caf50" points="402.19,-21.5 412.19,-18 402.19,-14.5 402.19,-21.5"/>
</g>
</g>
</svg>
