<?xml version="1.0" encoding="UTF-8" standalone="no"?>
<!DOCTYPE svg PUBLIC "-//W3C//DTD SVG 1.1//EN"
 "http://www.w3.org/Graphics/SVG/1.1/DTD/svg11.dtd">
<!-- Generated by graphviz version 14.0.2 (20251019.1705)
 -->
<!-- Pages: 1 -->
<svg width="721pt" height="306pt"
 viewBox="0.00 0.00 721.00 306.00" xmlns="http://www.w3.org/2000/svg" xmlns:xlink="http://www.w3.org/1999/xlink">
<g id="graph0" class="graph" transform="scale(1 1) rotate(0) translate(4 302)">
<polygon fill="white" stroke="none" points="-4,4 -4,-302 717,-302 717,4 -4,4"/>
<!-- 單元 1 -->
<g id="node1" class="node">
<title>單元 1</title>
<polygon fill="#4caf50" stroke="none" points="55.75,-144 0,-144 0,-108 55.75,-108 55.75,-144"/>
<text xml:space="preserve" text-anchor="middle" x="27.88" y="-122.83" font-family="Arial" font-size="14.00" fill="white">單元 1</text>
</g>
<!-- 單元 2 -->
<g id="node2" class="node">
<title>單元 2</title>
<polygon fill="#4caf50" stroke="none" points="147.5,-144 91.75,-144 91.75,-108 147.5,-108 147.5,-144"/>
<text xml:space="preserve" text-anchor="middle" x="119.62" y="-122.83" font-family="Arial" font-size="14.00" fill="white">單元 2</text>
</g>
<!-- 單元 1&#45;&gt;單元 2 -->
<g id="edge1" class="edge">
<title>單元 1&#45;&gt;單元 2</title>
<path fill="none" stroke="#4caf50" d="M55.8,-126C63.45,-126 71.94,-126 80.13,-126"/>
<polygon fill="#4caf50" stroke="#4caf50" points="79.89,-129.5 89.89,-126 79.89,-122.5 79.89,-129.5"/>
</g>
<!-- 單元 3 -->
<g id="node3" class="node">
<title>單元 3</title>
<polygon fill="#4caf50" stroke="none" points="239.25,-144 183.5,-144 183.5,-108 239.25,-108 239.25,-144"/>
<text xml:space="preserve" text-anchor="middle" x="211.38" y="-122.83" font-family="Arial" font-size="14.00" fill="white">單元 3</text>
</g>
<!-- 單元 2&#45;&gt;單元 3 -->
<g id="edge2" class="edge">
<title>單元 2&#45;&gt;單元 3</title>
<path fill="none" stroke="#4caf50" d="M147.55,-126C155.2,-126 163.69,-126 171.88,-126"/>
<polygon fill="#4caf50" stroke="#4caf50" points="171.64,-129.5 181.64,-126 171.64,-122.5 171.64,-129.5"/>
</g>
<!-- 單元 4 -->
<g id="node4" class="node">
<title>單元 4</title>
<polygon fill="#4caf50" stroke="none" points="331,-144 275.25,-144 275.25,-108 331,-108 331,-144"/>
<text xml:space="preserve" text-anchor="middle" x="303.12" y="-122.83" font-family="Arial" font-size="14.00" fill="white">單元 4</text>
</g>
<!-- 單元 3&#45;&gt;單元 4 -->
<g id="edge3" class="edge">
<title>單元 3&#45;&gt;單元 4</title>
<path fill="none" stroke="#4caf50" d="M239.3,-126C246.95,-126 255.44,-126 263.63,-126"/>
<polygon fill="#4caf50" stroke="#4caf50" points="263.39,-129.5 273.39,-126 263.39,-122.5 263.39,-129.5"/>
</g>
<!-- 單元 5 -->
<g id="node5" class="node">
<title>單元 5</title>
<polygon fill="#4caf50" stroke="none" points="422.75,-144 367,-144 367,-108 422.75,-108 422.75,-144"/>
<text xml:space="preserve" text-anchor="middle" x="394.88" y="-122.83" font-family="Arial" font-size="14.00" fill="white">單元 5</text>
</g>
<!-- 單元 4&#45;&gt;單元 5 -->
<g id="edge4" class="edge">
<title>單元 4&#45;&gt;單元 5</title>
<path fill="none" stroke="#4caf50" d="M331.05,-126C338.7,-126 347.19,-126 355.38,-126"/>
<polygon fill="#4caf50" stroke="#4caf50" points="355.14,-129.5 365.14,-126 355.14,-122.5 355.14,-129.5"/>
</g>
<!-- 單元 6 -->
<g id="node6" class="node">
<title>單元 6</title>
<polygon fill="#4caf50" stroke="none" points="514.5,-171 458.75,-171 458.75,-135 514.5,-135 514.5,-171"/>
<text xml:space="preserve" text-anchor="middle" x="486.62" y="-149.82" font-family="Arial" font-size="14.00" fill="white">單元 6</text>
</g>
<!-- 單元 5&#45;&gt;單元 6 -->
<g id="edge5" class="edge">
<title>單元 5&#45;&gt;單元 6</title>
<path fill="none" stroke="#4caf50" d="M422.8,-134.1C430.54,-136.43 439.13,-139.01 447.41,-141.5"/>
<polygon fill="#4caf50" stroke="#4caf50" points="446.37,-144.85 456.96,-144.38 448.39,-138.14 446.37,-144.85"/>
</g>
<!-- 單元 7 -->
<g id="node7" class="node">
<title>單元 7</title>
<polygon fill="#4caf50" stroke="none" points="514.5,-117 458.75,-117 458.75,-81 514.5,-81 514.5,-117"/>
<text xml:space="preserve" text-anchor="middle" x="486.62" y="-95.83" font-family="Arial" font-size="14.00" fill="white">單元 7</text>
</g>
<!-- 單元 5&#45;&gt;單元 7 -->
<g id="edge6" class="edge">
<title>單元 5&#45;&gt;單元 7</title>
<path fill="none" stroke="#4caf50" d="M422.8,-117.9C430.54,-115.57 439.13,-112.99 447.41,-110.5"/>
<polygon fill="#4caf50" stroke="#4caf50" points="448.39,-113.86 456.96,-107.62 446.37,-107.15 448.39,-113.86"/>
</g>
<!-- 單元 6&#45;&gt;單元 7 -->
<g id="edge7" class="edge">
<title>單元 6&#45;&gt;單元 7</title>
<path fill="none" stroke="#4caf50" d="M486.62,-134.51C486.62,-132.52 486.62,-130.53 486.62,-128.54"/>
<polygon fill="#4caf50" stroke="#4caf50" points="490.13,-128.65 486.63,-118.65 483.13,-128.65 490.13,-128.65"/>
</g>
<!-- 單元 9  -->
<g id="node8" class="node">
<title>單元 9 </title>
<polygon fill="#4caf50" stroke="none" points="611.88,-198 552.38,-198 552.38,-162 611.88,-162 611.88,-198"/>
<text xml:space="preserve" text-anchor="middle" x="582.12" y="-176.82" font-family="Arial" font-size="14.00" fill="white">單元 9 </text>
</g>
<!-- 單元 6&#45;&gt;單元 9  -->
<g id="edge8" class="edge">
<title>單元 6&#45;&gt;單元 9 :w</title>
<path fill="none" stroke="#4caf50" d="M514.83,-170.1C522.52,-173.87 531.22,-177.23 540.1,-178.9"/>
<polygon fill="#4caf50" stroke="#4caf50" points="539.58,-182.36 549.87,-179.85 540.26,-175.4 539.58,-182.36"/>
</g>
<!-- 單元 10 -->
<g id="node9" class="node">
<title>單元 10</title>
<polygon fill="#4caf50" stroke="none" points="613.75,-144 550.5,-144 550.5,-108 613.75,-108 613.75,-144"/>
<text xml:space="preserve" text-anchor="middle" x="582.12" y="-122.83" font-family="Arial" font-size="14.00" fill="white">單元 10</text>
</g>
<!-- 單元 6&#45;&gt;單元 10 -->
<g id="edge9" class="edge">
<title>單元 6&#45;&gt;單元 10:w</title>
<path fill="none" stroke="#4caf50" d="M514.73,-135.75C522.19,-132.07 530.59,-128.79 539.18,-127.14"/>
<polygon fill="#4caf50" stroke="#4caf50" points="539.39,-130.63 548.99,-126.15 538.69,-123.67 539.39,-130.63"/>
</g>
<!-- 單元 13 -->
<g id="node14" class="node">
<title>單元 13</title>
<polygon fill="#4caf50" stroke="none" points="713,-298 649.75,-298 649.75,-262 713,-262 713,-298"/>
<text xml:space="preserve" text-anchor="middle" x="681.38" y="-276.82" font-family="Arial" font-size="14.00" fill="white">單元 13</text>
</g>
<!-- 單元 6&#45;&gt;單元 13 -->
<g id="edge16" class="edge">
<title>單元 6&#45;&gt;單元 13</title>
<path fill="none" stroke="#4caf50" d="M498.79,-171.23C510.01,-188.22 528.73,-213.23 550.5,-229 576.93,-248.15 611.52,-261.27 638.36,-269.4"/>
<polygon fill="#4caf50" stroke="#4caf50" points="637.31,-272.74 647.89,-272.16 639.26,-266.02 637.31,-272.74"/>
</g>
<!-- 單元 12 -->
<g id="node15" class="node">
<title>單元 12</title>
<polygon fill="#4caf50" stroke="none" points="713,-244 649.75,-244 649.75,-208 713,-208 713,-244"/>
<text xml:space="preserve" text-anchor="middle" x="681.38" y="-222.82" font-family="Arial" font-size="14.00" fill="white">單元 12</text>
</g>
<!-- 單元 6&#45;&gt;單元 12 -->
<g id="edge17" class="edge">
<title>單元 6&#45;&gt;單元 12</title>
<path fill="none" stroke="#4caf50" d="M503.61,-171.33C515.33,-183.5 532.3,-198.71 550.5,-207 577.92,-219.49 611.67,-224.15 637.89,-225.73"/>
<polygon fill="#4caf50" stroke="#4caf50" points="637.7,-229.23 647.85,-226.19 638.02,-222.23 637.7,-229.23"/>
</g>
<!-- 單元 8  -->
<g id="node10" class="node">
<title>單元 8 </title>
<polygon fill="#4caf50" stroke="none" points="611.88,-90 552.38,-90 552.38,-54 611.88,-54 611.88,-90"/>
<text xml:space="preserve" text-anchor="middle" x="582.12" y="-68.83" font-family="Arial" font-size="14.00" fill="white">單元 8 </text>
</g>
<!-- 單元 7&#45;&gt;單元 8  -->
<g id="edge10" class="edge">
<title>單元 7&#45;&gt;單元 8 </title>
<path fill="none" stroke="#4caf50" d="M514.92,-91.12C523.11,-88.75 532.26,-86.11 541.09,-83.56"/>
<polygon fill="#4caf50" stroke="#4caf50" points="541.91,-86.97 550.55,-80.83 539.97,-80.24 541.91,-86.97"/>
</g>
<!-- 單元 14 -->
<g id="node11" class="node">
<title>單元 14</title>
<polygon fill="#4caf50" stroke="none" points="613.75,-36 550.5,-36 550.5,0 613.75,0 613.75,-36"/>
<text xml:space="preserve" text-anchor="middle" x="582.12" y="-14.82" font-family="Arial" font-size="14.00" fill="white">單元 14</text>
</g>
<!-- 單元 7&#45;&gt;單元 14 -->
<g id="edge11" class="edge">
<title>單元 7&#45;&gt;單元 14:w</title>
<path fill="none" stroke="#4caf50" d="M492.89,-80.62C499.98,-59.71 514.65,-27.45 539.31,-19.71"/>
<polygon fill="#4caf50" stroke="#4caf50" points="539.65,-23.2 549,-18.23 538.59,-16.28 539.65,-23.2"/>
</g>
<!-- 單元 11 -->
<g id="node13" class="node">
<title>單元 11</title>
<polygon fill="#4caf50" stroke="none" points="712.62,-144 650.12,-144 650.12,-108 712.62,-108 712.62,-144"/>
<text xml:space="preserve" text-anchor="middle" x="681.38" y="-122.83" font-family="Arial" font-size="14.00" fill="white">單元 11</text>
</g>
<!-- 單元 9 &#45;&gt;單元 11 -->
<g id="edge14" class="edge">
<title>單元 9 :e&#45;&gt;單元 11</title>
<path fill="none" stroke="#4caf50" d="M612.88,-180C632.08,-180 648.95,-166.51 661.02,-153.01"/>
<polygon fill="#4caf50" stroke="#4caf50" points="663.6,-155.39 667.28,-145.45 658.21,-150.93 663.6,-155.39"/>
</g>
<!-- 單元 10&#45;&gt;單元 11 -->
<g id="edge15" class="edge">
<title>單元 10&#45;&gt;單元 11</title>
<path fill="none" stroke="#4caf50" d="M614.16,-126C621.87,-126 630.26,-126 638.4,-126"/>
<polygon fill="#4caf50" stroke="#4caf50" points="638.12,-129.5 648.12,-126 638.12,-122.5 638.12,-129.5"/>
</g>
<!-- 單元 8 &#45;&gt;單元 11 -->
<g id="edge13" class="edge">
<title>單元 8 :e&#45;&gt;單元 11</title>
<path fill="none" stroke="#4caf50" d="M612.88,-72C632.08,-72 648.95,-85.49 661.02,-98.99"/>
<polygon fill="#4caf50" stroke="#4caf50" points="658.21,-101.07 667.28,-106.55 663.6,-96.61 658.21,-101.07"/>
</g>
<!-- 單元 15 -->
<g id="node12" class="node">
<title>單元 15</title>
<polygon fill="#4caf50" stroke="none" points="713,-36 649.75,-36 649.75,0 713,0 713,-36"/>
<text xml:space="preserve" text-anchor="middle" x="681.38" y="-14.82" font-family="Arial" font-size="14.00" fill="white">單元 15</text>
</g>
<!-- 單元 14&#45;&gt;單元 15 -->
<g id="edge12" class="edge">
<title>單元 14&#45;&gt;單元 15</title>
<path fill="none" stroke="#4caf50" d="M614.16,-18C621.71,-18 629.9,-18 637.88,-18"/>
<polygon fill="#4caf50" stroke="#4caf50" points="637.78,-21.5 647.78,-18 637.78,-14.5 637.78,-21.5"/>
</g>
</g>
</svg>
