<?xml version="1.0" encoding="UTF-8" standalone="no"?>
<!DOCTYPE svg PUBLIC "-//W3C//DTD SVG 1.1//EN"
 "http://www.w3.org/Graphics/SVG/1.1/DTD/svg11.dtd">
<!-- Generated by graphviz version 14.0.2 (20251019.1705)
 -->
<!-- Pages: 1 -->
<svg width="564pt" height="306pt"
 viewBox="0.00 0.00 564.00 306.00" xmlns="http://www.w3.org/2000/svg" xmlns:xlink="http://www.w3.org/1999/xlink">
<g id="graph0" class="graph" transform="scale(1 1) rotate(0) translate(4 302)">
<polygon fill="white" stroke="none" points="-4,4 -4,-302 560.15,-302 560.15,4 -4,4"/>
<g id="clust1" class="cluster">
<title>cluster_basic</title>
<path fill="none" stroke="blue" stroke-dasharray="5,2" d="M20,-73C20,-73 210.45,-73 210.45,-73 216.45,-73 222.45,-79 222.45,-85 222.45,-85 222.45,-167 222.45,-167 222.45,-173 216.45,-179 210.45,-179 210.45,-179 20,-179 20,-179 14,-179 8,-173 8,-167 8,-167 8,-85 8,-85 8,-79 14,-73 20,-73"/>
</g>
<!-- 單元 1 → 5 -->
<g id="node1" class="node">
<title>單元 1 → 5</title>
<polygon fill="#4caf50" stroke="none" points="106.6,-144 16,-144 16,-108 106.6,-108 106.6,-144"/>
<text xml:space="preserve" text-anchor="middle" x="61.3" y="-122.83" font-family="Arial" font-size="14.00" fill="white">單元 1 → 5</text>
</g>
<!--  6：List  -->
<g id="node2" class="node">
<title> 6：List </title>
<polygon fill="#4caf50" stroke="none" points="214.45,-171 142.6,-171 142.6,-135 214.45,-135 214.45,-171"/>
<text xml:space="preserve" text-anchor="middle" x="178.52" y="-149.82" font-family="Arial" font-size="14.00" fill="white"> 6：List </text>
</g>
<!-- 單元 1 → 5&#45;&gt; 6：List  -->
<g id="edge1" class="edge">
<title>單元 1 → 5&#45;&gt; 6：List </title>
<path fill="none" stroke="#4caf50" d="M106.85,-136.44C114.86,-138.31 123.22,-140.27 131.27,-142.16"/>
<polygon fill="#4caf50" stroke="#4caf50" points="130.37,-145.55 140.91,-144.42 131.97,-138.73 130.37,-145.55"/>
</g>
<!-- 7：函式 -->
<g id="node3" class="node">
<title>7：函式</title>
<polygon fill="#4caf50" stroke="none" points="214.45,-117 142.6,-117 142.6,-81 214.45,-81 214.45,-117"/>
<text xml:space="preserve" text-anchor="middle" x="178.52" y="-95.83" font-family="Arial" font-size="14.00" fill="white">7：函式</text>
</g>
<!-- 單元 1 → 5&#45;&gt;7：函式 -->
<g id="edge2" class="edge">
<title>單元 1 → 5&#45;&gt;7：函式</title>
<path fill="none" stroke="#4caf50" d="M106.85,-115.56C114.86,-113.69 123.22,-111.73 131.27,-109.84"/>
<polygon fill="#4caf50" stroke="#4caf50" points="131.97,-113.27 140.91,-107.58 130.37,-106.45 131.97,-113.27"/>
</g>
<!--  6：List &#45;&gt;7：函式 -->
<g id="edge3" class="edge">
<title> 6：List &#45;&gt;7：函式</title>
<path fill="none" stroke="#4caf50" d="M178.52,-134.51C178.52,-132.52 178.52,-130.53 178.52,-128.54"/>
<polygon fill="#4caf50" stroke="#4caf50" points="182.03,-128.65 178.53,-118.65 175.03,-128.65 182.03,-128.65"/>
</g>
<!-- 9：多維資料與迴圈 -->
<g id="node4" class="node">
<title>9：多維資料與迴圈</title>
<polygon fill="#4caf50" stroke="none" points="393.55,-198 250.45,-198 250.45,-162 393.55,-162 393.55,-198"/>
<text xml:space="preserve" text-anchor="middle" x="322" y="-176.82" font-family="Arial" font-size="14.00" fill="white">9：多維資料與迴圈</text>
</g>
<!--  6：List &#45;&gt;9：多維資料與迴圈 -->
<g id="edge4" class="edge">
<title> 6：List &#45;&gt;9：多維資料與迴圈:w</title>
<path fill="none" stroke="#4caf50" d="M213.19,-171.46C221.26,-174.79 230.15,-177.66 239.11,-179.07"/>
<polygon fill="#4caf50" stroke="#4caf50" points="238.69,-182.55 248.94,-179.88 239.26,-175.57 238.69,-182.55"/>
</g>
<!-- 10：二分搜尋 -->
<g id="node5" class="node">
<title>10：二分搜尋</title>
<polygon fill="#4caf50" stroke="none" points="375.93,-144 268.07,-144 268.07,-108 375.93,-108 375.93,-144"/>
<text xml:space="preserve" text-anchor="middle" x="322" y="-122.83" font-family="Arial" font-size="14.00" fill="white">10：二分搜尋</text>
</g>
<!--  6：List &#45;&gt;10：二分搜尋 -->
<g id="edge5" class="edge">
<title> 6：List &#45;&gt;10：二分搜尋:w</title>
<path fill="none" stroke="#4caf50" d="M214.55,-136.98C226.96,-132.39 241.4,-128.21 255.69,-126.65"/>
<polygon fill="#4caf50" stroke="#4caf50" points="255.78,-130.15 265.56,-126.09 255.38,-123.16 255.78,-130.15"/>
</g>
<!-- 13：堆疊 Stack -->
<g id="node10" class="node">
<title>13：堆疊 Stack</title>
<polygon fill="#4caf50" stroke="none" points="551.65,-298 434.05,-298 434.05,-262 551.65,-262 551.65,-298"/>
<text xml:space="preserve" text-anchor="middle" x="492.85" y="-276.82" font-family="Arial" font-size="14.00" fill="white">13：堆疊 Stack</text>
</g>
<!--  6：List &#45;&gt;13：堆疊 Stack -->
<g id="edge12" class="edge">
<title> 6：List &#45;&gt;13：堆疊 Stack</title>
<path fill="none" stroke="#4caf50" d="M190.63,-171.41C202.87,-190.01 224.34,-218.09 250.45,-233 303.08,-263.05 371.56,-274.23 422.13,-278.22"/>
<polygon fill="#4caf50" stroke="#4caf50" points="421.88,-281.71 432.1,-278.92 422.37,-274.73 421.88,-281.71"/>
</g>
<!-- 12：排序 Sorting -->
<g id="node11" class="node">
<title>12：排序 Sorting</title>
<polygon fill="#4caf50" stroke="none" points="556.15,-244 429.55,-244 429.55,-208 556.15,-208 556.15,-244"/>
<text xml:space="preserve" text-anchor="middle" x="492.85" y="-222.82" font-family="Arial" font-size="14.00" fill="white">12：排序 Sorting</text>
</g>
<!--  6：List &#45;&gt;12：排序 Sorting -->
<g id="edge13" class="edge">
<title> 6：List &#45;&gt;12：排序 Sorting</title>
<path fill="none" stroke="#4caf50" d="M197.55,-171.45C210.89,-183.85 230.21,-199.27 250.45,-207 303.9,-227.4 368.74,-231.48 417.76,-230.83"/>
<polygon fill="#4caf50" stroke="#4caf50" points="417.79,-234.33 427.71,-230.62 417.64,-227.33 417.79,-234.33"/>
</g>
<!-- 8：遞迴 Recursion -->
<g id="node6" class="node">
<title>8：遞迴 Recursion</title>
<polygon fill="#4caf50" stroke="none" points="390.55,-90 253.45,-90 253.45,-54 390.55,-54 390.55,-90"/>
<text xml:space="preserve" text-anchor="middle" x="322" y="-68.83" font-family="Arial" font-size="14.00" fill="white">8：遞迴 Recursion</text>
</g>
<!-- 7：函式&#45;&gt;8：遞迴 Recursion -->
<g id="edge6" class="edge">
<title>7：函式&#45;&gt;8：遞迴 Recursion:w</title>
<path fill="none" stroke="#4caf50" d="M214.19,-80.54C222.58,-77.17 231.83,-74.27 241.13,-72.88"/>
<polygon fill="#4caf50" stroke="#4caf50" points="241.24,-76.38 250.94,-72.12 240.7,-69.41 241.24,-76.38"/>
</g>
<!-- ip -->
<g id="node7" class="node">
<title>ip</title>
<polygon fill="#4caf50" stroke="none" points="390.55,-36 253.45,-36 253.45,0 390.55,0 390.55,-36"/>
<text xml:space="preserve" text-anchor="start" x="264.25" y="-15.82" font-family="Arial" font-size="14.00" fill="white">14：</text>
<text xml:space="preserve" text-anchor="start" x="293.5" y="-15.82" font-family="monospace" font-size="14.00" fill="white">import </text>
<text xml:space="preserve" text-anchor="start" x="351.25" y="-15.82" font-family="Arial" font-size="14.00" fill="white">模組</text>
</g>
<!-- 7：函式&#45;&gt;ip -->
<g id="edge7" class="edge">
<title>7：函式&#45;&gt;ip:w</title>
<path fill="none" stroke="#4caf50" d="M186.5,-80.62C195.7,-59.52 213.95,-26.87 241.15,-19.51"/>
<polygon fill="#4caf50" stroke="#4caf50" points="241.5,-22.99 250.95,-18.2 240.57,-16.05 241.5,-22.99"/>
</g>
<!-- 11：時間複雜度 -->
<g id="node9" class="node">
<title>11：時間複雜度</title>
<polygon fill="#4caf50" stroke="none" points="553.52,-144 432.17,-144 432.17,-108 553.52,-108 553.52,-144"/>
<text xml:space="preserve" text-anchor="middle" x="492.85" y="-122.83" font-family="Arial" font-size="14.00" fill="white">11：時間複雜度</text>
</g>
<!-- 9：多維資料與迴圈&#45;&gt;11：時間複雜度 -->
<g id="edge10" class="edge">
<title>9：多維資料與迴圈:e&#45;&gt;11：時間複雜度</title>
<path fill="none" stroke="#4caf50" d="M393.55,-180C419.54,-180 445.14,-165.33 463.7,-151.28"/>
<polygon fill="#4caf50" stroke="#4caf50" points="465.65,-154.2 471.29,-145.23 461.29,-148.72 465.65,-154.2"/>
</g>
<!-- 10：二分搜尋&#45;&gt;11：時間複雜度 -->
<g id="edge11" class="edge">
<title>10：二分搜尋&#45;&gt;11：時間複雜度</title>
<path fill="none" stroke="#4caf50" d="M375.96,-126C390.07,-126 405.54,-126 420.45,-126"/>
<polygon fill="#4caf50" stroke="#4caf50" points="420.2,-129.5 430.2,-126 420.2,-122.5 420.2,-129.5"/>
</g>
<!-- 8：遞迴 Recursion&#45;&gt;11：時間複雜度 -->
<g id="edge9" class="edge">
<title>8：遞迴 Recursion:e&#45;&gt;11：時間複雜度</title>
<path fill="none" stroke="#4caf50" d="M391.55,-72C417.94,-72 444.08,-86.67 463.05,-100.72"/>
<polygon fill="#4caf50" stroke="#4caf50" points="460.78,-103.4 470.82,-106.79 465.09,-97.88 460.78,-103.4"/>
</g>
<!-- 15：與 AI 協作 -->
<g id="node8" class="node">
<title>15：與 AI 協作</title>
<polygon fill="#4caf50" stroke="none" points="550.15,-36 435.55,-36 435.55,0 550.15,0 550.15,-36"/>
<text xml:space="preserve" text-anchor="middle" x="492.85" y="-14.82" font-family="Arial" font-size="14.00" fill="white">15：與 AI 協作</text>
</g>
<!-- ip&#45;&gt;15：與 AI 協作 -->
<g id="edge8" class="edge">
<title>ip&#45;&gt;15：與 AI 協作</title>
<path fill="none" stroke="#4caf50" d="M390.7,-18C401.67,-18 413.02,-18 423.99,-18"/>
<polygon fill="#4caf50" stroke="#4caf50" points="423.73,-21.5 433.73,-18 423.73,-14.5 423.73,-21.5"/>
</g>
</g>
</svg>
