<?xml version="1.0" encoding="UTF-8" standalone="no"?>
<!DOCTYPE svg PUBLIC "-//W3C//DTD SVG 1.1//EN"
 "http://www.w3.org/Graphics/SVG/1.1/DTD/svg11.dtd">
<!-- Generated by graphviz version 14.0.2 (20251019.1705)
 -->
<!-- Pages: 1 -->
<svg width="692pt" height="314pt"
 viewBox="0.00 0.00 692.00 314.00" xmlns="http://www.w3.org/2000/svg" xmlns:xlink="http://www.w3.org/1999/xlink">
<g id="graph0" class="graph" transform="scale(1 1) rotate(0) translate(4 310)">
<polygon fill="white" stroke="none" points="-4,4 -4,-310 688,-310 688,4 -4,4"/>
<!-- 單元 1 -->
<g id="node1" class="node">
<title>單元 1</title>
<path fill="#67ad5c" stroke="none" d="M42,-144C42,-144 12,-144 12,-144 6,-144 0,-138 0,-132 0,-132 0,-120 0,-120 0,-114 6,-108 12,-108 12,-108 42,-108 42,-108 48,-108 54,-114 54,-120 54,-120 54,-132 54,-132 54,-138 48,-144 42,-144"/>
<text xml:space="preserve" text-anchor="middle" x="27" y="-122.83" font-family="Arial" font-size="14.00" fill="white">單元 1</text>
</g>
<!-- 單元 2 -->
<g id="node2" class="node">
<title>單元 2</title>
<path fill="#67ad5c" stroke="none" d="M132,-144C132,-144 102,-144 102,-144 96,-144 90,-138 90,-132 90,-132 90,-120 90,-120 90,-114 96,-108 102,-108 102,-108 132,-108 132,-108 138,-108 144,-114 144,-120 144,-120 144,-132 144,-132 144,-138 138,-144 132,-144"/>
<text xml:space="preserve" text-anchor="middle" x="117" y="-122.83" font-family="Arial" font-size="14.00" fill="white">單元 2</text>
</g>
<!-- 單元 1&#45;&gt;單元 2 -->
<g id="edge1" class="edge">
<title>單元 1&#45;&gt;單元 2</title>
<path fill="none" stroke="green" d="M54.4,-126C61.89,-126 70.18,-126 78.2,-126"/>
<polygon fill="green" stroke="green" points="78.1,-129.5 88.1,-126 78.1,-122.5 78.1,-129.5"/>
</g>
<!-- 單元 3 -->
<g id="node3" class="node">
<title>單元 3</title>
<path fill="#67ad5c" stroke="none" d="M222,-144C222,-144 192,-144 192,-144 186,-144 180,-138 180,-132 180,-132 180,-120 180,-120 180,-114 186,-108 192,-108 192,-108 222,-108 222,-108 228,-108 234,-114 234,-120 234,-120 234,-132 234,-132 234,-138 228,-144 222,-144"/>
<text xml:space="preserve" text-anchor="middle" x="207" y="-122.83" font-family="Arial" font-size="14.00" fill="white">單元 3</text>
</g>
<!-- 單元 2&#45;&gt;單元 3 -->
<g id="edge2" class="edge">
<title>單元 2&#45;&gt;單元 3</title>
<path fill="none" stroke="green" d="M144.4,-126C151.89,-126 160.18,-126 168.2,-126"/>
<polygon fill="green" stroke="green" points="168.1,-129.5 178.1,-126 168.1,-122.5 168.1,-129.5"/>
</g>
<!-- 單元 4 -->
<g id="node4" class="node">
<title>單元 4</title>
<path fill="#67ad5c" stroke="none" d="M312,-144C312,-144 282,-144 282,-144 276,-144 270,-138 270,-132 270,-132 270,-120 270,-120 270,-114 276,-108 282,-108 282,-108 312,-108 312,-108 318,-108 324,-114 324,-120 324,-120 324,-132 324,-132 324,-138 318,-144 312,-144"/>
<text xml:space="preserve" text-anchor="middle" x="297" y="-122.83" font-family="Arial" font-size="14.00" fill="white">單元 4</text>
</g>
<!-- 單元 3&#45;&gt;單元 4 -->
<g id="edge3" class="edge">
<title>單元 3&#45;&gt;單元 4</title>
<path fill="none" stroke="green" d="M234.4,-126C241.89,-126 250.18,-126 258.2,-126"/>
<polygon fill="green" stroke="green" points="258.1,-129.5 268.1,-126 258.1,-122.5 258.1,-129.5"/>
</g>
<!-- 單元 5 -->
<g id="node5" class="node">
<title>單元 5</title>
<path fill="#67ad5c" stroke="none" d="M402,-144C402,-144 372,-144 372,-144 366,-144 360,-138 360,-132 360,-132 360,-120 360,-120 360,-114 366,-108 372,-108 372,-108 402,-108 402,-108 408,-108 414,-114 414,-120 414,-120 414,-132 414,-132 414,-138 408,-144 402,-144"/>
<text xml:space="preserve" text-anchor="middle" x="387" y="-122.83" font-family="Arial" font-size="14.00" fill="white">單元 5</text>
</g>
<!-- 單元 4&#45;&gt;單元 5 -->
<g id="edge4" class="edge">
<title>單元 4&#45;&gt;單元 5</title>
<path fill="none" stroke="green" d="M324.4,-126C331.89,-126 340.18,-126 348.2,-126"/>
<polygon fill="green" stroke="green" points="348.1,-129.5 358.1,-126 348.1,-122.5 348.1,-129.5"/>
</g>
<!-- 單元 6 -->
<g id="node6" class="node">
<title>單元 6</title>
<path fill="#67ad5c" stroke="none" d="M492,-171C492,-171 462,-171 462,-171 456,-171 450,-165 450,-159 450,-159 450,-147 450,-147 450,-141 456,-135 462,-135 462,-135 492,-135 492,-135 498,-135 504,-141 504,-147 504,-147 504,-159 504,-159 504,-165 498,-171 492,-171"/>
<text xml:space="preserve" text-anchor="middle" x="477" y="-149.82" font-family="Arial" font-size="14.00" fill="white">單元 6</text>
</g>
<!-- 單元 5&#45;&gt;單元 6 -->
<g id="edge5" class="edge">
<title>單元 5&#45;&gt;單元 6</title>
<path fill="none" stroke="green" d="M414.4,-134.1C422.06,-136.45 430.57,-139.06 438.76,-141.57"/>
<polygon fill="green" stroke="green" points="437.58,-144.87 448.17,-144.46 439.64,-138.18 437.58,-144.87"/>
</g>
<!-- 單元 7 -->
<g id="node7" class="node">
<title>單元 7</title>
<path fill="#67ad5c" stroke="none" d="M492,-117C492,-117 462,-117 462,-117 456,-117 450,-111 450,-105 450,-105 450,-93 450,-93 450,-87 456,-81 462,-81 462,-81 492,-81 492,-81 498,-81 504,-87 504,-93 504,-93 504,-105 504,-105 504,-111 498,-117 492,-117"/>
<text xml:space="preserve" text-anchor="middle" x="477" y="-95.83" font-family="Arial" font-size="14.00" fill="white">單元 7</text>
</g>
<!-- 單元 5&#45;&gt;單元 7 -->
<g id="edge6" class="edge">
<title>單元 5&#45;&gt;單元 7</title>
<path fill="none" stroke="green" d="M414.4,-117.9C422.06,-115.55 430.57,-112.94 438.76,-110.43"/>
<polygon fill="green" stroke="green" points="439.64,-113.82 448.17,-107.54 437.58,-107.13 439.64,-113.82"/>
</g>
<!-- 單元 6&#45;&gt;單元 7 -->
<g id="edge7" class="edge">
<title>單元 6&#45;&gt;單元 7</title>
<path fill="none" stroke="green" d="M477,-134.51C477,-132.52 477,-130.53 477,-128.54"/>
<polygon fill="green" stroke="green" points="480.5,-128.65 477,-118.65 473.5,-128.65 480.5,-128.65"/>
</g>
<!-- 單元 9 -->
<g id="node8" class="node">
<title>單元 9</title>
<path fill="#67ad5c" stroke="none" d="M582,-306C582,-306 552,-306 552,-306 546,-306 540,-300 540,-294 540,-294 540,-282 540,-282 540,-276 546,-270 552,-270 552,-270 582,-270 582,-270 588,-270 594,-276 594,-282 594,-282 594,-294 594,-294 594,-300 588,-306 582,-306"/>
<text xml:space="preserve" text-anchor="middle" x="567" y="-284.82" font-family="Arial" font-size="14.00" fill="white">單元 9</text>
</g>
<!-- 單元 6&#45;&gt;單元 9 -->
<g id="edge8" class="edge">
<title>單元 6&#45;&gt;單元 9</title>
<path fill="none" stroke="green" d="M486.82,-171.42C496.98,-191.89 514.85,-225.77 540.5,-260.74"/>
<polygon fill="green" stroke="green" points="537.48,-262.54 546.28,-268.44 543.08,-258.34 537.48,-262.54"/>
</g>
<!-- 單元 10 -->
<g id="node9" class="node">
<title>單元 10</title>
<path fill="#67ad5c" stroke="none" d="M582,-252C582,-252 552,-252 552,-252 546,-252 540,-246 540,-240 540,-240 540,-228 540,-228 540,-222 546,-216 552,-216 552,-216 582,-216 582,-216 588,-216 594,-222 594,-228 594,-228 594,-240 594,-240 594,-246 588,-252 582,-252"/>
<text xml:space="preserve" text-anchor="middle" x="567" y="-230.82" font-family="Arial" font-size="14.00" fill="white">單元 10</text>
</g>
<!-- 單元 6&#45;&gt;單元 10 -->
<g id="edge9" class="edge">
<title>單元 6&#45;&gt;單元 10</title>
<path fill="none" stroke="green" d="M497.97,-171.38C509.78,-182.25 524.93,-196.2 537.93,-208.17"/>
<polygon fill="green" stroke="green" points="535.27,-210.47 545,-214.67 540.01,-205.32 535.27,-210.47"/>
</g>
<!-- 單元 12 -->
<g id="node14" class="node">
<title>單元 12</title>
<path fill="#67ad5c" stroke="none" d="M582,-198C582,-198 552,-198 552,-198 546,-198 540,-192 540,-186 540,-186 540,-174 540,-174 540,-168 546,-162 552,-162 552,-162 582,-162 582,-162 588,-162 594,-168 594,-174 594,-174 594,-186 594,-186 594,-192 588,-198 582,-198"/>
<text xml:space="preserve" text-anchor="middle" x="567" y="-176.82" font-family="Arial" font-size="14.00" fill="white">單元 12</text>
</g>
<!-- 單元 6&#45;&gt;單元 12 -->
<g id="edge16" class="edge">
<title>單元 6&#45;&gt;單元 12</title>
<path fill="none" stroke="green" d="M504.4,-161.1C512.06,-163.45 520.57,-166.06 528.76,-168.57"/>
<polygon fill="green" stroke="green" points="527.58,-171.87 538.17,-171.46 529.64,-165.18 527.58,-171.87"/>
</g>
<!-- 單元 13 -->
<g id="node15" class="node">
<title>單元 13</title>
<path fill="#67ad5c" stroke="none" d="M582,-144C582,-144 552,-144 552,-144 546,-144 540,-138 540,-132 540,-132 540,-120 540,-120 540,-114 546,-108 552,-108 552,-108 582,-108 582,-108 588,-108 594,-114 594,-120 594,-120 594,-132 594,-132 594,-138 588,-144 582,-144"/>
<text xml:space="preserve" text-anchor="middle" x="567" y="-122.83" font-family="Arial" font-size="14.00" fill="white">單元 13</text>
</g>
<!-- 單元 6&#45;&gt;單元 13 -->
<g id="edge17" class="edge">
<title>單元 6&#45;&gt;單元 13</title>
<path fill="none" stroke="green" d="M504.4,-144.9C512.06,-142.55 520.57,-139.94 528.76,-137.43"/>
<polygon fill="green" stroke="green" points="529.64,-140.82 538.17,-134.54 527.58,-134.13 529.64,-140.82"/>
</g>
<!-- 單元 8 -->
<g id="node10" class="node">
<title>單元 8</title>
<path fill="#67ad5c" stroke="none" d="M582,-90C582,-90 552,-90 552,-90 546,-90 540,-84 540,-78 540,-78 540,-66 540,-66 540,-60 546,-54 552,-54 552,-54 582,-54 582,-54 588,-54 594,-60 594,-66 594,-66 594,-78 594,-78 594,-84 588,-90 582,-90"/>
<text xml:space="preserve" text-anchor="middle" x="567" y="-68.83" font-family="Arial" font-size="14.00" fill="white">單元 8</text>
</g>
<!-- 單元 7&#45;&gt;單元 8 -->
<g id="edge10" class="edge">
<title>單元 7&#45;&gt;單元 8</title>
<path fill="none" stroke="green" d="M504.4,-90.9C512.06,-88.55 520.57,-85.94 528.76,-83.43"/>
<polygon fill="green" stroke="green" points="529.64,-86.82 538.17,-80.54 527.58,-80.13 529.64,-86.82"/>
</g>
<!-- 單元 14 -->
<g id="node11" class="node">
<title>單元 14</title>
<path fill="#67ad5c" stroke="none" d="M582,-36C582,-36 552,-36 552,-36 546,-36 540,-30 540,-24 540,-24 540,-12 540,-12 540,-6 546,0 552,0 552,0 582,0 582,0 588,0 594,-6 594,-12 594,-12 594,-24 594,-24 594,-30 588,-36 582,-36"/>
<text xml:space="preserve" text-anchor="middle" x="567" y="-14.82" font-family="Arial" font-size="14.00" fill="white">單元 14</text>
</g>
<!-- 單元 7&#45;&gt;單元 14 -->
<g id="edge11" class="edge">
<title>單元 7&#45;&gt;單元 14</title>
<path fill="none" stroke="green" d="M497.97,-80.62C509.78,-69.75 524.93,-55.8 537.93,-43.83"/>
<polygon fill="green" stroke="green" points="540.01,-46.68 545,-37.33 535.27,-41.53 540.01,-46.68"/>
</g>
<!-- 單元 11 -->
<g id="node13" class="node">
<title>單元 11</title>
<path fill="#67ad5c" stroke="none" d="M672,-252C672,-252 642,-252 642,-252 636,-252 630,-246 630,-240 630,-240 630,-228 630,-228 630,-222 636,-216 642,-216 642,-216 672,-216 672,-216 678,-216 684,-222 684,-228 684,-228 684,-240 684,-240 684,-246 678,-252 672,-252"/>
<text xml:space="preserve" text-anchor="middle" x="657" y="-230.82" font-family="Arial" font-size="14.00" fill="white">單元 11</text>
</g>
<!-- 單元 9&#45;&gt;單元 11 -->
<g id="edge14" class="edge">
<title>單元 9&#45;&gt;單元 11</title>
<path fill="none" stroke="green" d="M594.4,-271.8C602.41,-266.89 611.34,-261.4 619.87,-256.17"/>
<polygon fill="green" stroke="green" points="621.63,-259.2 628.33,-250.98 617.97,-253.23 621.63,-259.2"/>
</g>
<!-- 單元 10&#45;&gt;單元 11 -->
<g id="edge15" class="edge">
<title>單元 10&#45;&gt;單元 11</title>
<path fill="none" stroke="green" d="M594.4,-234C601.89,-234 610.18,-234 618.2,-234"/>
<polygon fill="green" stroke="green" points="618.1,-237.5 628.1,-234 618.1,-230.5 618.1,-237.5"/>
</g>
<!-- 單元 8&#45;&gt;單元 11 -->
<g id="edge13" class="edge">
<title>單元 8&#45;&gt;單元 11</title>
<path fill="none" stroke="green" d="M587.32,-90.48C589.72,-93.22 592.02,-96.1 594,-99 616.99,-132.71 635.24,-176.31 645.83,-204.71"/>
<polygon fill="green" stroke="green" points="642.54,-205.89 649.25,-214.09 649.12,-203.49 642.54,-205.89"/>
</g>
<!-- 單元 15 -->
<g id="node12" class="node">
<title>單元 15</title>
<path fill="#67ad5c" stroke="none" d="M672,-36C672,-36 642,-36 642,-36 636,-36 630,-30 630,-24 630,-24 630,-12 630,-12 630,-6 636,0 642,0 642,0 672,0 672,0 678,0 684,-6 684,-12 684,-12 684,-24 684,-24 684,-30 678,-36 672,-36"/>
<text xml:space="preserve" text-anchor="middle" x="657" y="-14.82" font-family="Arial" font-size="14.00" fill="white">單元 15</text>
</g>
<!-- 單元 14&#45;&gt;單元 15 -->
<g id="edge12" class="edge">
<title>單元 14&#45;&gt;單元 15</title>
<path fill="none" stroke="green" d="M594.4,-18C601.89,-18 610.18,-18 618.2,-18"/>
<polygon fill="green" stroke="green" points="618.1,-21.5 628.1,-18 618.1,-14.5 618.1,-21.5"/>
</g>
</g>
</svg>
