<?xml version="1.0" encoding="UTF-8" standalone="no"?>
<!DOCTYPE svg PUBLIC "-//W3C//DTD SVG 1.1//EN"
 "http://www.w3.org/Graphics/SVG/1.1/DTD/svg11.dtd">
<!-- Generated by graphviz version 14.0.2 (20251019.1705)
 -->
<!-- Pages: 1 -->
<svg width="527pt" height="306pt"
 viewBox="0.00 0.00 527.00 306.00" xmlns="http://www.w3.org/2000/svg" xmlns:xlink="http://www.w3.org/1999/xlink">
<g id="graph0" class="graph" transform="scale(1 1) rotate(0) translate(4 302)">
<polygon fill="white" stroke="none" points="-4,4 -4,-302 522.65,-302 522.65,4 -4,4"/>
<g id="clust1" class="cluster">
<title>cluster_basic</title>
<path fill="none" stroke="blue" stroke-dasharray="5,2" d="M20,-73C20,-73 210.45,-73 210.45,-73 216.45,-73 222.45,-79 222.45,-85 222.45,-85 222.45,-167 222.45,-167 222.45,-173 216.45,-179 210.45,-179 210.45,-179 20,-179 20,-179 14,-179 8,-173 8,-167 8,-167 8,-85 8,-85 8,-79 14,-73 20,-73"/>
</g>
<!-- 單元 1 → 5 -->
<g id="node1" class="node">
<title>單元 1 → 5</title>
<polygon fill="#4caf50" stroke="none" points="106.6,-144 16,-144 16,-108 106.6,-108 106.6,-144"/>
<text xml:space="preserve" text-anchor="middle" x="61.3" y="-122.83" font-family="Arial" font-size="14.00" fill="white">單元 1 → 5</text>
</g>
<!--  6：List  -->
<g id="node2" class="node">
<title> 6：List </title>
<polygon fill="#4caf50" stroke="none" points="214.45,-171 142.6,-171 142.6,-135 214.45,-135 214.45,-171"/>
<text xml:space="preserve" text-anchor="middle" x="178.52" y="-149.82" font-family="Arial" font-size="14.00" fill="white"> 6：List </text>
</g>
<!-- 單元 1 → 5&#45;&gt; 6：List  -->
<g id="edge1" class="edge">
<title>單元 1 → 5&#45;&gt; 6：List </title>
<path fill="none" stroke="#4caf50" d="M106.85,-136.44C114.86,-138.31 123.22,-140.27 131.27,-142.16"/>
<polygon fill="#4caf50" stroke="#4caf50" points="130.37,-145.55 140.91,-144.42 131.97,-138.73 130.37,-145.55"/>
</g>
<!-- 7：函式 -->
<g id="node3" class="node">
<title>7：函式</title>
<polygon fill="#4caf50" stroke="none" points="214.45,-117 142.6,-117 142.6,-81 214.45,-81 214.45,-117"/>
<text xml:space="preserve" text-anchor="middle" x="178.52" y="-95.83" font-family="Arial" font-size="14.00" fill="white">7：函式</text>
</g>
<!-- 單元 1 → 5&#45;&gt;7：函式 -->
<g id="edge2" class="edge">
<title>單元 1 → 5&#45;&gt;7：函式</title>
<path fill="none" stroke="#4caf50" d="M106.85,-115.56C114.86,-113.69 123.22,-111.73 131.27,-109.84"/>
<polygon fill="#4caf50" stroke="#4caf50" points="131.97,-113.27 140.91,-107.58 130.37,-106.45 131.97,-113.27"/>
</g>
<!--  6：List &#45;&gt;7：函式 -->
<g id="edge3" class="edge">
<title> 6：List &#45;&gt;7：函式</title>
<path fill="none" stroke="#4caf50" d="M178.52,-134.51C178.52,-132.52 178.52,-130.53 178.52,-128.54"/>
<polygon fill="#4caf50" stroke="#4caf50" points="182.03,-128.65 178.53,-118.65 175.03,-128.65 182.03,-128.65"/>
</g>
<!--  多維資料與迴圈  -->
<g id="node4" class="node">
<title> 多維資料與迴圈 </title>
<polygon fill="#4caf50" stroke="none" points="380.8,-198 250.45,-198 250.45,-162 380.8,-162 380.8,-198"/>
<text xml:space="preserve" text-anchor="middle" x="315.62" y="-176.82" font-family="Arial" font-size="14.00" fill="white"> 多維資料與迴圈 </text>
</g>
<!--  6：List &#45;&gt; 多維資料與迴圈  -->
<g id="edge4" class="edge">
<title> 6：List &#45;&gt; 多維資料與迴圈 :w</title>
<path fill="none" stroke="#4caf50" d="M213.19,-171.46C221.26,-174.79 230.15,-177.66 239.11,-179.07"/>
<polygon fill="#4caf50" stroke="#4caf50" points="238.69,-182.55 248.94,-179.88 239.26,-175.57 238.69,-182.55"/>
</g>
<!-- 10：二分搜尋 -->
<g id="node5" class="node">
<title>10：二分搜尋</title>
<polygon fill="#4caf50" stroke="none" points="369.55,-144 261.7,-144 261.7,-108 369.55,-108 369.55,-144"/>
<text xml:space="preserve" text-anchor="middle" x="315.62" y="-122.83" font-family="Arial" font-size="14.00" fill="white">10：二分搜尋</text>
</g>
<!--  6：List &#45;&gt;10：二分搜尋 -->
<g id="edge5" class="edge">
<title> 6：List &#45;&gt;10：二分搜尋:w</title>
<path fill="none" stroke="#4caf50" d="M214.66,-135.9C225.26,-131.84 237.28,-128.25 249.26,-126.75"/>
<polygon fill="#4caf50" stroke="#4caf50" points="249.44,-130.24 259.19,-126.1 248.98,-123.26 249.44,-130.24"/>
</g>
<!-- 堆疊 Stack -->
<g id="node10" class="node">
<title>堆疊 Stack</title>
<polygon fill="#4caf50" stroke="none" points="511.9,-298 423.55,-298 423.55,-262 511.9,-262 511.9,-298"/>
<text xml:space="preserve" text-anchor="middle" x="467.72" y="-276.82" font-family="Arial" font-size="14.00" fill="white">堆疊 Stack</text>
</g>
<!--  6：List &#45;&gt;堆疊 Stack -->
<g id="edge12" class="edge">
<title> 6：List &#45;&gt;堆疊 Stack</title>
<path fill="none" stroke="#4caf50" d="M190.99,-171.38C203.38,-189.64 224.83,-217.03 250.45,-232 300.35,-261.16 366.19,-272.62 412.06,-277.12"/>
<polygon fill="#4caf50" stroke="#4caf50" points="411.49,-280.58 421.76,-277.99 412.11,-273.61 411.49,-280.58"/>
</g>
<!-- 排序 Sorting -->
<g id="node11" class="node">
<title>排序 Sorting</title>
<polygon fill="#4caf50" stroke="none" points="516.4,-244 419.05,-244 419.05,-208 516.4,-208 516.4,-244"/>
<text xml:space="preserve" text-anchor="middle" x="467.72" y="-222.82" font-family="Arial" font-size="14.00" fill="white">排序 Sorting</text>
</g>
<!--  6：List &#45;&gt;排序 Sorting -->
<g id="edge13" class="edge">
<title> 6：List &#45;&gt;排序 Sorting</title>
<path fill="none" stroke="#4caf50" d="M197.57,-171.4C210.93,-183.76 230.24,-199.18 250.45,-207 300.9,-226.52 362.75,-230.12 407.37,-229.52"/>
<polygon fill="#4caf50" stroke="#4caf50" points="407.17,-233.03 417.09,-229.31 407.02,-226.03 407.17,-233.03"/>
</g>
<!-- 遞迴 Recursion -->
<g id="node6" class="node">
<title>遞迴 Recursion</title>
<polygon fill="#4caf50" stroke="none" points="373.3,-90 257.95,-90 257.95,-54 373.3,-54 373.3,-90"/>
<text xml:space="preserve" text-anchor="middle" x="315.62" y="-68.83" font-family="Arial" font-size="14.00" fill="white">遞迴 Recursion</text>
</g>
<!-- 7：函式&#45;&gt;遞迴 Recursion -->
<g id="edge6" class="edge">
<title>7：函式&#45;&gt;遞迴 Recursion</title>
<path fill="none" stroke="#4caf50" d="M214.67,-91.98C224.52,-90.01 235.58,-87.8 246.65,-85.59"/>
<polygon fill="#4caf50" stroke="#4caf50" points="247.07,-89.07 256.19,-83.68 245.7,-82.21 247.07,-89.07"/>
</g>
<!-- ip -->
<g id="node7" class="node">
<title>ip</title>
<polygon fill="#4caf50" stroke="none" points="380.8,-36 250.45,-36 250.45,0 380.8,0 380.8,-36"/>
<text xml:space="preserve" text-anchor="start" x="261.25" y="-15.82" font-family="monospace" font-size="14.00" fill="white">import </text>
<text xml:space="preserve" text-anchor="start" x="319" y="-15.82" font-family="Arial" font-size="14.00" fill="white"> &#160;&#160;&#160;&#160;模組</text>
</g>
<!-- 7：函式&#45;&gt;ip -->
<g id="edge7" class="edge">
<title>7：函式&#45;&gt;ip:w</title>
<path fill="none" stroke="#4caf50" d="M186.17,-80.62C194.96,-59.52 212.54,-26.87 239.31,-19.51"/>
<polygon fill="#4caf50" stroke="#4caf50" points="239.51,-23.01 248.95,-18.2 238.57,-16.08 239.51,-23.01"/>
</g>
<!--  時間複雜度  -->
<g id="node9" class="node">
<title> 時間複雜度 </title>
<polygon fill="#4caf50" stroke="none" points="518.65,-144 416.8,-144 416.8,-108 518.65,-108 518.65,-144"/>
<text xml:space="preserve" text-anchor="middle" x="467.72" y="-122.83" font-family="Arial" font-size="14.00" fill="white"> 時間複雜度 </text>
</g>
<!--  多維資料與迴圈 &#45;&gt; 時間複雜度  -->
<g id="edge10" class="edge">
<title> 多維資料與迴圈 :e&#45;&gt; 時間複雜度 </title>
<path fill="none" stroke="#4caf50" d="M380.8,-180C403.99,-180 426.05,-165.72 442.01,-151.85"/>
<polygon fill="#4caf50" stroke="#4caf50" points="444.13,-154.66 449.1,-145.31 439.38,-149.52 444.13,-154.66"/>
</g>
<!-- 10：二分搜尋&#45;&gt; 時間複雜度  -->
<g id="edge11" class="edge">
<title>10：二分搜尋&#45;&gt; 時間複雜度 </title>
<path fill="none" stroke="#4caf50" d="M369.97,-126C381.34,-126 393.45,-126 405.1,-126"/>
<polygon fill="#4caf50" stroke="#4caf50" points="405.05,-129.5 415.05,-126 405.05,-122.5 405.05,-129.5"/>
</g>
<!-- 遞迴 Recursion&#45;&gt; 時間複雜度  -->
<g id="edge9" class="edge">
<title>遞迴 Recursion:e&#45;&gt; 時間複雜度 </title>
<path fill="none" stroke="#4caf50" d="M374.3,-72C398.99,-72 422.94,-86.54 440.28,-100.53"/>
<polygon fill="#4caf50" stroke="#4caf50" points="437.67,-102.91 447.55,-106.74 442.21,-97.59 437.67,-102.91"/>
</g>
<!-- 與 AI 協作 -->
<g id="node8" class="node">
<title>與 AI 協作</title>
<polygon fill="#4caf50" stroke="none" points="510.4,-36 425.05,-36 425.05,0 510.4,0 510.4,-36"/>
<text xml:space="preserve" text-anchor="middle" x="467.72" y="-14.82" font-family="Arial" font-size="14.00" fill="white">與 AI 協作</text>
</g>
<!-- ip&#45;&gt;與 AI 協作 -->
<g id="edge8" class="edge">
<title>ip&#45;&gt;與 AI 協作</title>
<path fill="none" stroke="#4caf50" d="M381.15,-18C391.89,-18 402.92,-18 413.34,-18"/>
<polygon fill="#4caf50" stroke="#4caf50" points="413.29,-21.5 423.29,-18 413.29,-14.5 413.29,-21.5"/>
</g>
</g>
</svg>
